<svg xmlns="http://www.w3.org/2000/svg" xmlns:xlink="http://www.w3.org/1999/xlink" width="500" zoomAndPan="magnify" viewBox="0 0 375 374.999991" height="500" preserveAspectRatio="xMidYMid meet" version="1.0"><defs><g/><clipPath id="80a9a2168a"><path d="M 0 0 L 165 0 L 165 157.5 L 0 157.5 Z M 0 0 " clip-rule="nonzero"/></clipPath><clipPath id="90abbf8497"><path d="M 12.8125 46.234375 L 111.628906 46.234375 L 111.628906 151.792969 L 12.8125 151.792969 Z M 12.8125 46.234375 " clip-rule="nonzero"/></clipPath><clipPath id="9ee11935e6"><path d="M 56.484375 102.277344 C 56.078125 102.3125 55.929688 102.488281 56.089844 102.835938 L 56.171875 102.910156 C 56.386719 103.011719 56.492188 102.949219 56.785156 102.894531 L 57.128906 102.835938 C 57.433594 102.75 57.277344 102.972656 57.363281 102.671875 L 57.363281 102.59375 L 57.28125 102.433594 C 57.210938 102.433594 57.117188 102.4375 57.050781 102.425781 C 56.890625 102.402344 56.96875 102.40625 56.886719 102.355469 L 56.566406 102.351562 Z M 49.757812 100.699219 C 49.675781 100.414062 49.417969 100.5 48.648438 100.296875 C 47.96875 100.117188 48.363281 99.84375 47.613281 99.820312 L 47.429688 99.746094 L 47.296875 99.742188 L 47.21875 99.667969 C 46.914062 99.46875 47.015625 99.34375 46.757812 99.179688 C 46.589844 99.078125 46.164062 99.007812 45.953125 98.953125 L 45.875 98.878906 C 45.628906 98.820312 45.640625 98.777344 45.398438 98.714844 L 45.3125 98.640625 C 44.964844 98.558594 44.710938 98.316406 44.429688 98.265625 C 44.222656 98.226562 44.027344 98.265625 43.824219 98.238281 C 43.507812 98.195312 43.613281 98.117188 43.257812 98.085938 C 43.015625 98.066406 42.992188 98.097656 42.777344 98.089844 L 42.445312 98.007812 L 42.316406 98.007812 L 42.226562 98.082031 C 42.03125 98.136719 42.035156 98.121094 41.828125 98.164062 C 41.464844 98.238281 41.71875 98.15625 41.429688 98.316406 C 41.183594 98.453125 40.960938 98.515625 40.792969 98.71875 L 40.722656 98.796875 C 40.546875 99.171875 40.625 99.601562 41.273438 99.191406 L 41.320312 99.160156 L 42.074219 98.71875 L 42.148438 98.640625 C 42.695312 98.523438 42.429688 98.484375 42.808594 98.773438 C 43.351562 99.1875 42.96875 98.609375 44.351562 99.289062 C 44.648438 99.4375 44.65625 99.503906 45.160156 99.515625 C 45.230469 99.515625 45.324219 99.511719 45.390625 99.523438 C 45.542969 99.542969 45.480469 99.546875 45.554688 99.589844 C 46.117188 99.886719 45.835938 99.988281 46.230469 100.179688 C 46.398438 100.261719 46.488281 100.242188 46.691406 100.351562 C 46.902344 100.464844 46.882812 100.5 47.058594 100.617188 C 46.929688 100.8125 46.320312 101.308594 47.117188 101.328125 L 47.21875 101.253906 C 47.515625 100.984375 48.246094 101.09375 48.859375 101.09375 C 48.933594 101.050781 48.738281 101.011719 49.113281 101.019531 C 49.441406 101.027344 49.183594 100.988281 49.285156 101.09375 L 49.597656 101.09375 L 49.675781 101.019531 L 49.757812 100.855469 Z M 53.894531 101.546875 C 53.691406 101.355469 53.757812 101.324219 53.476562 101.25 L 53.335938 101.171875 L 53.085938 101.171875 C 53.070312 101.1875 52.90625 101.4375 52.90625 101.171875 C 52.304688 101.117188 52.730469 100.902344 51.921875 101.121094 C 51.453125 101.25 51.191406 101.054688 50.785156 101.007812 L 50.703125 101.007812 C 50.554688 101.050781 50.578125 101.03125 50.464844 101.09375 C 50.484375 101.957031 50.941406 101.226562 51.101562 101.792969 L 51.171875 101.882812 L 51.179688 102.039062 L 51.179688 102.160156 C 50.929688 102.386719 50.230469 102.277344 49.914062 102.195312 L 49.753906 102.195312 C 49.621094 102.296875 49.464844 102.484375 49.660156 102.675781 C 49.789062 102.804688 50.15625 102.757812 50.386719 102.753906 L 51.808594 102.832031 L 51.808594 103.066406 C 51.878906 103.324219 52.09375 103.464844 52.394531 103.34375 C 52.679688 103.226562 52.644531 103.003906 52.765625 102.753906 C 53.898438 102.753906 53.304688 102.59375 54.195312 102.59375 L 54.269531 102.519531 C 54.335938 102.550781 54.332031 102.542969 54.421875 102.601562 C 54.46875 102.632812 54.601562 102.734375 54.613281 102.742188 C 54.863281 102.886719 54.820312 102.902344 54.988281 102.671875 L 54.988281 102.4375 C 54.867188 102.265625 54.84375 102.230469 54.746094 102.035156 L 54.664062 101.960938 C 54.507812 101.882812 54.582031 101.90625 54.347656 101.875 L 54.277344 101.804688 C 54.03125 101.679688 54.097656 101.742188 53.894531 101.546875 Z M 103.378906 81.566406 L 102.746094 81.566406 C 102.667969 81.617188 102.726562 81.597656 102.585938 81.636719 C 102.558594 81.644531 102.484375 81.640625 102.433594 81.644531 C 102.121094 81.652344 101.746094 81.785156 101.507812 81.90625 C 101.179688 82.070312 101.058594 82.269531 100.699219 82.355469 L 100.613281 82.4375 C 100.355469 82.433594 100.253906 82.457031 100.023438 82.386719 C 99.695312 82.289062 99.886719 82.28125 99.582031 82.195312 L 99.503906 82.117188 C 99.152344 82.035156 99.007812 82.03125 98.710938 81.886719 L 98.632812 81.800781 L 98.546875 81.722656 C 98.203125 81.554688 98.011719 81.601562 97.921875 81.960938 L 97.921875 82.199219 L 97.917969 82.59375 L 97.839844 82.671875 C 97.773438 82.914062 97.773438 82.851562 97.589844 82.976562 C 97.421875 83.09375 97.429688 83.058594 97.265625 83.207031 C 97.058594 83.390625 96.875 83.558594 96.726562 83.777344 L 96.652344 83.855469 C 96.445312 84.164062 96.171875 84.691406 96.179688 85.203125 L 96.179688 85.992188 L 96.175781 86.386719 C 95.917969 86.457031 95.902344 86.535156 95.71875 86.722656 C 95.550781 86.894531 95.433594 86.988281 95.304688 87.179688 L 95.226562 87.257812 L 94.984375 87.574219 L 94.910156 87.648438 C 94.792969 87.828125 94.640625 88.015625 94.511719 88.207031 L 94.433594 88.308594 C 94.246094 88.601562 94.105469 88.867188 93.914062 89.1875 C 93.703125 89.539062 93.523438 89.792969 93.328125 90.101562 L 93.246094 90.183594 C 93.027344 90.507812 92.648438 90.839844 92.457031 91.128906 C 92.457031 91.253906 92.488281 91.230469 92.375 91.230469 C 92.269531 91.359375 92.195312 91.414062 92.082031 91.546875 C 91.972656 91.671875 91.902344 91.796875 91.816406 91.921875 L 91.738281 92 C 91.652344 92.160156 91.628906 92.1875 91.582031 92.394531 L 91.5 92.476562 C 91.425781 92.804688 91.292969 93.226562 91.265625 93.589844 C 91.226562 94.089844 91.386719 94.351562 91.421875 94.769531 L 91.5 94.84375 C 91.582031 95.183594 91.804688 95.542969 91.976562 95.789062 L 92.058594 95.875 L 92.058594 95.949219 L 92.136719 96.03125 C 92.207031 96.335938 92.289062 96.386719 92.292969 96.757812 C 92.371094 96.867188 92.460938 96.996094 92.292969 97.128906 C 92.292969 97.570312 92.167969 97.785156 92.136719 98.167969 L 92.058594 98.246094 L 92.058594 98.324219 L 91.976562 98.410156 C 91.773438 98.703125 91.535156 98.726562 91.5 99.113281 L 91.5 99.351562 C 91.535156 99.746094 91.773438 99.761719 91.976562 100.066406 C 91.898438 100.355469 91.898438 100.167969 91.816406 100.460938 L 91.738281 100.542969 C 91.675781 101.277344 91.605469 101.328125 92.113281 101.824219 C 92.445312 102.144531 92.710938 102.425781 92.929688 102.832031 L 93.011719 102.910156 C 93.183594 103.257812 93.292969 103.417969 93.515625 103.75 C 93.625 103.914062 93.695312 104.035156 93.796875 104.175781 C 93.921875 104.34375 94.003906 104.402344 94.117188 104.566406 L 94.203125 104.648438 L 94.273438 104.722656 L 94.355469 104.808594 L 94.429688 104.886719 L 94.515625 104.960938 L 94.597656 105.039062 L 94.671875 105.128906 L 94.746094 105.203125 L 94.835938 105.277344 L 94.910156 105.363281 L 94.988281 105.441406 C 95.234375 105.605469 95.535156 105.882812 95.78125 106.070312 C 96.070312 106.292969 96.285156 106.535156 96.550781 106.804688 C 96.6875 106.941406 96.777344 107.019531 96.910156 107.15625 C 97.675781 107.953125 97.128906 107.839844 98.390625 107.734375 L 98.550781 107.65625 C 98.96875 107.65625 99.289062 107.527344 99.664062 107.5 C 100.070312 107.46875 100.589844 107.496094 101.007812 107.496094 C 101.082031 107.449219 101.035156 107.460938 101.171875 107.425781 C 101.195312 107.417969 101.28125 107.421875 101.324219 107.421875 L 101.625 107.417969 C 101.75 107.339844 101.523438 107.417969 101.800781 107.339844 C 101.828125 107.335938 101.914062 107.335938 101.960938 107.335938 C 102.335938 107.332031 102.476562 107.210938 102.808594 107.179688 C 102.808594 107.066406 102.785156 107.097656 102.910156 107.097656 C 103.195312 107.078125 103.285156 107.003906 103.539062 106.941406 L 103.621094 106.863281 C 104.207031 106.730469 104.46875 106.507812 105.046875 106.785156 L 105.207031 106.941406 C 105.417969 107.054688 105.4375 107.09375 105.761719 107.097656 C 105.882812 107.097656 105.859375 107.066406 105.859375 107.179688 C 106.171875 107.261719 106.355469 107.425781 106.507812 107.699219 C 106.695312 108.039062 106.632812 108.363281 106.632812 108.839844 L 106.554688 108.925781 C 106.484375 109.210938 106.421875 109.140625 106.398438 109.472656 L 106.316406 109.554688 L 106.3125 109.707031 L 106.234375 109.796875 C 106.234375 110.1875 106.167969 110.222656 106.160156 110.503906 C 106.152344 110.820312 106.234375 110.878906 106.234375 111.292969 L 106.3125 111.371094 L 106.316406 111.535156 L 106.398438 111.6875 L 106.476562 111.992188 L 106.554688 112.082031 L 106.792969 112.867188 L 106.871094 112.949219 L 106.871094 113.15625 L 106.945312 113.265625 C 106.984375 113.648438 107.109375 113.765625 107.109375 114.210938 L 107.183594 114.296875 L 107.1875 114.582031 C 107.238281 114.679688 107.203125 114.496094 107.257812 114.769531 C 107.269531 114.820312 107.265625 114.949219 107.265625 115.007812 L 107.269531 116.191406 C 107.265625 116.308594 107.269531 116.296875 107.246094 116.40625 L 107.21875 116.460938 C 107.214844 116.449219 107.199219 116.488281 107.1875 116.503906 L 107.199219 116.746094 L 107.109375 116.882812 C 107.085938 117.191406 107.011719 117.269531 106.945312 117.535156 L 106.871094 117.617188 C 106.808594 117.886719 106.671875 118.105469 106.554688 118.328125 C 106.554688 118.445312 106.585938 118.417969 106.476562 118.417969 C 106.273438 118.761719 105.859375 119.574219 105.757812 119.988281 L 105.683594 120.0625 C 105.621094 120.320312 105.546875 120.410156 105.527344 120.699219 C 105.527344 120.816406 105.558594 120.792969 105.445312 120.792969 C 105.367188 121.09375 105.238281 121.484375 105.203125 121.804688 L 105.128906 121.964844 C 105.113281 122.542969 104.890625 122.992188 104.890625 123.703125 C 104.890625 124.035156 104.867188 123.882812 104.8125 123.957031 C 104.8125 124.496094 104.738281 124.738281 104.730469 125.230469 C 109.121094 117.523438 111.628906 108.613281 111.628906 99.113281 C 111.628906 94.8125 111.117188 90.632812 110.144531 86.628906 C 110.128906 86.640625 110.105469 86.652344 110.082031 86.671875 C 110.066406 86.683594 109.71875 86.835938 109.695312 86.84375 C 109.363281 86.980469 109.332031 86.875 109.007812 86.703125 L 108.925781 86.625 C 108.703125 86.472656 108.601562 86.308594 108.386719 86.136719 C 108.171875 85.964844 107.960938 85.824219 107.742188 85.671875 L 107.664062 85.597656 C 107.191406 85.351562 106.933594 84.992188 106.632812 84.578125 C 106.515625 84.578125 106.546875 84.605469 106.546875 84.488281 C 106.410156 84.203125 106.300781 83.832031 106.15625 83.542969 L 106.078125 83.460938 C 105.96875 83.046875 105.492188 82.5625 105.1875 82.296875 C 104.847656 82.011719 104.242188 81.703125 103.703125 81.636719 C 103.59375 81.636719 103.585938 81.636719 103.484375 81.617188 C 103.46875 81.617188 103.4375 81.617188 103.429688 81.59375 C 103.417969 81.574219 103.394531 81.574219 103.378906 81.566406 Z M 99.742188 70.734375 C 99.332031 70.742188 99.316406 70.820312 99.054688 70.996094 C 98.742188 71.207031 98.621094 71.125 98.15625 71.132812 L 98.074219 71.050781 C 97.789062 70.984375 97.535156 70.765625 97.265625 71.035156 C 97 71.300781 97.222656 71.550781 97.363281 71.761719 L 97.757812 71.765625 L 97.835938 71.839844 C 98.171875 71.917969 98.4375 72.164062 98.621094 72.402344 C 98.816406 72.65625 99.035156 72.902344 99.203125 73.167969 C 99.457031 73.570312 100.035156 74.75 99.511719 75.160156 L 99.421875 75.238281 C 98.75 75.398438 98.734375 75.226562 98.15625 75.25 L 98.011719 75.160156 C 97.777344 75.109375 97.890625 75.183594 97.757812 75.019531 C 97.648438 75.019531 97.679688 75.046875 97.679688 74.921875 C 97.59375 74.59375 97.546875 74.609375 97.144531 74.609375 C 97.144531 74.722656 97.171875 74.6875 97.046875 74.6875 C 96.824219 74.792969 96.820312 74.746094 96.574219 74.6875 C 96.4375 74.6875 96.464844 74.726562 96.464844 74.609375 L 96.335938 74.609375 L 96.253906 74.527344 C 95.804688 74.3125 95.660156 74.582031 95.382812 74.765625 C 95.382812 75.40625 95.535156 75.261719 95.578125 75.652344 C 95.621094 76.050781 95.441406 75.972656 95.667969 76.539062 C 96.03125 77.449219 95.492188 77.851562 95.382812 78.246094 L 95.382812 78.558594 L 95.777344 79.039062 L 95.855469 79.113281 L 95.859375 79.179688 C 95.972656 79.179688 95.941406 79.152344 95.941406 79.273438 L 95.941406 79.746094 C 95.941406 79.890625 95.984375 79.867188 95.859375 79.867188 C 95.859375 80.300781 95.902344 80.464844 96.261719 80.53125 C 96.417969 80.558594 96.585938 80.550781 96.765625 80.582031 C 97 80.621094 97.097656 80.652344 97.285156 80.691406 C 97.421875 80.691406 97.398438 80.652344 97.398438 80.773438 C 97.773438 80.898438 97.875 81.425781 98.359375 81.300781 C 98.78125 81.191406 98.648438 80.804688 99.503906 80.765625 L 99.644531 80.855469 L 100.296875 80.855469 L 100.375 80.773438 C 100.78125 80.679688 100.761719 80.613281 100.929688 80.300781 L 101.007812 80.21875 C 101.042969 79.785156 101.039062 79.902344 101.023438 79.503906 C 101.015625 79.210938 101.140625 79.035156 101.164062 78.71875 L 101.246094 78.558594 C 101.265625 77.742188 102.050781 78.070312 102.304688 77.402344 C 102.453125 77.011719 102.1875 76.609375 102.53125 76.515625 C 102.832031 76.433594 102.882812 76.800781 103.148438 76.980469 L 103.242188 77.058594 C 104.160156 77.058594 103.636719 76.652344 104.355469 76.503906 C 104.386719 76.453125 104.503906 76.265625 104.503906 76.503906 C 104.960938 76.636719 105.019531 77.226562 105.128906 77.691406 L 105.207031 77.769531 C 105.253906 77.976562 105.277344 78.003906 105.367188 78.164062 L 105.445312 78.246094 C 105.664062 78.660156 106.003906 78.921875 106.335938 79.25 C 106.714844 79.628906 106.894531 79.867188 107.1875 80.296875 L 107.269531 80.378906 C 107.328125 80.492188 107.355469 80.5625 107.425781 80.671875 C 107.539062 80.671875 107.503906 80.648438 107.503906 80.773438 C 107.546875 80.953125 107.574219 81.003906 107.621094 81.210938 C 107.707031 81.605469 107.546875 81.570312 107.820312 81.648438 L 107.898438 81.648438 C 108.160156 81.59375 108.007812 81.746094 108.0625 81.488281 C 108.0625 81.136719 108.019531 81.128906 108.136719 80.917969 C 108.296875 80.894531 108.277344 80.898438 108.390625 80.871094 C 108.328125 80.699219 108.265625 80.527344 108.199219 80.359375 L 107.980469 80.144531 L 107.820312 79.984375 C 107.75 79.707031 107.496094 79.417969 107.347656 79.1875 L 107.265625 79.117188 L 107.191406 79.035156 C 106.84375 78.527344 106.507812 78.441406 106.15625 77.769531 L 106.078125 77.691406 C 105.992188 77.53125 105.941406 77.480469 105.917969 77.253906 C 105.800781 77.253906 105.839844 77.277344 105.839844 77.136719 L 105.839844 77.058594 C 105.921875 76.929688 105.839844 76.929688 105.925781 77.058594 C 106.167969 77.226562 106.382812 77.554688 106.585938 77.816406 C 106.789062 78.074219 107.164062 78.351562 107.535156 78.691406 C 106.101562 75.277344 104.320312 72.042969 102.234375 69.039062 C 102.1875 69.101562 102.109375 69.183594 102.109375 68.992188 C 101.714844 68.960938 102.007812 68.933594 101.640625 68.835938 L 101.5625 68.757812 L 100.929688 68.757812 C 100.804688 69.289062 100.777344 69.085938 101.085938 69.441406 L 101.160156 69.546875 L 101.160156 69.707031 L 101.085938 69.796875 C 100.777344 69.917969 100.445312 69.699219 100.089844 69.894531 C 99.816406 70.050781 99.613281 70.460938 99.742188 70.734375 Z M 95.464844 67.492188 C 95.464844 66.429688 95.335938 67.019531 95.171875 66.519531 C 94.996094 66 95.183594 65.226562 94.195312 65.199219 L 94.113281 65.125 L 94.039062 65.042969 C 93.460938 65.054688 93.5 65.269531 93.71875 65.597656 C 93.054688 65.597656 93.464844 65.480469 93.007812 65.359375 C 92.886719 65.539062 92.910156 65.441406 92.847656 65.667969 L 92.925781 65.757812 L 93.007812 65.832031 C 93.046875 66.328125 93.191406 66.152344 93.328125 66.539062 C 93.46875 66.933594 93.3125 67.105469 93.359375 67.386719 C 93.40625 67.664062 93.65625 67.847656 93.894531 67.871094 C 94.273438 67.90625 94 67.71875 94.828125 67.730469 L 94.988281 67.730469 C 95.355469 67.695312 95.207031 67.664062 95.464844 67.492188 Z M 96.414062 67.414062 L 96.414062 67.757812 C 96.496094 67.851562 96.457031 67.621094 96.476562 67.898438 C 96.5 68.21875 96.515625 67.957031 96.414062 68.066406 L 96.414062 68.75 L 96.488281 68.835938 C 96.558594 69.066406 96.53125 68.972656 96.652344 69.160156 L 96.722656 69.238281 L 96.808594 69.308594 L 96.890625 69.390625 C 97.277344 69.597656 97.371094 69.605469 97.78125 69.570312 C 98.269531 69.527344 98.257812 69.695312 98.789062 69.710938 L 98.882812 69.785156 L 98.949219 69.789062 L 99.027344 69.863281 C 99.480469 69.863281 99.660156 69.734375 99.503906 69.386719 L 99.429688 69.3125 C 99.402344 68.265625 99.058594 68.585938 98.742188 68.09375 C 98.632812 67.929688 98.550781 67.648438 98.445312 67.4375 C 98.308594 67.160156 98.226562 67.007812 98.078125 66.777344 L 98 66.703125 C 97.496094 65.808594 96.722656 65.542969 96.507812 64.867188 C 96.382812 64.464844 96.4375 64.296875 96.019531 64.164062 L 95.945312 64.09375 C 95.085938 64.074219 95.878906 63.582031 95.382812 63.21875 L 95.285156 63.144531 C 94.996094 63.144531 94.964844 63.175781 94.75 63.222656 C 94.695312 63.457031 94.671875 63.46875 94.671875 63.78125 L 94.746094 63.855469 L 94.753906 64.015625 L 94.671875 64.152344 L 94.671875 64.464844 L 94.746094 64.566406 C 95.019531 64.957031 95.019531 64.65625 95.304688 65.027344 L 95.375 65.121094 C 95.714844 65.582031 95.410156 65.722656 95.796875 65.972656 C 96.066406 66.144531 96.058594 65.988281 96.28125 66.203125 C 96.402344 66.324219 96.335938 66.378906 96.574219 66.550781 L 96.644531 66.625 C 96.890625 66.753906 96.808594 66.804688 96.808594 67.175781 C 96.652344 67.28125 96.589844 67.320312 96.414062 67.414062 Z M 64.492188 53.578125 C 64.726562 53.9375 65.226562 54.203125 65.597656 54.445312 L 65.679688 54.527344 C 65.988281 54.738281 66.019531 54.863281 66.230469 55.144531 L 66.308594 55.238281 C 66.390625 55.53125 66.390625 55.339844 66.46875 55.632812 L 66.550781 55.714844 L 66.546875 55.765625 C 66.664062 55.765625 66.628906 55.738281 66.628906 55.871094 L 66.785156 56.1875 L 66.863281 56.265625 C 67.214844 56.789062 67.613281 57.238281 68.148438 57.597656 C 68.570312 57.882812 69.398438 58.386719 70.035156 58.398438 L 70.203125 58.480469 L 70.507812 58.464844 L 70.644531 58.558594 L 71.699219 58.558594 L 71.855469 58.484375 L 72.191406 58.480469 C 72.324219 58.371094 72.769531 58.34375 72.878906 58.480469 L 73.125 58.480469 L 73.203125 58.558594 C 73.546875 58.640625 73.632812 58.773438 73.859375 59.011719 C 74.058594 59.222656 74.152344 59.441406 74.386719 59.589844 C 74.804688 59.851562 75.523438 59.894531 75.894531 59.191406 L 75.976562 59.113281 C 76.21875 58.070312 76.265625 57.445312 75.738281 56.660156 L 75.65625 56.582031 L 75.664062 56.503906 L 75.738281 56.429688 C 76.09375 56.414062 76.136719 56.394531 76.296875 56.1875 L 76.371094 56.097656 C 76.457031 55.746094 76.460938 55.921875 76.371094 55.574219 C 76.257812 55.574219 76.292969 55.597656 76.292969 55.476562 C 76.167969 55.214844 76.214844 54.976562 76.210938 54.605469 L 76.292969 54.519531 L 76.609375 54.210938 L 76.6875 54.132812 L 76.734375 54.132812 C 76.734375 54.011719 76.707031 54.050781 76.847656 54.050781 C 77.152344 54.027344 77.226562 53.980469 77.640625 53.972656 C 78.050781 53.96875 78.085938 53.902344 78.414062 53.894531 C 78.414062 53.78125 78.390625 53.816406 78.511719 53.816406 C 79.21875 53.652344 79.707031 53.046875 80.015625 52.472656 L 80.09375 52.394531 C 80.242188 52.261719 80.28125 52.183594 80.535156 52.15625 C 80.601562 52.121094 80.542969 52.128906 80.726562 52.085938 C 80.753906 52.078125 80.84375 52.082031 80.886719 52.082031 C 81.453125 52.058594 81.523438 51.699219 81.726562 51.496094 C 75.109375 48.292969 67.722656 46.421875 59.921875 46.234375 L 60.117188 46.304688 L 60.289062 46.304688 L 60.371094 46.382812 C 60.65625 46.410156 60.746094 46.480469 61.003906 46.542969 C 61.140625 46.542969 61.117188 46.503906 61.117188 46.621094 L 61.242188 46.621094 L 61.320312 46.699219 C 61.667969 46.78125 62.097656 47.046875 62.363281 47.242188 C 63.203125 47.863281 63.667969 49.179688 65.28125 49.140625 L 65.414062 49.230469 C 65.589844 49.257812 65.5625 49.242188 65.675781 49.3125 L 65.765625 49.386719 L 65.847656 49.621094 L 65.664062 49.625 C 65.5 49.738281 65.390625 49.769531 65.21875 49.625 C 64.597656 49.625 64.015625 49.40625 63.480469 49.703125 L 63.378906 49.78125 C 63.269531 49.949219 63.183594 50 63.21875 50.324219 C 63.242188 50.527344 63.332031 50.691406 63.484375 50.789062 C 63.898438 51.058594 64.179688 50.742188 64.65625 50.734375 L 64.804688 50.644531 L 65.160156 50.652344 C 65.28125 50.539062 65.308594 50.566406 65.515625 50.566406 C 65.742188 50.5625 65.816406 50.535156 65.910156 50.652344 L 65.992188 50.734375 L 65.914062 50.808594 L 65.726562 50.8125 L 65.519531 50.902344 C 64.996094 50.914062 64.4375 51.386719 64.328125 51.839844 L 64.25 51.917969 L 64.25 51.996094 C 64.25 52.128906 64.289062 52.101562 64.171875 52.101562 L 64.171875 53.027344 L 64.25 53.105469 C 64.300781 53.308594 64.320312 53.335938 64.410156 53.492188 Z M 58.410156 57.929688 C 58.292969 57.898438 58.214844 57.941406 58.308594 57.847656 C 58.40625 57.753906 58.601562 57.984375 58.410156 57.929688 Z M 52.675781 54.449219 L 52.371094 54.765625 L 52.289062 54.839844 C 52.070312 54.992188 52.089844 55.082031 51.835938 55.160156 L 51.65625 55.234375 C 51.289062 55.273438 51.265625 55.414062 51.257812 55.792969 C 51.386719 55.925781 51.429688 55.976562 51.65625 56.03125 C 51.597656 56.277344 51.664062 56.148438 51.472656 56.265625 L 51.257812 56.351562 L 50.84375 56.34375 L 50.703125 56.425781 C 50.207031 56.425781 50.355469 56.5 49.988281 56.582031 L 49.914062 56.582031 C 49.550781 56.554688 49.632812 56.449219 49.351562 56.433594 C 49.074219 56.417969 49.078125 56.519531 48.800781 56.582031 L 48.722656 56.65625 C 48.425781 56.734375 48.390625 56.832031 48.089844 56.898438 C 48.089844 57.648438 48.453125 57.425781 49.144531 57.511719 C 49.820312 57.601562 49.964844 57.25 50.390625 57.136719 L 50.464844 57.0625 L 50.605469 57.058594 L 50.703125 56.984375 C 51.140625 56.929688 50.875 56.960938 51.339844 56.984375 L 51.414062 57.058594 C 52.046875 57.351562 51.496094 56.980469 52.769531 57.6875 C 53.253906 57.953125 52.929688 58.023438 53.238281 58.410156 L 53.328125 58.480469 L 54.507812 58.484375 L 54.582031 58.558594 L 54.664062 58.632812 L 54.734375 58.71875 C 54.824219 58.988281 54.789062 58.960938 55.0625 59.035156 L 55.457031 59.035156 L 55.933594 59.03125 L 56.074219 59.113281 C 56.472656 59.207031 56.160156 59.261719 56.726562 59.273438 L 56.816406 59.351562 L 56.964844 59.433594 L 57.046875 59.507812 C 57.222656 59.59375 57.386719 59.628906 57.488281 59.390625 C 57.621094 59.082031 57.414062 58.988281 57.273438 58.882812 C 56.925781 58.621094 56.738281 58.449219 56.25 58.316406 L 56.164062 58.246094 C 55.9375 58.238281 55.867188 58.230469 55.703125 58.15625 C 55.5 58.074219 55.4375 58.011719 55.378906 57.847656 L 55.773438 57.855469 L 56.066406 57.925781 L 56.328125 57.929688 L 56.40625 58.003906 C 56.742188 58.035156 56.785156 58.132812 57.121094 58.167969 L 57.195312 58.246094 C 57.367188 58.28125 57.519531 58.304688 57.71875 58.359375 C 57.988281 58.425781 58 58.472656 58.308594 58.480469 C 58.480469 58.226562 58.441406 58.425781 58.46875 58.085938 C 58.722656 58.253906 58.523438 58.214844 58.863281 58.246094 C 58.988281 57.707031 58.898438 57.597656 58.46875 57.375 L 58.382812 57.296875 L 58.3125 57.210938 L 58.234375 57.136719 C 58.023438 57 58.074219 56.957031 57.800781 56.851562 C 57.59375 56.777344 57.460938 56.773438 57.253906 56.6875 C 56.824219 56.507812 56.65625 56.335938 56.328125 56.101562 L 56.253906 56.03125 C 55.992188 55.960938 56.09375 56 55.933594 55.824219 L 55.859375 55.714844 C 55.921875 55.414062 55.894531 55.449219 56.089844 55.339844 L 56.164062 55.632812 C 56.257812 55.734375 56.035156 55.71875 56.328125 55.699219 C 56.5 55.6875 56.398438 55.703125 56.492188 55.632812 C 56.492188 55.5625 56.484375 55.46875 56.496094 55.398438 C 56.546875 55.058594 56.492188 55.355469 56.566406 55.207031 L 56.566406 55.082031 C 56.808594 55.136719 56.800781 55.179688 57.042969 55.246094 L 57.1875 55.320312 C 57.550781 55.492188 57.53125 55.546875 58.070312 55.558594 L 58.144531 55.632812 L 58.148438 55.714844 L 58.148438 55.792969 C 58.257812 56.175781 58.335938 56.097656 58.785156 56.117188 L 58.867188 56.1875 C 59.039062 56.375 59.058594 56.417969 59.417969 56.425781 C 59.539062 56.171875 59.445312 56.09375 59.5625 55.871094 C 59.566406 55.871094 59.742188 55.605469 59.742188 55.871094 L 59.894531 55.878906 L 60.132812 55.878906 C 60.761719 55.804688 61.351562 54.707031 60.554688 54.726562 C 59.753906 54.746094 60.199219 54.617188 59.6875 54.496094 C 59.105469 54.351562 59.886719 54.667969 58.707031 54.363281 L 58.628906 54.285156 L 58.546875 54.214844 C 58.429688 54.214844 58.457031 54.246094 58.457031 54.132812 L 58.308594 54.046875 L 58.234375 53.972656 C 57.941406 53.910156 57.386719 53.820312 57.042969 53.804688 L 56.957031 53.738281 C 56.402344 53.429688 56.804688 53.578125 56.085938 53.5 C 55.527344 53.441406 55.84375 53.230469 55.9375 52.867188 L 56.011719 52.789062 C 56.050781 52.308594 56.226562 52.476562 56.492188 52.3125 L 56.492188 52.15625 L 56.488281 52.074219 L 56.386719 51.996094 L 56.25 51.992188 L 56.175781 51.917969 L 55.199219 51.996094 L 55.0625 52.074219 L 54.890625 52.03125 C 55.0625 51.722656 54.945312 51.472656 54.554688 51.566406 C 54.109375 51.667969 54.914062 51.789062 53.757812 51.480469 C 53.183594 51.328125 53.414062 51.210938 53.09375 51.03125 C 52.726562 50.832031 52.582031 51.097656 52.214844 51.128906 C 52.203125 51.144531 52.03125 51.394531 52.03125 51.128906 L 51.84375 51.128906 C 51.824219 51.140625 51.804688 51.15625 51.792969 51.164062 L 51.730469 51.1875 C 51.675781 51.210938 51.644531 51.203125 51.574219 51.203125 L 51.257812 51.203125 L 51.097656 51.128906 L 50.863281 51.128906 L 50.863281 50.890625 C 51.117188 50.886719 51.320312 50.902344 51.25 50.601562 C 51.199219 50.386719 50.992188 50.371094 50.785156 50.253906 L 50.710938 50.179688 C 50.378906 50.179688 50.402344 50.199219 50.160156 50.257812 L 50.070312 50.335938 C 49.585938 50.351562 49.761719 50.484375 49.285156 50.496094 L 49.199219 50.570312 C 48.59375 50.632812 48.84375 51.125 48.167969 51.121094 L 48.097656 51.046875 C 47.695312 50.539062 47.328125 50.960938 46.871094 51.046875 C 46.832031 51.117188 46.726562 51.273438 46.726562 51.046875 C 46.539062 50.667969 47.015625 50.1875 46.425781 50.015625 L 46.109375 50.015625 C 45.832031 50.097656 45.933594 50.082031 45.753906 50.257812 C 45.691406 50.292969 45.707031 50.296875 45.585938 50.308594 C 45.484375 50.3125 45.496094 50.355469 45.496094 50.257812 L 45.316406 50.257812 L 45.238281 50.179688 C 44.925781 50.179688 44.917969 50.203125 44.683594 50.257812 L 44.605469 50.335938 C 44.152344 50.585938 44.375 50.472656 44.128906 50.886719 C 43.984375 51.125 43.8125 51.207031 43.652344 51.445312 C 43.710938 51.652344 43.648438 51.507812 43.734375 51.683594 L 43.808594 51.765625 L 43.886719 51.839844 C 43.980469 51.957031 43.96875 51.660156 43.96875 52.078125 C 43.921875 52.101562 43.710938 52.28125 43.496094 52.164062 C 43.480469 52.152344 43.226562 51.980469 43.496094 51.980469 C 43.464844 51.839844 43.472656 51.859375 43.414062 51.757812 L 43.320312 51.683594 C 42.421875 51.597656 43.566406 49.980469 42.441406 50.621094 C 42.382812 50.65625 42.371094 50.769531 41.828125 50.8125 L 41.753906 50.886719 C 41.347656 50.988281 41.21875 50.867188 41.113281 51.207031 L 41.039062 51.289062 C 40.800781 51.609375 40.84375 51.273438 40.714844 51.683594 L 40.644531 51.753906 C 40.503906 51.976562 40.425781 52.023438 40.5625 52.3125 L 40.636719 52.394531 C 40.75 52.453125 40.726562 52.445312 40.886719 52.472656 L 40.960938 52.398438 L 41.277344 52.398438 L 41.382812 52.472656 L 41.757812 52.472656 L 41.832031 52.398438 L 42.070312 52.390625 L 42.003906 52.550781 L 41.832031 52.621094 L 41.753906 52.625 L 41.457031 52.550781 C 40.398438 52.550781 40.785156 53.199219 41.175781 53.167969 L 42.464844 52.949219 L 42.566406 53.023438 L 43.070312 53.023438 L 43.179688 52.949219 L 43.335938 52.949219 L 43.4375 53.023438 L 43.6875 53.023438 L 43.8125 52.933594 L 44.285156 52.949219 L 44.371094 53.023438 L 44.6875 53.023438 L 44.761719 52.953125 C 45.164062 52.941406 45.6875 52.972656 45.96875 52.882812 C 46.449219 52.730469 46.324219 52.519531 46.804688 52.394531 L 47.367188 52.394531 L 47.457031 52.316406 L 47.917969 51.902344 C 48.023438 52.261719 48.230469 52.203125 48.566406 52.3125 C 48.96875 52.445312 48.878906 52.613281 49.359375 52.632812 C 49.644531 52.640625 49.511719 52.609375 49.660156 52.710938 C 49.90625 52.726562 50.183594 52.988281 50.785156 53.261719 C 50.96875 53.347656 51.027344 53.40625 51.179688 53.496094 C 51.933594 53.933594 51.945312 53.539062 52.605469 54.347656 Z M 48.40625 84.511719 C 48.421875 83.820312 48.644531 83.140625 48.878906 82.671875 L 48.960938 82.597656 L 49.121094 82.433594 C 49.28125 82.359375 49.402344 82.320312 49.597656 82.277344 L 49.675781 82.199219 C 50.214844 81.824219 50.046875 81.671875 50.371094 81.152344 C 50.632812 80.730469 50.867188 80.558594 51.261719 80.300781 L 51.339844 80.222656 C 51.902344 79.835938 52.382812 79.363281 52.765625 78.796875 L 52.84375 78.714844 C 53.136719 78.183594 53.375 77.707031 53.875 77.375 L 53.953125 77.296875 C 54.234375 77.148438 54.691406 76.851562 55.058594 76.820312 L 55.140625 76.742188 L 55.320312 76.742188 L 55.457031 76.652344 C 56.058594 76.683594 56.496094 76.613281 56.882812 76.425781 L 56.964844 76.347656 C 57.320312 76.253906 57.453125 75.988281 57.910156 75.953125 L 57.992188 75.871094 L 58.066406 75.871094 L 58.152344 75.792969 C 58.628906 75.753906 58.386719 75.753906 58.863281 75.792969 C 58.78125 76.101562 58.558594 76.1875 58.25 76.265625 C 58.25 76.378906 58.273438 76.34375 58.152344 76.34375 C 57.667969 76.460938 57.214844 76.699219 57.199219 77.292969 L 57.28125 77.375 C 57.40625 77.859375 58.023438 77.914062 58.3125 77.539062 C 58.429688 77.386719 58.496094 77.222656 58.644531 77.074219 C 58.839844 76.875 58.945312 76.867188 59.183594 76.742188 L 59.261719 76.667969 C 59.546875 76.59375 59.488281 76.53125 59.808594 76.503906 C 59.808594 76.394531 59.78125 76.421875 59.894531 76.421875 L 60.117188 76.425781 L 60.289062 76.347656 C 60.847656 76.347656 61.042969 76.292969 61.476562 76.191406 C 61.53125 75.957031 61.558594 75.949219 61.558594 75.636719 L 61.320312 75.476562 L 61.242188 75.398438 L 60.867188 75.398438 C 60.667969 75.507812 60.546875 75.507812 60.304688 75.457031 L 60.183594 75.398438 C 59.601562 75.398438 59.0625 75.019531 58.828125 74.644531 C 58.667969 74.386719 58.65625 74.191406 58.484375 73.960938 C 58.273438 73.679688 58.128906 73.65625 57.832031 73.5 L 57.757812 73.421875 L 58.003906 73.265625 C 58.082031 73.214844 58.011719 73.226562 58.160156 73.195312 C 58.21875 73.179688 58.324219 73.1875 58.390625 73.1875 C 58.753906 73.152344 58.605469 73.121094 58.863281 72.949219 C 58.863281 72.808594 58.878906 72.53125 58.851562 72.410156 C 58.789062 72.140625 58.765625 72.195312 58.546875 72.078125 C 58.203125 72.074219 58.390625 72.070312 58.3125 72 L 57.941406 72 C 57.886719 72.027344 57.882812 72.050781 57.753906 72.074219 C 57.726562 72.078125 57.632812 72.082031 57.601562 72.082031 C 57.519531 72.089844 57.371094 72.078125 57.28125 72.078125 C 56.753906 72.078125 56.667969 72.199219 56.261719 72.234375 L 56.171875 72.316406 C 55.714844 72.355469 55.003906 72.757812 54.726562 73.007812 C 54.363281 73.328125 54.0625 73.859375 53.558594 73.976562 L 53.558594 73.738281 L 53.636719 73.652344 C 53.832031 73.378906 54.070312 73.160156 54.363281 72.964844 C 54.550781 72.835938 55.03125 72.464844 55.140625 72.316406 L 55.214844 72.230469 L 55.300781 72.160156 C 55.699219 71.886719 56.019531 71.652344 56.570312 71.523438 L 56.644531 71.445312 C 56.976562 71.417969 57.203125 71.285156 57.507812 71.207031 L 57.597656 71.128906 C 57.753906 71.054688 57.910156 70.992188 58.128906 70.972656 C 58.128906 70.855469 58.101562 70.890625 58.230469 70.890625 C 58.59375 70.882812 58.921875 70.8125 59.417969 70.8125 C 59.945312 70.8125 60.1875 70.886719 60.605469 70.894531 L 60.683594 70.972656 C 61.0625 70.972656 61.03125 71.039062 61.324219 71.046875 C 61.660156 71.054688 61.644531 70.972656 62.046875 70.972656 L 62.191406 70.890625 C 62.558594 70.863281 62.972656 70.582031 63.222656 70.417969 L 63.300781 70.339844 C 63.523438 70.21875 63.65625 70.109375 63.976562 70.101562 C 63.976562 69.980469 63.953125 70.019531 64.09375 70.019531 C 64.886719 70.019531 65.199219 70.050781 65.664062 69.707031 C 65.664062 69.589844 65.636719 69.617188 65.75 69.617188 L 65.835938 69.550781 L 65.914062 69.464844 C 66.25 68.976562 66.316406 68.789062 66.3125 67.96875 C 66.308594 67.660156 66.324219 67.320312 66.3125 67.015625 C 66.292969 66.632812 66.179688 66.496094 66.152344 66.152344 L 66.070312 66.070312 L 66.074219 66.007812 L 65.996094 65.910156 L 65.835938 65.597656 L 65.757812 65.515625 L 65.667969 65.4375 L 65.4375 65.203125 L 65.351562 65.121094 C 65.175781 64.996094 65.046875 64.867188 64.804688 64.804688 L 64.722656 64.726562 C 63.964844 64.546875 63.695312 64.527344 62.921875 64.726562 C 62.921875 64.835938 62.945312 64.804688 62.824219 64.804688 C 62.214844 64.855469 61.730469 65.03125 61.222656 64.660156 C 60.75 64.316406 60.769531 64.003906 60.605469 63.402344 C 60.492188 63.402344 60.53125 63.429688 60.53125 63.304688 C 60.433594 63.128906 60.394531 63.066406 60.289062 62.910156 L 60.199219 62.835938 L 60.125 62.757812 L 60.050781 62.671875 L 59.816406 62.515625 L 59.734375 62.433594 C 59.445312 62.222656 59.65625 62.394531 59.539062 61.996094 C 59.460938 61.738281 59.425781 61.683594 59.261719 61.566406 L 59.179688 61.484375 C 58.722656 61.261719 58.25 61.414062 58.023438 61.753906 C 57.5 62.542969 56.910156 62.898438 55.820312 62.625 C 55.265625 62.484375 55.074219 62.386719 54.824219 61.976562 C 54.710938 61.976562 54.746094 62.003906 54.746094 61.878906 L 54.746094 61.789062 C 54.636719 61.652344 54.699219 61.835938 54.664062 61.566406 C 54.65625 61.503906 54.664062 61.320312 54.664062 61.246094 C 54.496094 60.523438 53.972656 60.441406 53.398438 60.140625 L 53.316406 60.0625 C 53.0625 59.890625 52.957031 59.679688 52.605469 59.589844 L 52.523438 59.507812 C 52.273438 59.386719 51.953125 59.269531 51.574219 59.273438 L 50.863281 59.273438 C 50.476562 59.269531 50.527344 59.335938 50.222656 59.347656 C 49.863281 59.355469 49.972656 59.277344 49.597656 59.273438 C 49.382812 59.273438 49.078125 59.324219 48.980469 59.191406 C 48.640625 59.121094 48.691406 58.992188 48.378906 59.078125 C 48.363281 59.082031 48.125 59.21875 48.121094 59.21875 C 47.957031 59.398438 48.042969 59.101562 48.011719 59.507812 L 48.011719 59.746094 C 48.035156 60.019531 48.070312 60.09375 48.09375 60.457031 C 48.113281 60.804688 48.191406 60.933594 48.234375 61.1875 C 48.363281 62 47.980469 61.804688 47.695312 62.355469 L 47.613281 62.433594 C 47.613281 63.117188 47.601562 63.191406 48.054688 63.492188 C 48.367188 63.699219 48.664062 63.875 48.773438 64.285156 C 49.015625 65.195312 48.117188 65.882812 47.613281 66.148438 L 47.535156 66.230469 C 46.972656 66.523438 46.507812 66.785156 46.585938 67.722656 C 46.617188 68.105469 46.734375 68.324219 46.75 68.757812 C 46.765625 69.296875 46.679688 69.460938 46.585938 69.863281 L 46.507812 69.941406 C 46.125 70.519531 45.429688 70.671875 45 70.019531 L 44.921875 69.945312 C 44.714844 69.5625 44.652344 69.351562 44.539062 68.902344 C 44.46875 68.621094 44.375 67.9375 44.367188 67.632812 L 44.28125 67.492188 C 44.21875 67.167969 43.921875 66.707031 43.707031 66.492188 C 43.617188 66.402344 43.351562 66.214844 43.253906 66.152344 C 43.074219 66.035156 42.949219 65.933594 42.703125 65.914062 L 42.621094 65.832031 C 42.242188 65.832031 42.28125 65.765625 41.988281 65.757812 C 41.648438 65.746094 41.675781 65.832031 41.273438 65.832031 L 41.199219 65.910156 L 41.015625 65.910156 C 40.851562 66.046875 40.523438 66.035156 40.332031 65.910156 L 39.929688 65.914062 L 39.707031 65.832031 C 39.140625 65.832031 38.9375 65.671875 38.425781 65.671875 L 38.277344 65.597656 C 37.917969 65.566406 37.1875 65.261719 36.921875 65.121094 L 36.84375 65.042969 C 36.578125 64.867188 36.007812 64.132812 35.863281 63.804688 C 35.75 63.535156 35.652344 63.257812 35.644531 62.90625 C 35.640625 62.410156 35.777344 62.28125 35.8125 61.878906 L 35.890625 61.789062 L 35.890625 61.722656 L 35.96875 61.640625 C 36.027344 61.535156 36.066406 61.433594 36.132812 61.328125 C 36.226562 61.175781 36.265625 61.160156 36.359375 61.007812 C 36.359375 60.894531 36.328125 60.921875 36.445312 60.921875 C 36.578125 60.738281 36.621094 60.722656 36.683594 60.457031 C 36.683594 60.335938 36.652344 60.363281 36.761719 60.363281 L 36.761719 60.296875 L 36.839844 60.222656 C 36.90625 59.933594 36.9375 59.902344 37.140625 59.730469 C 37.285156 59.613281 37.460938 59.476562 37.636719 59.429688 L 37.710938 59.351562 L 37.777344 59.351562 L 37.871094 59.273438 C 38.261719 59.238281 38.257812 59.113281 38.710938 59.113281 C 38.710938 58.992188 38.683594 59.03125 38.820312 59.03125 C 39.21875 59.027344 39.421875 58.878906 39.769531 58.796875 L 39.851562 58.71875 C 40.277344 58.613281 41.152344 58.074219 41.355469 57.769531 C 41.300781 57.535156 41.367188 57.652344 41.199219 57.535156 L 41.039062 57.535156 L 40.878906 57.53125 L 41.039062 57.453125 C 41.757812 56.832031 41.933594 56.175781 42.421875 56.082031 C 42.832031 56.003906 42.984375 56.378906 43.457031 56.238281 C 43.742188 56.152344 43.636719 56.070312 43.925781 55.984375 C 44.128906 55.921875 44.382812 55.949219 44.601562 55.949219 L 44.683594 55.871094 L 44.75 55.871094 L 44.84375 55.792969 C 45 55.707031 44.988281 55.722656 45.132812 55.609375 C 45.339844 55.449219 45.179688 55.476562 45.472656 55.398438 L 45.554688 55.320312 C 46.019531 55.207031 45.886719 54.703125 45.605469 54.476562 C 45.308594 54.246094 45.097656 53.984375 44.84375 53.816406 L 44.75 53.738281 L 44.605469 53.734375 C 44.476562 53.734375 44.5 53.769531 44.5 53.65625 L 44.066406 53.65625 L 43.96875 53.734375 C 43.660156 53.808594 43.644531 53.90625 43.324219 53.972656 L 43.179688 54.0625 C 42.355469 54.242188 43.269531 54.941406 42.203125 55.160156 L 42.070312 55.25 C 41.488281 55.230469 41.578125 55.453125 40.960938 55.160156 C 41.191406 54.847656 41.3125 55.085938 41.359375 54.605469 L 41.359375 54.527344 C 41.308594 54.039062 40.886719 54.082031 40.550781 54.191406 C 40.179688 54.3125 40.128906 54.5 39.769531 54.683594 L 39.613281 54.523438 L 39.53125 54.449219 L 39.457031 54.371094 C 39.257812 54.199219 39.132812 54.117188 38.746094 54.125 C 38.398438 54.132812 38.230469 54.210938 38.042969 54.382812 C 37.554688 54.832031 37.914062 55.082031 37.15625 55.476562 L 37.078125 55.550781 L 36.761719 55.871094 L 36.6875 55.957031 L 36.601562 56.03125 C 36.46875 56.28125 36.378906 56.441406 36.128906 56.582031 C 35.738281 56.804688 35.683594 56.695312 35.257812 56.664062 C 35.136719 56.664062 35.164062 56.695312 35.164062 56.582031 C 34.746094 56.476562 34.800781 56.425781 34.226562 56.425781 L 33.988281 56.425781 C 33.015625 56.425781 32.953125 56.761719 32.308594 56.898438 L 32.167969 56.984375 C 31.835938 56.980469 31.574219 57.097656 31.285156 57.125 C 30.964844 57.160156 30.519531 57.136719 30.183594 57.136719 L 30.105469 57.214844 L 29.8125 57.214844 L 29.632812 57.292969 C 28.894531 57.355469 28.535156 57.855469 27.886719 58.003906 L 27.808594 58.082031 C 27.445312 58.171875 27.269531 58.3125 26.835938 58.320312 L 26.699219 58.414062 C 26.34375 58.398438 26.289062 58.488281 25.992188 58.558594 L 25.910156 58.640625 L 25.699219 58.640625 L 25.59375 58.714844 C 25.222656 58.730469 25.058594 58.84375 24.71875 58.875 C 24.660156 58.878906 24.292969 58.882812 24.246094 58.875 L 24.226562 58.871094 C 19.699219 62.730469 15.832031 67.335938 12.8125 72.496094 C 12.921875 72.546875 13.039062 72.65625 13.15625 72.851562 L 13.230469 72.949219 C 13.289062 73.167969 13.34375 73.363281 13.394531 73.582031 L 13.46875 73.660156 C 13.507812 74.027344 13.621094 74.03125 13.710938 74.335938 C 13.828125 74.335938 13.789062 74.3125 13.789062 74.449219 L 14.183594 75.226562 C 14.296875 75.226562 14.265625 75.199219 14.265625 75.320312 C 14.34375 75.660156 14.542969 75.929688 14.582031 76.328125 L 14.65625 76.425781 C 14.679688 77.058594 14.898438 77.476562 14.808594 78.3125 C 14.785156 78.535156 14.699219 78.914062 14.628906 79.160156 C 14.523438 79.53125 14.375 79.628906 14.339844 79.984375 L 14.265625 80.0625 C 14.234375 80.40625 14.128906 80.433594 14.113281 80.773438 L 14.027344 80.988281 L 14.039062 81.167969 L 13.949219 81.300781 C 13.949219 81.695312 13.886719 81.71875 13.867188 82.117188 C 13.851562 82.5 13.789062 82.613281 13.789062 82.910156 L 13.949219 84.511719 L 14.042969 84.648438 L 14.027344 84.828125 L 14.109375 85.042969 C 14.128906 85.382812 14.234375 85.414062 14.265625 85.757812 L 14.34375 85.835938 C 14.371094 86.171875 14.542969 86.359375 14.582031 86.761719 L 14.65625 86.863281 C 14.660156 87.128906 14.699219 87.230469 14.726562 87.433594 C 14.765625 87.699219 14.761719 87.867188 14.773438 87.976562 C 14.824219 88.433594 14.945312 88.605469 15.292969 88.839844 L 15.378906 88.917969 C 15.972656 89.058594 16.820312 89.527344 16.878906 90.171875 C 16.917969 90.238281 16.914062 90.214844 16.953125 90.34375 C 16.957031 90.367188 16.957031 90.453125 16.957031 90.5 C 16.960938 91.171875 17.039062 91.613281 17.25 92.105469 C 17.394531 92.449219 17.433594 92.410156 17.644531 92.65625 C 17.816406 92.855469 17.949219 93.042969 18.066406 93.265625 L 18.144531 93.34375 C 18.328125 95.546875 18.21875 94.511719 19.039062 95.296875 C 19.289062 95.539062 19.332031 95.570312 19.492188 95.875 L 19.570312 95.953125 C 19.632812 96.636719 19.890625 97.183594 20.269531 97.710938 L 20.441406 97.929688 L 20.527344 98.007812 L 20.917969 98.40625 L 20.996094 98.484375 C 21.113281 98.539062 21.0625 98.566406 21.210938 98.523438 C 21.546875 98.417969 21.308594 98.550781 21.394531 98.324219 L 21.394531 98.167969 C 21.25 97.957031 21.058594 97.746094 20.917969 97.53125 L 20.84375 97.457031 L 20.839844 97.378906 L 20.761719 97.296875 C 20.679688 97.132812 20.621094 96.984375 20.601562 96.753906 L 20.523438 96.664062 L 20.523438 96.261719 L 20.441406 96.03125 C 20.417969 95.746094 20.34375 95.65625 20.285156 95.398438 L 20.207031 95.320312 L 20.207031 95.261719 L 20.128906 95.164062 C 20.015625 94.707031 19.515625 93.96875 19.175781 93.742188 L 19.097656 93.660156 L 19.015625 93.585938 C 18.902344 93.585938 18.929688 93.613281 18.929688 93.503906 C 18.800781 93.285156 18.574219 92.980469 18.542969 92.660156 C 18.421875 92.660156 18.460938 92.6875 18.460938 92.554688 C 18.457031 92.261719 18.363281 91.96875 18.335938 91.65625 C 18.328125 91.515625 18.328125 91.417969 18.371094 91.28125 C 18.457031 90.988281 18.414062 91.050781 18.609375 90.972656 C 18.621094 90.957031 18.804688 90.6875 18.804688 90.972656 C 19.074219 91.058594 19.167969 91.324219 19.175781 91.667969 L 19.253906 91.761719 L 19.253906 91.914062 L 19.332031 92 L 19.492188 92.53125 C 19.605469 92.53125 19.570312 92.503906 19.570312 92.632812 C 19.640625 92.929688 19.972656 93.382812 20.125 93.648438 C 20.238281 93.648438 20.207031 93.625 20.207031 93.742188 C 20.402344 94.039062 20.441406 94.089844 20.703125 94.351562 C 20.835938 94.488281 21.089844 94.800781 21.1875 94.976562 C 21.636719 95.789062 20.957031 95.632812 22.027344 96.347656 L 22.105469 96.429688 L 22.183594 96.507812 L 22.660156 96.980469 L 22.742188 97.058594 L 22.828125 97.136719 C 22.996094 97.414062 23.214844 97.652344 23.402344 97.984375 C 23.558594 98.265625 23.785156 98.667969 23.847656 98.984375 L 23.945312 99.113281 C 23.941406 99.457031 24.078125 99.613281 24.085938 99.980469 L 24.167969 100.066406 C 24.167969 100.714844 24.460938 101.230469 24.78125 101.585938 C 25.070312 101.914062 25.585938 102.34375 26.066406 102.425781 L 26.210938 102.515625 C 26.378906 102.585938 26.679688 102.710938 26.859375 102.753906 L 26.949219 102.832031 C 27.179688 102.886719 27.175781 102.933594 27.414062 102.996094 L 27.507812 103.066406 C 27.792969 103.140625 27.832031 103.238281 28.128906 103.304688 L 28.207031 103.382812 L 29.234375 103.859375 L 29.316406 103.9375 C 29.496094 104.035156 29.640625 104.113281 29.804688 104.242188 C 30.015625 104.414062 29.992188 104.445312 30.261719 104.574219 C 30.820312 104.839844 31.050781 104.699219 31.617188 104.570312 L 31.769531 104.492188 L 32.5625 104.492188 C 32.699219 104.492188 32.675781 104.453125 32.675781 104.570312 L 33.039062 104.722656 L 33.117188 104.808594 L 33.199219 104.886719 L 33.285156 104.964844 C 33.417969 105.246094 33.503906 105.425781 33.671875 105.679688 L 33.75 105.757812 L 33.839844 105.828125 L 33.914062 105.914062 L 33.984375 105.992188 C 34.21875 106.144531 34.179688 106.183594 34.472656 106.300781 C 34.65625 106.375 34.878906 106.449219 35.097656 106.472656 L 35.285156 106.546875 L 35.414062 106.527344 L 35.550781 106.625 C 35.964844 106.636719 36.117188 106.777344 36.523438 106.785156 L 36.601562 106.863281 C 37.121094 106.90625 37.507812 107.234375 37.949219 107.339844 L 38.027344 107.417969 C 38.234375 107.554688 38.253906 107.550781 38.417969 107.742188 C 38.5625 107.910156 38.597656 107.941406 38.664062 108.183594 C 38.78125 108.183594 38.742188 108.15625 38.742188 108.285156 C 38.804688 108.550781 38.910156 108.695312 38.980469 108.992188 L 39.054688 109.078125 C 39.089844 109.425781 39.175781 109.582031 39.347656 109.816406 C 39.519531 110.042969 39.636719 110.183594 39.929688 110.265625 L 40.015625 110.339844 L 40.089844 110.34375 L 40.167969 110.421875 C 40.332031 110.503906 40.355469 110.53125 40.5625 110.582031 L 40.640625 110.660156 C 41.074219 110.757812 41.320312 111.023438 41.753906 111.136719 L 41.828125 111.210938 C 42.015625 111.308594 42.152344 111.394531 42.386719 111.449219 L 42.464844 111.527344 C 42.726562 111.589844 43.136719 111.8125 43.394531 111.945312 C 43.734375 112.128906 43.835938 112.457031 44.207031 112.554688 L 44.367188 112.554688 C 44.65625 112.476562 44.53125 112.472656 44.761719 112.320312 C 44.761719 111.675781 44.703125 111.28125 45.328125 111.214844 C 45.71875 111.167969 46.324219 111.378906 46.425781 111.761719 L 46.507812 111.84375 C 46.5 112.113281 46.472656 112.234375 46.332031 112.382812 C 46.164062 112.566406 46.101562 112.519531 45.851562 112.613281 C 45.335938 112.804688 45.457031 113.09375 44.871094 113.109375 L 44.683594 113.1875 C 44.351562 113.277344 44.214844 113.484375 44.210938 113.902344 L 44.128906 113.980469 C 44.074219 114.210938 43.988281 114.347656 43.890625 114.53125 L 43.8125 114.609375 C 43.609375 114.914062 43.394531 115.03125 43.179688 115.402344 C 43.023438 115.679688 42.769531 116.101562 42.804688 116.507812 L 42.703125 116.640625 L 42.703125 117.679688 L 42.785156 117.851562 L 42.804688 119.117188 L 42.703125 119.246094 L 42.703125 119.433594 C 42.703125 119.554688 42.738281 119.527344 42.625 119.527344 C 42.578125 119.714844 42.546875 119.757812 42.464844 119.90625 L 42.386719 119.988281 C 42.15625 120.332031 41.851562 120.480469 41.609375 120.871094 C 41.574219 120.933594 41.488281 121.089844 41.460938 121.117188 C 41.195312 121.40625 40.851562 121.140625 40.726562 121.648438 L 40.644531 121.730469 L 40.644531 122.03125 C 40.703125 122.117188 40.683594 122.035156 40.695312 122.183594 C 40.703125 122.296875 40.78125 122.277344 40.644531 122.277344 C 40.625 123.109375 39.929688 123.15625 40.113281 123.828125 C 40.1875 124.09375 40.292969 124.152344 40.5625 124.175781 L 40.644531 124.253906 L 40.722656 124.257812 L 40.804688 124.328125 L 40.886719 124.414062 C 40.859375 124.949219 40.53125 125.011719 40.167969 125.203125 L 40.089844 125.285156 C 39.980469 125.445312 39.824219 125.613281 39.96875 125.949219 C 40.117188 126.296875 40.238281 125.984375 40.246094 126.550781 L 40.167969 126.625 L 40.167969 126.941406 L 40.246094 127.023438 L 40.402344 127.179688 C 40.617188 127.230469 40.632812 127.25 40.800781 127.339844 L 40.886719 127.417969 C 41.289062 127.703125 41.691406 127.960938 42.003906 128.351562 C 42.246094 128.65625 42.605469 129.296875 42.703125 129.710938 L 42.78125 129.789062 C 42.847656 130.0625 43.125 130.578125 43.261719 130.816406 C 43.355469 130.980469 43.472656 131.132812 43.570312 131.296875 C 43.699219 131.511719 43.769531 131.582031 43.890625 131.769531 L 43.96875 131.847656 C 44.578125 132.734375 45.382812 133.527344 46.269531 134.140625 L 46.347656 134.214844 C 46.691406 134.449219 46.8125 134.5625 47.21875 134.765625 L 47.296875 134.847656 L 47.929688 135.167969 C 48.070312 135.167969 48.046875 135.125 48.046875 135.246094 C 48.304688 135.324219 48.359375 135.414062 48.644531 135.484375 L 48.730469 135.5625 C 49.308594 135.703125 49.941406 136.558594 49.992188 137.246094 C 50.160156 137.445312 50.070312 138.457031 50.070312 138.804688 L 50.019531 140.355469 C 50.019531 140.34375 50 140.394531 49.992188 140.414062 L 49.992188 140.777344 L 49.914062 140.863281 C 49.902344 141.265625 49.789062 141.28125 49.75 141.648438 L 49.675781 141.722656 C 49.617188 141.972656 49.574219 141.953125 49.515625 142.203125 L 49.4375 142.28125 C 49.332031 142.492188 49.207031 142.839844 49.195312 143.152344 L 49.195312 144.019531 C 49.203125 144.414062 49.273438 144.417969 49.285156 144.808594 C 49.296875 145.238281 49.199219 145.34375 49.207031 145.679688 L 49.121094 145.824219 C 49.019531 146.03125 48.941406 146.101562 48.878906 146.3125 L 48.804688 146.386719 C 48.734375 146.683594 48.675781 146.613281 48.640625 146.945312 L 48.566406 147.121094 L 48.5625 147.339844 L 48.488281 147.492188 L 48.488281 148.371094 L 48.5625 148.527344 L 48.566406 148.734375 L 48.644531 148.921875 C 48.703125 149.171875 48.777344 149.269531 48.804688 149.542969 L 48.882812 149.710938 C 48.882812 150.214844 48.96875 150.171875 48.898438 150.59375 C 48.859375 150.839844 48.808594 150.960938 48.757812 151.09375 C 50.40625 151.40625 52.082031 151.640625 53.78125 151.792969 C 53.738281 151.515625 53.691406 151.660156 53.792969 151.214844 C 53.792969 151.074219 53.753906 151.097656 53.875 151.097656 C 54.289062 150.671875 54.714844 150.046875 55.519531 150.027344 L 55.695312 149.953125 C 56.078125 149.945312 56.121094 149.917969 56.367188 149.75 C 56.664062 149.542969 56.644531 149.535156 56.804688 149.238281 L 56.882812 149.160156 L 56.957031 149.003906 L 57.042969 148.921875 L 57.199219 148.765625 L 57.570312 148.605469 C 57.570312 148.488281 57.542969 148.527344 57.675781 148.527344 L 57.828125 148.527344 C 57.886719 148.492188 57.867188 148.484375 57.996094 148.457031 L 58.503906 148.5 C 58.511719 148.484375 58.539062 148.515625 58.554688 148.527344 L 58.707031 148.527344 C 58.835938 148.527344 58.8125 148.488281 58.8125 148.605469 L 59.496094 148.605469 L 59.578125 148.527344 C 60.144531 148.480469 60.386719 148.019531 60.652344 147.625 C 60.914062 147.238281 61.375 146.90625 61.867188 146.789062 L 61.953125 146.710938 C 62.195312 146.652344 62.1875 146.609375 62.421875 146.550781 L 62.507812 146.46875 C 62.804688 146.390625 62.609375 146.390625 62.90625 146.3125 L 62.984375 146.238281 C 63.191406 146.121094 63.332031 146.027344 63.535156 145.917969 L 63.617188 145.832031 C 64.417969 145.339844 65.316406 144.414062 65.835938 143.625 L 65.910156 143.539062 L 65.992188 143.460938 C 66.113281 143.386719 66.1875 143.328125 66.324219 143.246094 C 66.496094 143.148438 66.546875 143.148438 66.707031 143.070312 L 66.785156 142.992188 C 67.082031 142.914062 67.109375 142.824219 67.1875 142.519531 L 67.261719 142.40625 L 67.261719 141.648438 L 67.339844 141.5625 C 67.363281 141.304688 67.40625 141.273438 67.496094 141.09375 L 67.578125 141.015625 L 67.976562 140.617188 L 68.128906 140.539062 L 68.210938 140.460938 L 68.277344 140.464844 L 68.371094 140.386719 C 68.636719 140.320312 68.753906 140.230469 69.082031 140.226562 L 69.164062 140.148438 L 69.332031 140.144531 L 69.480469 140.066406 C 69.816406 140.039062 69.855469 139.9375 70.191406 139.910156 L 70.269531 139.832031 C 70.597656 139.757812 70.769531 139.605469 71.199219 139.59375 C 71.316406 139.53125 71.09375 139.582031 71.382812 139.523438 C 71.433594 139.511719 71.5625 139.515625 71.617188 139.515625 C 72.382812 139.507812 72.5 139.4375 72.960938 139.117188 L 73.046875 139.039062 L 73.125 138.964844 L 73.195312 138.878906 L 73.28125 138.800781 C 73.429688 138.585938 73.570312 138.429688 73.597656 138.089844 C 73.597656 137.964844 73.5625 137.992188 73.679688 137.992188 C 73.722656 137.820312 73.765625 137.683594 73.835938 137.539062 C 73.835938 137.410156 73.800781 137.433594 73.914062 137.433594 C 74.070312 137.199219 74.175781 137.109375 74.3125 136.90625 L 74.390625 136.820312 C 74.5 136.664062 74.601562 136.511719 74.707031 136.351562 C 74.707031 136.226562 74.675781 136.253906 74.785156 136.253906 C 74.933594 136.019531 75.273438 135.507812 75.339844 135.246094 C 75.339844 135.105469 75.300781 135.132812 75.421875 135.132812 C 75.480469 134.925781 75.523438 134.921875 75.578125 134.691406 C 75.578125 134.550781 75.539062 134.574219 75.65625 134.574219 L 75.660156 134.453125 L 75.738281 134.375 C 75.796875 134.117188 75.871094 134.027344 75.894531 133.742188 L 75.976562 133.585938 C 76.003906 133.214844 76.125 132.984375 76.140625 132.554688 C 76.140625 132.488281 76.136719 132.394531 76.144531 132.324219 C 76.167969 132.175781 76.171875 132.238281 76.210938 132.164062 L 76.210938 132.003906 L 76.292969 131.84375 C 76.335938 131.652344 76.375 131.527344 76.449219 131.371094 L 76.527344 131.285156 L 76.609375 131.132812 L 76.683594 131.050781 L 76.773438 130.976562 L 76.847656 130.902344 C 77.226562 130.632812 77.367188 130.359375 77.828125 130.058594 C 78.40625 129.683594 78.429688 129.671875 78.75 129.078125 L 78.828125 128.988281 C 78.910156 128.652344 79.058594 128.445312 79.0625 128.050781 C 79.0625 127.667969 79.0625 127.894531 79.144531 127.808594 L 79.144531 126.503906 C 79.023438 126.503906 79.0625 126.53125 79.0625 126.390625 L 78.988281 126.238281 L 78.90625 126.152344 L 78.828125 126.074219 L 78.742188 125.996094 C 78.640625 125.933594 78.660156 125.945312 78.511719 125.914062 C 78.316406 125.914062 78.070312 125.960938 77.980469 125.835938 C 77.316406 125.824219 77.140625 125.605469 76.746094 125.304688 C 76.46875 125.097656 75.910156 124.753906 75.5 124.742188 L 75.359375 124.648438 C 74.957031 124.644531 74.628906 124.507812 74.234375 124.488281 L 74.066406 124.414062 L 73.914062 124.414062 C 73.785156 124.414062 73.8125 124.449219 73.8125 124.335938 C 73.421875 124.296875 72.519531 123.929688 72.199219 123.753906 C 71.761719 123.519531 71.230469 123.105469 70.746094 122.988281 C 70.613281 122.988281 70.636719 123.027344 70.636719 122.914062 L 70.113281 122.753906 C 69.988281 122.753906 70.011719 122.789062 70.011719 122.675781 L 69.875 122.675781 C 69.742188 122.675781 69.765625 122.714844 69.765625 122.59375 C 69.4375 122.5625 69.300781 122.441406 68.925781 122.445312 L 68.703125 122.359375 C 68.308594 122.351562 68.023438 122.273438 67.496094 122.28125 C 66.890625 122.289062 66.640625 122.402344 66.628906 121.804688 L 66.707031 121.722656 C 67.101562 120.921875 66.226562 120.972656 66.152344 120.164062 L 66.078125 120.066406 L 66.074219 119.984375 L 65.992188 119.828125 C 65.816406 119.046875 65.042969 118.359375 64.410156 118.007812 L 64.328125 117.929688 C 64.144531 117.832031 64.125 117.796875 63.855469 117.773438 L 63.777344 117.691406 C 63.1875 117.644531 63 117.449219 62.234375 117.578125 C 61.199219 117.757812 60.605469 117.578125 59.792969 116.769531 C 59.316406 116.292969 59.378906 116.035156 59.023438 115.796875 L 58.9375 115.71875 C 58.730469 115.601562 58.601562 115.507812 58.308594 115.476562 C 58.238281 115.476562 58.144531 115.484375 58.070312 115.46875 C 57.734375 115.421875 58.03125 115.476562 57.886719 115.402344 C 57.613281 115.394531 57.464844 115.332031 57.28125 115.25 L 57.199219 115.167969 L 57.121094 115.085938 C 56.992188 114.820312 56.953125 114.492188 56.695312 114.324219 C 56.578125 114.246094 55.945312 114.070312 55.773438 114.054688 L 55.695312 113.976562 C 55.53125 113.871094 55.449219 113.796875 55.21875 113.738281 L 55.144531 113.660156 C 54.785156 113.660156 54.390625 113.632812 54.082031 113.710938 C 53.570312 113.847656 53.6875 113.863281 53.160156 113.742188 L 53.078125 113.660156 C 52.917969 113.554688 52.867188 113.519531 52.683594 113.425781 C 52.5625 113.425781 52.585938 113.460938 52.585938 113.347656 C 52.429688 113.304688 52.042969 113.207031 51.890625 113.207031 C 51.671875 113.207031 51.453125 113.324219 51.179688 113.347656 C 51.097656 113.472656 51.175781 113.472656 51.097656 113.347656 C 50.734375 113.316406 50.734375 113.144531 50.46875 112.949219 C 50.261719 112.792969 50.019531 112.65625 49.671875 112.632812 C 48.914062 112.578125 48.574219 112.96875 48.324219 113.425781 L 48.25 113.519531 L 48.25 113.820312 L 48.167969 113.902344 L 48.167969 114.050781 L 48.25 114.136719 L 48.25 114.53125 C 48.066406 114.527344 47.882812 114.5625 47.648438 114.257812 C 47.542969 114.121094 47.582031 114.238281 47.535156 114.03125 L 47.441406 113.902344 C 47.472656 113.4375 47.378906 113.316406 47.375 112.871094 C 47.371094 112.410156 47.308594 112.191406 47.296875 111.84375 L 47.222656 111.765625 C 47.167969 111.550781 47.089844 111.386719 46.96875 111.226562 C 46.800781 111.003906 46.941406 111.164062 46.777344 111.023438 C 46.664062 110.921875 46.613281 110.886719 46.507812 110.816406 L 46.425781 110.738281 L 46.347656 110.738281 C 46.226562 110.738281 46.25 110.769531 46.25 110.660156 C 46.0625 110.609375 46.050781 110.585938 45.792969 110.578125 L 45 110.578125 C 44.667969 110.605469 44.742188 110.667969 44.445312 110.738281 L 44.367188 110.8125 C 43.773438 110.960938 43.566406 111.117188 42.941406 110.816406 L 42.863281 110.738281 C 42.382812 110.417969 42.390625 110.425781 42.070312 109.945312 L 41.992188 109.867188 C 41.875 109.648438 41.816406 109.511719 41.753906 109.238281 L 41.671875 109.15625 C 41.671875 108.574219 41.539062 108.355469 41.648438 107.707031 C 41.753906 107.089844 41.832031 106.984375 41.832031 106.246094 C 41.71875 106.246094 41.75 106.273438 41.75 106.152344 C 41.726562 105.835938 41.621094 105.703125 41.460938 105.492188 C 41.257812 105.222656 41.222656 105.21875 40.960938 105.046875 L 40.878906 104.964844 C 40.550781 104.886719 40.664062 104.816406 40.246094 104.808594 L 38.585938 104.808594 C 38.464844 104.804688 38.480469 104.808594 38.371094 104.785156 C 38.359375 104.78125 38.328125 104.78125 38.320312 104.761719 C 38.3125 104.738281 38.292969 104.738281 38.277344 104.730469 L 38.109375 104.730469 L 38.027344 104.648438 C 37.371094 104.496094 37.332031 103.910156 37.398438 103.074219 C 37.421875 102.804688 37.496094 102.394531 37.566406 102.136719 C 37.648438 101.835938 37.800781 101.539062 37.875 101.25 L 37.949219 101.171875 C 38.121094 100.847656 38.210938 100.742188 38.4375 100.472656 C 38.699219 100.160156 38.769531 100.128906 38.664062 99.667969 C 37.894531 99.488281 37.109375 99.605469 36.421875 99.746094 L 36.285156 99.847656 C 35.890625 99.902344 35.660156 100.21875 35.578125 100.617188 C 35.578125 100.792969 35.621094 100.902344 35.496094 100.980469 C 35.464844 101.371094 35.355469 101.65625 35.183594 101.886719 C 35.007812 102.121094 34.734375 102.328125 34.355469 102.355469 C 34.214844 102.480469 34.222656 102.4375 33.988281 102.4375 L 33.195312 102.4375 C 33.082031 102.4375 33.082031 102.4375 32.972656 102.414062 C 32.960938 102.410156 32.925781 102.414062 32.914062 102.390625 C 32.90625 102.367188 32.882812 102.367188 32.863281 102.355469 C 31.925781 102.355469 31.113281 101.730469 30.742188 101.171875 L 30.664062 101.09375 C 30.480469 100.824219 30.355469 100.695312 30.1875 100.382812 L 30.105469 100.300781 L 29.792969 99.613281 C 29.675781 99.613281 29.710938 99.636719 29.710938 99.511719 C 29.652344 99.261719 29.574219 98.96875 29.554688 98.6875 L 29.460938 98.484375 L 29.472656 97.296875 L 29.554688 97.128906 C 29.628906 96.265625 30.328125 96.175781 30.34375 95.242188 C 30.34375 95.113281 30.308594 95.140625 30.425781 95.140625 L 30.425781 95.003906 L 30.503906 94.917969 L 30.582031 94.609375 L 30.664062 94.519531 L 30.667969 94.449219 L 30.742188 94.375 C 31.0625 93.753906 31.550781 93.277344 32.167969 92.949219 L 32.246094 92.871094 C 32.496094 92.8125 32.472656 92.769531 32.726562 92.714844 L 32.800781 92.636719 L 32.871094 92.632812 L 33.039062 92.5625 C 33.492188 92.503906 33.660156 92.390625 34.222656 92.390625 C 34.664062 92.390625 35.101562 92.394531 35.539062 92.394531 L 35.730469 92.316406 C 36.089844 92.308594 36.152344 92.226562 36.449219 92.160156 L 36.523438 92.082031 C 36.78125 92.015625 37.023438 91.882812 37.222656 91.761719 L 37.316406 91.683594 C 38.160156 91.230469 38.707031 91.144531 39.613281 91.601562 L 39.699219 91.683594 C 40.207031 92.042969 40.261719 91.894531 40.882812 91.84375 L 40.960938 91.765625 L 41.515625 91.761719 L 41.59375 91.84375 C 41.894531 92 42.054688 92.171875 42.148438 92.535156 L 42.226562 92.632812 C 42.328125 93.039062 42.386719 93.128906 42.386719 93.652344 L 42.460938 93.742188 L 42.464844 93.902344 L 42.539062 93.976562 C 42.574219 94.285156 42.816406 94.773438 42.941406 95.003906 L 43.019531 95.082031 C 43.285156 95.578125 43.515625 95.808594 43.96875 96.109375 L 44.0625 96.191406 C 44.40625 96.183594 44.484375 96.085938 44.683594 95.953125 L 44.683594 94.523438 L 44.601562 94.371094 L 44.605469 94.085938 L 44.523438 93.898438 C 44.519531 93.578125 44.429688 93.375 44.367188 93.101562 L 44.292969 93.027344 C 44.265625 92.773438 44.136719 92.421875 44.050781 92.226562 L 43.96875 92.078125 C 43.941406 91.671875 43.8125 91.695312 43.8125 91.164062 L 43.738281 90.972656 L 43.738281 90.734375 C 43.738281 90.417969 43.753906 90.558594 43.8125 90.488281 C 43.820312 90.207031 43.878906 90.054688 43.96875 89.867188 L 44.050781 89.785156 C 44.222656 89.535156 44.441406 89.28125 44.703125 89.09375 C 44.925781 88.933594 45.316406 88.726562 45.554688 88.601562 L 45.636719 88.523438 C 46.332031 88.046875 46.933594 87.503906 47.371094 86.785156 C 47.371094 86.671875 47.339844 86.699219 47.457031 86.699219 C 47.632812 86.378906 47.921875 85.984375 48.011719 85.597656 L 48.089844 85.511719 C 48.164062 85.203125 48.3125 84.96875 48.3125 84.648438 Z M 40.878906 57.53125 C 40.777344 57.621094 40.792969 57.640625 40.613281 57.675781 C 40.234375 57.753906 40.363281 57.679688 40.390625 57.609375 L 40.484375 57.53125 L 40.878906 57.53125 " clip-rule="nonzero"/></clipPath><radialGradient gradientTransform="matrix(1.001003, 0, 0, 0.998997, 41.715541, 81.393368)" gradientUnits="userSpaceOnUse" r="70.528169" cx="0" id="6693ae2d4a" cy="0" fx="0" fy="0"><stop stop-opacity="1" stop-color="rgb(99.804688%, 99.804688%, 99.804688%)" offset="0"/><stop stop-opacity="1" stop-color="rgb(99.539185%, 99.539185%, 99.539185%)" offset="0.015625"/><stop stop-opacity="1" stop-color="rgb(99.334717%, 99.334717%, 99.334717%)" offset="0.0195312"/><stop stop-opacity="1" stop-color="rgb(99.133301%, 99.133301%, 99.133301%)" offset="0.03125"/><stop stop-opacity="1" stop-color="rgb(98.933411%, 98.933411%, 98.933411%)" offset="0.0429688"/><stop stop-opacity="1" stop-color="rgb(98.736572%, 98.736572%, 98.736572%)" offset="0.0546875"/><stop stop-opacity="1" stop-color="rgb(98.603821%, 98.603821%, 98.603821%)" offset="0.0664062"/><stop stop-opacity="1" stop-color="rgb(98.461914%, 98.461914%, 98.461914%)" offset="0.0703125"/><stop stop-opacity="1" stop-color="rgb(98.196411%, 98.196411%, 98.196411%)" offset="0.0742188"/><stop stop-opacity="1" stop-color="rgb(97.999573%, 97.999573%, 97.999573%)" offset="0.0859375"/><stop stop-opacity="1" stop-color="rgb(97.93396%, 97.93396%, 97.93396%)" offset="0.0976562"/><stop stop-opacity="1" stop-color="rgb(97.73407%, 97.73407%, 97.73407%)" offset="0.101562"/><stop stop-opacity="1" stop-color="rgb(97.549438%, 97.549438%, 97.549438%)" offset="0.113281"/><stop stop-opacity="1" stop-color="rgb(97.337341%, 97.337341%, 97.337341%)" offset="0.125"/><stop stop-opacity="1" stop-color="rgb(97.036743%, 97.036743%, 97.036743%)" offset="0.136719"/><stop stop-opacity="1" stop-color="rgb(96.829224%, 96.829224%, 96.829224%)" offset="0.148438"/><stop stop-opacity="1" stop-color="rgb(96.629333%, 96.629333%, 96.629333%)" offset="0.160156"/><stop stop-opacity="1" stop-color="rgb(96.434021%, 96.434021%, 96.434021%)" offset="0.171875"/><stop stop-opacity="1" stop-color="rgb(96.296692%, 96.296692%, 96.296692%)" offset="0.183594"/><stop stop-opacity="1" stop-color="rgb(96.156311%, 96.156311%, 96.156311%)" offset="0.1875"/><stop stop-opacity="1" stop-color="rgb(95.892334%, 95.892334%, 95.892334%)" offset="0.191406"/><stop stop-opacity="1" stop-color="rgb(95.506287%, 95.506287%, 95.506287%)" offset="0.214844"/><stop stop-opacity="1" stop-color="rgb(95.301819%, 95.301819%, 95.301819%)" offset="0.226562"/><stop stop-opacity="1" stop-color="rgb(95.094299%, 95.094299%, 95.094299%)" offset="0.238281"/><stop stop-opacity="1" stop-color="rgb(94.703674%, 94.703674%, 94.703674%)" offset="0.25"/><stop stop-opacity="1" stop-color="rgb(94.424438%, 94.424438%, 94.424438%)" offset="0.261719"/><stop stop-opacity="1" stop-color="rgb(94.258118%, 94.258118%, 94.258118%)" offset="0.269531"/><stop stop-opacity="1" stop-color="rgb(94.094849%, 94.094849%, 94.094849%)" offset="0.277344"/><stop stop-opacity="1" stop-color="rgb(93.937683%, 93.937683%, 93.937683%)" offset="0.285156"/><stop stop-opacity="1" stop-color="rgb(93.782043%, 93.782043%, 93.782043%)" offset="0.292969"/><stop stop-opacity="1" stop-color="rgb(93.621826%, 93.621826%, 93.621826%)" offset="0.300781"/><stop stop-opacity="1" stop-color="rgb(93.457031%, 93.457031%, 93.457031%)" offset="0.308594"/><stop stop-opacity="1" stop-color="rgb(93.293762%, 93.293762%, 93.293762%)" offset="0.316406"/><stop stop-opacity="1" stop-color="rgb(93.136597%, 93.136597%, 93.136597%)" offset="0.324219"/><stop stop-opacity="1" stop-color="rgb(92.979431%, 92.979431%, 92.979431%)" offset="0.332031"/><stop stop-opacity="1" stop-color="rgb(92.819214%, 92.819214%, 92.819214%)" offset="0.339844"/><stop stop-opacity="1" stop-color="rgb(92.556763%, 92.556763%, 92.556763%)" offset="0.347656"/><stop stop-opacity="1" stop-color="rgb(92.190552%, 92.190552%, 92.190552%)" offset="0.367188"/><stop stop-opacity="1" stop-color="rgb(91.902161%, 91.902161%, 91.902161%)" offset="0.386719"/><stop stop-opacity="1" stop-color="rgb(91.699219%, 91.699219%, 91.699219%)" offset="0.402344"/><stop stop-opacity="1" stop-color="rgb(91.50238%, 91.50238%, 91.50238%)" offset="0.417969"/><stop stop-opacity="1" stop-color="rgb(91.300964%, 91.300964%, 91.300964%)" offset="0.425781"/><stop stop-opacity="1" stop-color="rgb(91.093445%, 91.093445%, 91.093445%)" offset="0.433594"/><stop stop-opacity="1" stop-color="rgb(90.794373%, 90.794373%, 90.794373%)" offset="0.441406"/><stop stop-opacity="1" stop-color="rgb(90.403748%, 90.403748%, 90.403748%)" offset="0.457031"/><stop stop-opacity="1" stop-color="rgb(90.19928%, 90.19928%, 90.19928%)" offset="0.472656"/><stop stop-opacity="1" stop-color="rgb(89.996338%, 89.996338%, 89.996338%)" offset="0.488281"/><stop stop-opacity="1" stop-color="rgb(89.605713%, 89.605713%, 89.605713%)" offset="0.503906"/><stop stop-opacity="1" stop-color="rgb(89.399719%, 89.399719%, 89.399719%)" offset="0.515625"/><stop stop-opacity="1" stop-color="rgb(89.193726%, 89.193726%, 89.193726%)" offset="0.527344"/><stop stop-opacity="1" stop-color="rgb(88.999939%, 88.999939%, 88.999939%)" offset="0.539062"/><stop stop-opacity="1" stop-color="rgb(88.807678%, 88.807678%, 88.807678%)" offset="0.550781"/><stop stop-opacity="1" stop-color="rgb(88.545227%, 88.545227%, 88.545227%)" offset="0.5625"/><stop stop-opacity="1" stop-color="rgb(88.336182%, 88.336182%, 88.336182%)" offset="0.566406"/><stop stop-opacity="1" stop-color="rgb(88.134766%, 88.134766%, 88.134766%)" offset="0.578125"/><stop stop-opacity="1" stop-color="rgb(87.88147%, 87.88147%, 87.88147%)" offset="0.589844"/><stop stop-opacity="1" stop-color="rgb(87.528992%, 87.528992%, 87.528992%)" offset="0.613281"/><stop stop-opacity="1" stop-color="rgb(87.193298%, 87.193298%, 87.193298%)" offset="0.625"/><stop stop-opacity="1" stop-color="rgb(86.938477%, 86.938477%, 86.938477%)" offset="0.636719"/><stop stop-opacity="1" stop-color="rgb(86.773682%, 86.773682%, 86.773682%)" offset="0.644531"/><stop stop-opacity="1" stop-color="rgb(86.497498%, 86.497498%, 86.497498%)" offset="0.652344"/><stop stop-opacity="1" stop-color="rgb(86.219788%, 86.219788%, 86.219788%)" offset="0.671875"/><stop stop-opacity="1" stop-color="rgb(86.018372%, 86.018372%, 86.018372%)" offset="0.679688"/><stop stop-opacity="1" stop-color="rgb(85.800171%, 85.800171%, 85.800171%)" offset="0.699219"/><stop stop-opacity="1" stop-color="rgb(85.604858%, 85.604858%, 85.604858%)" offset="0.714844"/><stop stop-opacity="1" stop-color="rgb(85.403442%, 85.403442%, 85.403442%)" offset="0.722656"/><stop stop-opacity="1" stop-color="rgb(85.195923%, 85.195923%, 85.195923%)" offset="0.730469"/><stop stop-opacity="1" stop-color="rgb(84.896851%, 84.896851%, 84.896851%)" offset="0.738281"/><stop stop-opacity="1" stop-color="rgb(84.700012%, 84.700012%, 84.700012%)" offset="0.753906"/><stop stop-opacity="1" stop-color="rgb(84.634399%, 84.634399%, 84.634399%)" offset="0.765625"/><stop stop-opacity="1" stop-color="rgb(84.498596%, 84.498596%, 84.498596%)" offset="0.769531"/><stop stop-opacity="1" stop-color="rgb(84.358215%, 84.358215%, 84.358215%)" offset="0.773438"/><stop stop-opacity="1" stop-color="rgb(84.092712%, 84.092712%, 84.092712%)" offset="0.777344"/><stop stop-opacity="1" stop-color="rgb(83.706665%, 83.706665%, 83.706665%)" offset="0.789062"/><stop stop-opacity="1" stop-color="rgb(83.44574%, 83.44574%, 83.44574%)" offset="0.8125"/><stop stop-opacity="1" stop-color="rgb(83.235168%, 83.235168%, 83.235168%)" offset="0.816406"/><stop stop-opacity="1" stop-color="rgb(82.899475%, 82.899475%, 82.899475%)" offset="0.824219"/><stop stop-opacity="1" stop-color="rgb(82.698059%, 82.698059%, 82.698059%)" offset="0.84375"/><stop stop-opacity="1" stop-color="rgb(82.546997%, 82.546997%, 82.546997%)" offset="0.863281"/><stop stop-opacity="1" stop-color="rgb(82.2052%, 82.2052%, 82.2052%)" offset="0.878906"/><stop stop-opacity="1" stop-color="rgb(81.999207%, 81.999207%, 81.999207%)" offset="0.890625"/><stop stop-opacity="1" stop-color="rgb(81.793213%, 81.793213%, 81.793213%)" offset="0.902344"/><stop stop-opacity="1" stop-color="rgb(81.402588%, 81.402588%, 81.402588%)" offset="0.914062"/><stop stop-opacity="1" stop-color="rgb(81.103516%, 81.103516%, 81.103516%)" offset="0.933594"/><stop stop-opacity="1" stop-color="rgb(80.830383%, 80.830383%, 80.830383%)" offset="0.941406"/><stop stop-opacity="1" stop-color="rgb(80.488586%, 80.488586%, 80.488586%)" offset="0.953125"/><stop stop-opacity="1" stop-color="rgb(80.157471%, 80.157471%, 80.157471%)" offset="0.964844"/><stop stop-opacity="1" stop-color="rgb(79.998779%, 79.998779%, 79.998779%)" offset="1"/></radialGradient></defs><path fill="#39b54a" d="M 97.980469 33.40625 C 99.597656 9.925781 77.246094 0.0078125 77.246094 0.0078125 C 65.214844 24.226562 81.78125 40.960938 89.675781 47.167969 C 89.945312 47.433594 90.25 47.675781 90.589844 47.886719 C 135.941406 76.011719 164.972656 34.402344 164.972656 34.402344 C 137.769531 13.542969 112.527344 23.589844 97.980469 33.40625 " fill-opacity="1" fill-rule="nonzero"/><path fill="#231f20" d="M 114.382812 10.589844 L 114.382812 10.585938 L 114.386719 10.589844 Z M 114.382812 10.589844 " fill-opacity="1" fill-rule="nonzero"/><g clip-path="url(#80a9a2168a)"><path fill="#009245" d="M 164.351562 33.929688 C 137.835938 14.046875 113.257812 23.351562 98.722656 32.929688 C 98.414062 33.132812 98.015625 32.898438 98.027344 32.535156 C 98.089844 31.222656 98.070312 29.953125 97.988281 28.722656 C 97.566406 24.671875 96.523438 20.421875 94.476562 16.320312 C 90.03125 7.871094 82.617188 2.945312 79.144531 0.988281 C 78.757812 0.777344 78.359375 0.566406 77.957031 0.359375 C 77.585938 0.605469 77.671875 0.550781 77.300781 0.796875 C 78.199219 12.28125 84.300781 29.265625 89.296875 39.890625 C 89.367188 40.039062 89.351562 40.21875 89.25 40.347656 C 88.5 41.3125 88.148438 42.46875 88.167969 43.621094 C 88.175781 43.828125 88.316406 44.003906 88.519531 44.050781 C 89.296875 44.226562 90.257812 44.371094 91.382812 44.492188 C 91.53125 44.507812 92.136719 44.542969 92.136719 44.542969 L 93.195312 44.695312 L 94.066406 44.742188 L 95.019531 44.785156 L 95.414062 44.785156 C 95.414062 44.785156 95.652344 44.777344 95.847656 44.785156 C 112.253906 45.371094 145.765625 42.3125 164.253906 34.707031 C 164.574219 34.574219 164.628906 34.140625 164.351562 33.929688 M 116.535156 99.207031 C 116.535156 131.40625 90.453125 157.511719 58.277344 157.511719 C 26.101562 157.511719 0.0195312 131.40625 0.0195312 99.207031 C 0.0195312 67.003906 26.101562 40.898438 58.277344 40.898438 C 90.453125 40.898438 116.535156 67.003906 116.535156 99.207031 " fill-opacity="1" fill-rule="evenodd"/></g><path fill="#b2b2b2" d="M 98.054688 32.710938 C 98.035156 32.65625 98.027344 32.597656 98.027344 32.535156 C 98.089844 31.222656 98.070312 29.953125 97.988281 28.722656 C 97.988281 28.71875 97.988281 28.710938 97.988281 28.707031 C 97.957031 28.269531 97.917969 27.835938 97.871094 27.414062 C 97.878906 27.40625 97.890625 27.398438 97.898438 27.394531 C 98.085938 29.082031 98.148438 30.851562 98.054688 32.710938 " fill-opacity="1" fill-rule="nonzero"/><path fill="#287e34" d="M 90.320312 47.625 C 90.191406 47.550781 90.066406 47.46875 89.949219 47.375 C 88.21875 46.03125 86.039062 44.164062 83.824219 41.796875 C 84.160156 39.808594 85.117188 37.96875 86.617188 36.515625 C 86.886719 36.25 87.15625 35.992188 87.429688 35.734375 C 88.058594 37.199219 88.6875 38.59375 89.296875 39.890625 C 89.339844 39.984375 89.351562 40.085938 89.328125 40.179688 C 88.660156 41 88.289062 41.96875 88.199219 42.953125 C 88.175781 43.175781 88.164062 43.398438 88.167969 43.621094 C 88.171875 43.660156 88.175781 43.695312 88.1875 43.734375 C 88.273438 45.230469 89.007812 46.683594 90.320312 47.625 M 97.988281 28.707031 C 97.941406 28.285156 97.890625 27.863281 97.835938 27.433594 C 97.847656 27.425781 97.859375 27.421875 97.871094 27.414062 C 97.917969 27.835938 97.957031 28.269531 97.988281 28.707031 " fill-opacity="1" fill-rule="nonzero"/><path fill="#006630" d="M 88.1875 43.734375 C 88.175781 43.695312 88.171875 43.660156 88.167969 43.621094 C 88.164062 43.398438 88.175781 43.175781 88.199219 42.953125 C 88.175781 43.210938 88.171875 43.472656 88.1875 43.734375 M 89.328125 40.179688 C 89.351562 40.085938 89.339844 39.984375 89.296875 39.890625 C 88.6875 38.59375 88.058594 37.199219 87.429688 35.734375 C 90.800781 32.542969 94.273438 29.777344 97.835938 27.433594 C 97.890625 27.863281 97.941406 28.285156 97.988281 28.707031 C 97.988281 28.710938 97.988281 28.71875 97.988281 28.722656 C 98.070312 29.953125 98.089844 31.222656 98.027344 32.535156 C 98.027344 32.597656 98.035156 32.65625 98.054688 32.710938 C 98.054688 32.71875 98.054688 32.722656 98.054688 32.730469 C 95.296875 34.714844 92.523438 37.035156 89.738281 39.738281 C 89.589844 39.878906 89.457031 40.027344 89.328125 40.179688 " fill-opacity="1" fill-rule="nonzero"/><g clip-path="url(#90abbf8497)"><g clip-path="url(#9ee11935e6)"><path fill="url(#6693ae2d4a)" d="M 12.8125 46.234375 L 12.8125 151.792969 L 111.628906 151.792969 L 111.628906 46.234375 Z M 12.8125 46.234375 " fill-rule="nonzero"/></g></g><g fill="#009245" fill-opacity="1"><g transform="translate(127.269635, 119.737119)"><g><path d="M 2.691406 -49.453125 L 19.3125 -49.453125 L 19.3125 -41.984375 L 9.957031 -41.984375 L 9.957031 -29 L 16.6875 -29 L 16.6875 -21.058594 L 9.957031 -21.058594 L 9.957031 -7.46875 L 19.3125 -7.46875 L 19.3125 0 L 2.691406 0 Z M 2.691406 -49.453125 "/></g></g></g><g fill="#009245" fill-opacity="1"><g transform="translate(147.924358, 119.737119)"><g><path d="M 21.597656 -16.957031 L 21.597656 -10.160156 C 21.53125 -8.140625 21.128906 -6.324219 20.386719 -4.777344 C 19.78125 -3.429688 18.839844 -2.152344 17.492188 -1.144531 C 16.148438 -0.0664062 14.332031 0.539062 11.910156 0.539062 C 9.488281 0.539062 7.601562 -0.0664062 6.257812 -1.144531 C 4.910156 -2.152344 4.035156 -3.429688 3.429688 -4.777344 C 2.691406 -6.324219 2.289062 -8.140625 2.21875 -10.160156 L 2.21875 -39.292969 C 2.289062 -41.246094 2.691406 -43.0625 3.429688 -44.609375 C 4.035156 -45.957031 4.910156 -47.300781 6.257812 -48.308594 C 7.601562 -49.320312 9.488281 -49.992188 11.910156 -49.992188 C 14.332031 -49.992188 16.148438 -49.320312 17.492188 -48.308594 C 18.839844 -47.300781 19.78125 -45.957031 20.386719 -44.609375 C 21.128906 -43.0625 21.53125 -41.246094 21.597656 -39.292969 L 21.597656 -32.5 L 14.800781 -32.5 L 14.800781 -39.292969 C 14.800781 -40.640625 14.464844 -41.582031 13.726562 -42.390625 C 13.390625 -42.726562 12.785156 -42.925781 12.042969 -42.925781 C 10.765625 -42.925781 10.160156 -41.984375 9.824219 -41.109375 C 9.621094 -40.574219 9.554688 -39.96875 9.488281 -39.292969 L 9.488281 -10.160156 C 9.554688 -8.746094 9.957031 -7.804688 10.632812 -7.066406 C 10.96875 -6.726562 11.4375 -6.527344 12.042969 -6.527344 C 13.589844 -6.527344 14.195312 -7.335938 14.535156 -8.34375 C 14.734375 -8.8125 14.800781 -9.417969 14.800781 -10.160156 L 14.800781 -16.957031 Z M 21.597656 -16.957031 "/></g></g></g><g fill="#009245" fill-opacity="1"><g transform="translate(171.202973, 119.737119)"><g><path d="M 21.597656 -10.160156 C 21.53125 -8.140625 21.128906 -6.324219 20.386719 -4.777344 C 19.78125 -3.429688 18.839844 -2.152344 17.492188 -1.144531 C 16.148438 -0.0664062 14.332031 0.539062 11.910156 0.539062 C 9.488281 0.539062 7.601562 -0.0664062 6.257812 -1.144531 C 4.910156 -2.152344 4.035156 -3.429688 3.429688 -4.777344 C 2.691406 -6.324219 2.289062 -8.140625 2.21875 -10.160156 L 2.21875 -39.292969 C 2.289062 -41.246094 2.691406 -43.0625 3.429688 -44.609375 C 4.035156 -45.957031 4.910156 -47.300781 6.257812 -48.308594 C 7.601562 -49.320312 9.488281 -49.992188 11.910156 -49.992188 C 14.332031 -49.992188 16.148438 -49.320312 17.492188 -48.308594 C 18.839844 -47.300781 19.78125 -45.957031 20.386719 -44.609375 C 21.128906 -43.0625 21.53125 -41.246094 21.597656 -39.292969 Z M 14.332031 -39.292969 C 14.332031 -40.640625 14.0625 -41.582031 13.390625 -42.390625 C 13.054688 -42.726562 12.515625 -42.925781 11.910156 -42.925781 C 10.632812 -42.925781 10.023438 -41.984375 9.757812 -41.109375 C 9.554688 -40.574219 9.488281 -39.96875 9.488281 -39.292969 L 9.488281 -10.160156 C 9.488281 -8.746094 9.824219 -7.804688 10.496094 -7.066406 C 10.832031 -6.726562 11.304688 -6.527344 11.910156 -6.527344 C 13.1875 -6.527344 13.792969 -7.335938 14.0625 -8.34375 C 14.265625 -8.8125 14.332031 -9.417969 14.332031 -10.160156 Z M 14.332031 -39.292969 "/></g></g></g><g fill="#009245" fill-opacity="1"><g transform="translate(195.019824, 119.737119)"><g><path d="M 0.132812 -41.984375 L 0.132812 -49.453125 L 21.128906 -49.453125 L 21.128906 -41.984375 L 14.265625 -41.984375 L 14.265625 0 L 6.996094 0 L 6.996094 -41.984375 Z M 0.132812 -41.984375 "/></g></g></g><g fill="#009245" fill-opacity="1"><g transform="translate(216.280066, 119.737119)"><g><path d="M 2.691406 -49.453125 L 19.3125 -49.453125 L 19.3125 -41.984375 L 9.957031 -41.984375 L 9.957031 -29 L 16.6875 -29 L 16.6875 -21.058594 L 9.957031 -21.058594 L 9.957031 -7.46875 L 19.3125 -7.46875 L 19.3125 0 L 2.691406 0 Z M 2.691406 -49.453125 "/></g></g></g><g fill="#009245" fill-opacity="1"><g transform="translate(236.934789, 119.737119)"><g><path d="M 21.597656 -16.957031 L 21.597656 -10.160156 C 21.53125 -8.140625 21.128906 -6.324219 20.386719 -4.777344 C 19.78125 -3.429688 18.839844 -2.152344 17.492188 -1.144531 C 16.148438 -0.0664062 14.332031 0.539062 11.910156 0.539062 C 9.488281 0.539062 7.601562 -0.0664062 6.257812 -1.144531 C 4.910156 -2.152344 4.035156 -3.429688 3.429688 -4.777344 C 2.691406 -6.324219 2.289062 -8.140625 2.21875 -10.160156 L 2.21875 -39.292969 C 2.289062 -41.246094 2.691406 -43.0625 3.429688 -44.609375 C 4.035156 -45.957031 4.910156 -47.300781 6.257812 -48.308594 C 7.601562 -49.320312 9.488281 -49.992188 11.910156 -49.992188 C 14.332031 -49.992188 16.148438 -49.320312 17.492188 -48.308594 C 18.839844 -47.300781 19.78125 -45.957031 20.386719 -44.609375 C 21.128906 -43.0625 21.53125 -41.246094 21.597656 -39.292969 L 21.597656 -32.5 L 14.800781 -32.5 L 14.800781 -39.292969 C 14.800781 -40.640625 14.464844 -41.582031 13.726562 -42.390625 C 13.390625 -42.726562 12.785156 -42.925781 12.042969 -42.925781 C 10.765625 -42.925781 10.160156 -41.984375 9.824219 -41.109375 C 9.621094 -40.574219 9.554688 -39.96875 9.488281 -39.292969 L 9.488281 -10.160156 C 9.554688 -8.746094 9.957031 -7.804688 10.632812 -7.066406 C 10.96875 -6.726562 11.4375 -6.527344 12.042969 -6.527344 C 13.589844 -6.527344 14.195312 -7.335938 14.535156 -8.34375 C 14.734375 -8.8125 14.800781 -9.417969 14.800781 -10.160156 L 14.800781 -16.957031 Z M 21.597656 -16.957031 "/></g></g></g><g fill="#009245" fill-opacity="1"><g transform="translate(260.213405, 119.737119)"><g><path d="M 15.609375 -21.53125 L 9.957031 -21.53125 L 9.957031 0 L 2.691406 0 L 2.691406 -49.453125 L 9.957031 -49.453125 L 9.957031 -29 L 15.609375 -29 L 15.609375 -49.453125 L 22.875 -49.453125 L 22.875 0 L 15.609375 0 Z M 15.609375 -21.53125 "/></g></g></g><g fill="#152029" fill-opacity="1"><g transform="translate(127.672554, 141.616647)"><g><path d="M 1 -13.8125 L 5.28125 -13.8125 C 6.582031 -13.8125 7.613281 -13.535156 8.375 -12.984375 C 9.144531 -12.429688 9.53125 -11.535156 9.53125 -10.296875 C 9.53125 -8.910156 8.957031 -7.921875 7.8125 -7.328125 C 9.78125 -6.984375 10.765625 -5.820312 10.765625 -3.84375 C 10.765625 -2.6875 10.359375 -1.753906 9.546875 -1.046875 C 8.742188 -0.347656 7.640625 0 6.234375 0 L 1 0 Z M 4.15625 -8.40625 L 4.40625 -8.40625 C 5.101562 -8.40625 5.625 -8.523438 5.96875 -8.765625 C 6.320312 -9.015625 6.5 -9.414062 6.5 -9.96875 C 6.5 -10.90625 5.800781 -11.375 4.40625 -11.375 L 4.15625 -11.375 Z M 4.15625 -2.421875 L 5.140625 -2.421875 C 6.679688 -2.421875 7.453125 -2.9375 7.453125 -3.96875 C 7.453125 -4.582031 7.257812 -5.019531 6.875 -5.28125 C 6.488281 -5.550781 5.910156 -5.6875 5.140625 -5.6875 L 4.15625 -5.6875 Z M 4.15625 -2.421875 "/></g></g></g><g fill="#152029" fill-opacity="1"><g transform="translate(142.132327, 141.616647)"><g><path d="M -0.5 -13.8125 L 3.28125 -13.8125 L 6.15625 -9.390625 L 9.03125 -13.8125 L 12.8125 -13.8125 L 7.734375 -6.1875 L 7.734375 0 L 4.578125 0 L 4.578125 -6.1875 Z M -0.5 -13.8125 "/></g></g></g><g fill="#152029" fill-opacity="1"><g transform="translate(157.763506, 141.616647)"><g/></g></g><g fill="#152029" fill-opacity="1"><g transform="translate(165.646703, 141.616647)"><g><path d="M 1 -13.8125 L 5.28125 -13.8125 C 6.582031 -13.8125 7.613281 -13.535156 8.375 -12.984375 C 9.144531 -12.429688 9.53125 -11.535156 9.53125 -10.296875 C 9.53125 -8.910156 8.957031 -7.921875 7.8125 -7.328125 C 9.78125 -6.984375 10.765625 -5.820312 10.765625 -3.84375 C 10.765625 -2.6875 10.359375 -1.753906 9.546875 -1.046875 C 8.742188 -0.347656 7.640625 0 6.234375 0 L 1 0 Z M 4.15625 -8.40625 L 4.40625 -8.40625 C 5.101562 -8.40625 5.625 -8.523438 5.96875 -8.765625 C 6.320312 -9.015625 6.5 -9.414062 6.5 -9.96875 C 6.5 -10.90625 5.800781 -11.375 4.40625 -11.375 L 4.15625 -11.375 Z M 4.15625 -2.421875 L 5.140625 -2.421875 C 6.679688 -2.421875 7.453125 -2.9375 7.453125 -3.96875 C 7.453125 -4.582031 7.257812 -5.019531 6.875 -5.28125 C 6.488281 -5.550781 5.910156 -5.6875 5.140625 -5.6875 L 4.15625 -5.6875 Z M 4.15625 -2.421875 "/></g></g></g><g fill="#152029" fill-opacity="1"><g transform="translate(180.106478, 141.616647)"><g><path d="M 8.90625 -13.8125 L 8.90625 -11.046875 L 4.15625 -11.046875 L 4.15625 -8.296875 L 8.703125 -8.296875 L 8.703125 -5.546875 L 4.15625 -5.546875 L 4.15625 -2.765625 L 8.90625 -2.765625 L 8.90625 0 L 1 0 L 1 -13.8125 Z M 8.90625 -13.8125 "/></g></g></g><g fill="#152029" fill-opacity="1"><g transform="translate(193.127101, 141.616647)"><g><path d="M 8.015625 -13.8125 L 13.59375 0 L 10.203125 0 L 9.1875 -2.765625 L 3.9375 -2.765625 L 2.90625 0 L -0.46875 0 L 5.109375 -13.8125 Z M 8.109375 -5.515625 L 6.578125 -9.53125 L 6.546875 -9.53125 L 5 -5.515625 Z M 8.109375 -5.515625 "/></g></g></g></svg>