<svg xmlns="http://www.w3.org/2000/svg" xmlns:xlink="http://www.w3.org/1999/xlink" width="500" zoomAndPan="magnify" viewBox="0 0 375 374.999991" height="500" preserveAspectRatio="xMidYMid meet" version="1.0"><defs><g/><clipPath id="66825bcd3e"><path d="M 132 99.019531 L 224.828125 99.019531 L 224.828125 157 L 132 157 Z M 132 99.019531 " clip-rule="nonzero"/></clipPath><clipPath id="4fc3d99115"><path d="M 59.828125 99.019531 L 224.828125 99.019531 L 224.828125 256.519531 L 59.828125 256.519531 Z M 59.828125 99.019531 " clip-rule="nonzero"/></clipPath><clipPath id="b08e276466"><path d="M 72.640625 145.253906 L 171.457031 145.253906 L 171.457031 250.8125 L 72.640625 250.8125 Z M 72.640625 145.253906 " clip-rule="nonzero"/></clipPath><clipPath id="adf446f926"><path d="M 116.3125 201.296875 C 115.90625 201.332031 115.757812 201.507812 115.917969 201.855469 L 116 201.929688 C 116.214844 202.03125 116.316406 201.96875 116.609375 201.914062 L 116.953125 201.855469 C 117.261719 201.769531 117.101562 201.992188 117.191406 201.691406 L 117.191406 201.613281 L 117.109375 201.453125 C 117.039062 201.453125 116.941406 201.457031 116.875 201.445312 C 116.714844 201.421875 116.796875 201.425781 116.714844 201.375 L 116.394531 201.371094 Z M 109.585938 199.714844 C 109.503906 199.433594 109.246094 199.519531 108.476562 199.316406 C 107.796875 199.136719 108.191406 198.863281 107.441406 198.839844 L 107.257812 198.765625 L 107.125 198.761719 L 107.046875 198.6875 C 106.742188 198.488281 106.84375 198.363281 106.582031 198.199219 C 106.417969 198.097656 105.992188 198.027344 105.78125 197.972656 L 105.703125 197.898438 C 105.457031 197.839844 105.46875 197.796875 105.222656 197.734375 L 105.140625 197.660156 C 104.792969 197.578125 104.539062 197.335938 104.253906 197.285156 C 104.046875 197.246094 103.855469 197.285156 103.648438 197.257812 C 103.335938 197.214844 103.4375 197.136719 103.085938 197.105469 C 102.84375 197.085938 102.820312 197.117188 102.605469 197.109375 L 102.273438 197.027344 L 102.144531 197.027344 L 102.054688 197.101562 C 101.855469 197.15625 101.863281 197.140625 101.65625 197.183594 C 101.292969 197.257812 101.546875 197.175781 101.257812 197.335938 C 101.011719 197.472656 100.789062 197.535156 100.621094 197.738281 L 100.550781 197.816406 C 100.375 198.191406 100.453125 198.621094 101.101562 198.210938 L 101.148438 198.179688 L 101.902344 197.738281 L 101.976562 197.65625 C 102.519531 197.539062 102.257812 197.503906 102.632812 197.792969 C 103.179688 198.207031 102.792969 197.628906 104.179688 198.308594 C 104.476562 198.453125 104.484375 198.523438 104.988281 198.535156 C 105.058594 198.535156 105.148438 198.53125 105.21875 198.542969 C 105.371094 198.5625 105.308594 198.566406 105.382812 198.609375 C 105.945312 198.90625 105.664062 199.007812 106.058594 199.199219 C 106.226562 199.28125 106.316406 199.261719 106.519531 199.371094 C 106.730469 199.484375 106.710938 199.519531 106.886719 199.636719 C 106.757812 199.832031 106.148438 200.328125 106.945312 200.347656 L 107.046875 200.273438 C 107.339844 200.003906 108.074219 200.113281 108.6875 200.113281 C 108.761719 200.070312 108.566406 200.03125 108.941406 200.039062 C 109.269531 200.046875 109.011719 200.007812 109.113281 200.113281 L 109.425781 200.113281 L 109.5 200.039062 L 109.585938 199.875 Z M 113.71875 200.566406 C 113.519531 200.371094 113.585938 200.34375 113.304688 200.269531 L 113.164062 200.191406 L 112.914062 200.191406 C 112.898438 200.207031 112.734375 200.457031 112.734375 200.191406 C 112.132812 200.136719 112.558594 199.921875 111.75 200.140625 C 111.28125 200.269531 111.019531 200.074219 110.609375 200.027344 L 110.53125 200.027344 C 110.382812 200.070312 110.40625 200.050781 110.292969 200.113281 C 110.3125 200.976562 110.765625 200.246094 110.929688 200.8125 L 111 200.902344 L 111.007812 201.058594 L 111.007812 201.179688 C 110.757812 201.40625 110.054688 201.296875 109.742188 201.214844 L 109.582031 201.214844 C 109.445312 201.316406 109.292969 201.503906 109.488281 201.695312 C 109.617188 201.824219 109.980469 201.777344 110.214844 201.773438 L 111.636719 201.851562 L 111.636719 202.085938 C 111.703125 202.34375 111.921875 202.484375 112.222656 202.359375 C 112.503906 202.246094 112.472656 202.023438 112.589844 201.773438 C 113.726562 201.773438 113.132812 201.613281 114.023438 201.613281 L 114.097656 201.539062 C 114.164062 201.570312 114.160156 201.5625 114.25 201.621094 C 114.296875 201.652344 114.429688 201.753906 114.441406 201.761719 C 114.691406 201.90625 114.648438 201.921875 114.8125 201.691406 L 114.8125 201.457031 C 114.695312 201.285156 114.671875 201.25 114.574219 201.054688 L 114.492188 200.980469 C 114.335938 200.902344 114.410156 200.925781 114.175781 200.894531 L 114.105469 200.824219 C 113.859375 200.699219 113.921875 200.761719 113.71875 200.566406 Z M 163.207031 180.585938 L 162.574219 180.585938 C 162.496094 180.636719 162.554688 180.617188 162.414062 180.65625 C 162.386719 180.664062 162.308594 180.660156 162.261719 180.664062 C 161.949219 180.671875 161.570312 180.804688 161.335938 180.925781 C 161.007812 181.089844 160.886719 181.289062 160.523438 181.375 L 160.441406 181.457031 C 160.183594 181.453125 160.082031 181.476562 159.851562 181.40625 C 159.523438 181.308594 159.714844 181.300781 159.410156 181.214844 L 159.332031 181.136719 C 158.976562 181.054688 158.832031 181.050781 158.539062 180.90625 L 158.460938 180.820312 L 158.375 180.742188 C 158.03125 180.574219 157.839844 180.621094 157.746094 180.980469 L 157.746094 181.613281 L 157.667969 181.691406 C 157.601562 181.933594 157.597656 181.871094 157.417969 181.996094 C 157.25 182.113281 157.257812 182.078125 157.09375 182.226562 C 156.882812 182.40625 156.703125 182.578125 156.554688 182.796875 L 156.480469 182.875 C 156.273438 183.183594 156 183.707031 156.007812 184.222656 L 156.007812 185.011719 L 156.003906 185.40625 C 155.746094 185.476562 155.730469 185.554688 155.546875 185.742188 C 155.378906 185.914062 155.257812 186.007812 155.128906 186.199219 L 155.050781 186.277344 L 154.808594 186.59375 L 154.734375 186.667969 C 154.617188 186.847656 154.46875 187.035156 154.335938 187.226562 L 154.257812 187.328125 C 154.074219 187.621094 153.933594 187.886719 153.742188 188.207031 C 153.53125 188.554688 153.351562 188.8125 153.15625 189.121094 L 153.074219 189.203125 C 152.851562 189.527344 152.472656 189.859375 152.28125 190.148438 C 152.28125 190.273438 152.316406 190.25 152.203125 190.25 C 152.097656 190.378906 152.023438 190.433594 151.90625 190.566406 C 151.800781 190.691406 151.730469 190.816406 151.644531 190.941406 L 151.566406 191.019531 C 151.480469 191.179688 151.457031 191.207031 151.410156 191.414062 L 151.328125 191.496094 C 151.253906 191.824219 151.117188 192.246094 151.089844 192.605469 C 151.054688 193.109375 151.214844 193.371094 151.25 193.789062 L 151.328125 193.863281 C 151.410156 194.203125 151.628906 194.558594 151.804688 194.808594 L 151.882812 194.894531 L 151.882812 194.96875 L 151.964844 195.050781 C 152.035156 195.355469 152.113281 195.40625 152.121094 195.777344 C 152.199219 195.886719 152.289062 196.015625 152.121094 196.148438 C 152.121094 196.589844 151.996094 196.804688 151.964844 197.1875 L 151.882812 197.265625 L 151.882812 197.34375 L 151.804688 197.425781 C 151.601562 197.722656 151.363281 197.746094 151.328125 198.132812 L 151.328125 198.371094 C 151.363281 198.765625 151.601562 198.78125 151.804688 199.085938 C 151.726562 199.375 151.726562 199.1875 151.644531 199.480469 L 151.566406 199.558594 C 151.503906 200.296875 151.433594 200.347656 151.941406 200.84375 C 152.269531 201.164062 152.539062 201.445312 152.753906 201.851562 L 152.839844 201.929688 C 153.011719 202.273438 153.121094 202.4375 153.339844 202.769531 C 153.453125 202.933594 153.523438 203.054688 153.625 203.195312 C 153.746094 203.363281 153.832031 203.421875 153.941406 203.585938 L 154.027344 203.667969 L 154.101562 203.742188 L 154.183594 203.828125 L 154.257812 203.90625 L 154.34375 203.980469 L 154.425781 204.058594 L 154.5 204.148438 L 154.574219 204.222656 L 154.664062 204.296875 L 154.734375 204.378906 L 154.816406 204.457031 C 155.0625 204.625 155.363281 204.902344 155.609375 205.089844 C 155.894531 205.3125 156.109375 205.554688 156.378906 205.824219 C 156.515625 205.960938 156.605469 206.039062 156.738281 206.175781 C 157.503906 206.972656 156.957031 206.859375 158.21875 206.753906 L 158.378906 206.671875 C 158.796875 206.671875 159.113281 206.546875 159.492188 206.519531 C 159.898438 206.488281 160.417969 206.515625 160.835938 206.515625 C 160.910156 206.46875 160.863281 206.480469 161 206.445312 C 161.023438 206.4375 161.109375 206.4375 161.152344 206.4375 L 161.453125 206.4375 C 161.578125 206.359375 161.351562 206.4375 161.628906 206.359375 C 161.65625 206.355469 161.742188 206.355469 161.785156 206.355469 C 162.160156 206.351562 162.304688 206.230469 162.636719 206.199219 C 162.636719 206.085938 162.613281 206.117188 162.738281 206.117188 C 163.023438 206.097656 163.113281 206.023438 163.367188 205.960938 L 163.449219 205.882812 C 164.035156 205.75 164.296875 205.523438 164.875 205.804688 L 165.03125 205.960938 C 165.246094 206.074219 165.261719 206.113281 165.589844 206.117188 C 165.710938 206.117188 165.683594 206.085938 165.683594 206.199219 C 166 206.28125 166.183594 206.445312 166.335938 206.71875 C 166.523438 207.058594 166.460938 207.382812 166.460938 207.859375 L 166.378906 207.945312 C 166.3125 208.230469 166.25 208.160156 166.222656 208.492188 L 166.144531 208.574219 L 166.140625 208.726562 L 166.0625 208.816406 C 166.0625 209.207031 165.996094 209.242188 165.988281 209.523438 C 165.980469 209.839844 166.0625 209.898438 166.0625 210.3125 L 166.140625 210.390625 L 166.144531 210.554688 L 166.222656 210.707031 L 166.300781 211.011719 L 166.378906 211.101562 L 166.617188 211.886719 L 166.699219 211.96875 L 166.695312 212.175781 L 166.773438 212.285156 C 166.8125 212.667969 166.9375 212.785156 166.9375 213.230469 L 167.011719 213.316406 L 167.015625 213.601562 C 167.066406 213.699219 167.027344 213.511719 167.085938 213.789062 C 167.097656 213.839844 167.09375 213.96875 167.09375 214.027344 L 167.09375 215.210938 C 167.09375 215.328125 167.097656 215.316406 167.074219 215.425781 L 167.046875 215.480469 C 167.042969 215.46875 167.027344 215.507812 167.015625 215.523438 L 167.027344 215.765625 L 166.9375 215.902344 C 166.910156 216.210938 166.839844 216.289062 166.773438 216.554688 L 166.695312 216.636719 C 166.632812 216.90625 166.5 217.125 166.378906 217.347656 C 166.378906 217.464844 166.414062 217.4375 166.300781 217.4375 C 166.101562 217.78125 165.6875 218.59375 165.585938 219.007812 L 165.507812 219.082031 C 165.449219 219.339844 165.375 219.429688 165.351562 219.71875 C 165.351562 219.835938 165.386719 219.8125 165.273438 219.8125 C 165.195312 220.113281 165.066406 220.503906 165.03125 220.824219 L 164.957031 220.984375 C 164.941406 221.5625 164.71875 222.011719 164.71875 222.722656 C 164.71875 223.054688 164.695312 222.902344 164.636719 222.976562 C 164.636719 223.515625 164.5625 223.757812 164.558594 224.246094 C 168.949219 216.542969 171.457031 207.632812 171.457031 198.132812 C 171.457031 193.832031 170.941406 189.652344 169.972656 185.648438 C 169.953125 185.660156 169.933594 185.671875 169.910156 185.6875 C 169.894531 185.703125 169.546875 185.855469 169.523438 185.863281 C 169.1875 186 169.160156 185.894531 168.835938 185.722656 L 168.753906 185.644531 C 168.53125 185.492188 168.429688 185.328125 168.214844 185.15625 C 168 184.984375 167.789062 184.84375 167.570312 184.691406 L 167.492188 184.617188 C 167.019531 184.371094 166.757812 184.011719 166.460938 183.597656 C 166.34375 183.597656 166.375 183.625 166.375 183.507812 C 166.238281 183.222656 166.125 182.851562 165.984375 182.5625 L 165.902344 182.480469 C 165.796875 182.066406 165.320312 181.582031 165.011719 181.316406 C 164.675781 181.03125 164.070312 180.722656 163.527344 180.65625 C 163.421875 180.65625 163.414062 180.65625 163.308594 180.636719 C 163.296875 180.636719 163.265625 180.636719 163.257812 180.613281 C 163.246094 180.59375 163.222656 180.59375 163.207031 180.585938 Z M 159.566406 169.753906 C 159.160156 169.761719 159.140625 169.839844 158.882812 170.015625 C 158.570312 170.226562 158.449219 170.144531 157.984375 170.152344 L 157.902344 170.070312 C 157.617188 170.003906 157.363281 169.785156 157.09375 170.054688 C 156.828125 170.320312 157.046875 170.570312 157.191406 170.78125 L 157.585938 170.785156 L 157.664062 170.859375 C 157.996094 170.9375 158.265625 171.183594 158.449219 171.421875 C 158.644531 171.671875 158.863281 171.921875 159.03125 172.1875 C 159.285156 172.589844 159.859375 173.769531 159.339844 174.179688 L 159.25 174.257812 C 158.578125 174.417969 158.5625 174.246094 157.984375 174.269531 L 157.839844 174.179688 C 157.605469 174.128906 157.71875 174.203125 157.585938 174.039062 C 157.476562 174.039062 157.507812 174.066406 157.507812 173.941406 C 157.417969 173.613281 157.375 173.628906 156.972656 173.628906 C 156.972656 173.742188 157 173.707031 156.875 173.707031 C 156.648438 173.8125 156.648438 173.765625 156.398438 173.707031 C 156.265625 173.707031 156.292969 173.746094 156.292969 173.628906 L 156.164062 173.628906 L 156.082031 173.546875 C 155.632812 173.332031 155.488281 173.601562 155.210938 173.785156 C 155.210938 174.425781 155.363281 174.28125 155.40625 174.671875 C 155.449219 175.070312 155.265625 174.988281 155.496094 175.558594 C 155.859375 176.46875 155.320312 176.867188 155.210938 177.265625 L 155.210938 177.578125 L 155.605469 178.058594 L 155.683594 178.132812 L 155.6875 178.199219 C 155.796875 178.199219 155.769531 178.171875 155.769531 178.292969 L 155.769531 178.765625 C 155.769531 178.910156 155.808594 178.886719 155.6875 178.886719 C 155.6875 179.320312 155.730469 179.484375 156.089844 179.550781 C 156.246094 179.578125 156.414062 179.570312 156.59375 179.601562 C 156.828125 179.640625 156.925781 179.671875 157.113281 179.710938 C 157.25 179.710938 157.222656 179.671875 157.222656 179.792969 C 157.601562 179.917969 157.703125 180.445312 158.183594 180.320312 C 158.609375 180.210938 158.476562 179.824219 159.332031 179.785156 L 159.472656 179.875 L 160.125 179.875 L 160.203125 179.792969 C 160.609375 179.699219 160.589844 179.632812 160.757812 179.320312 L 160.835938 179.234375 C 160.871094 178.804688 160.867188 178.921875 160.851562 178.523438 C 160.84375 178.230469 160.96875 178.050781 160.992188 177.738281 L 161.074219 177.578125 C 161.09375 176.761719 161.878906 177.089844 162.132812 176.421875 C 162.28125 176.03125 162.015625 175.628906 162.359375 175.535156 C 162.660156 175.453125 162.710938 175.820312 162.976562 176 L 163.070312 176.078125 C 163.988281 176.078125 163.460938 175.671875 164.183594 175.523438 C 164.214844 175.472656 164.332031 175.285156 164.332031 175.523438 C 164.789062 175.65625 164.847656 176.246094 164.957031 176.710938 L 165.03125 176.789062 C 165.082031 176.996094 165.105469 177.019531 165.195312 177.183594 L 165.273438 177.265625 C 165.492188 177.679688 165.828125 177.941406 166.164062 178.269531 C 166.542969 178.648438 166.722656 178.886719 167.015625 179.316406 L 167.09375 179.398438 C 167.152344 179.511719 167.183594 179.582031 167.253906 179.691406 C 167.367188 179.691406 167.332031 179.667969 167.332031 179.792969 C 167.375 179.972656 167.402344 180.023438 167.449219 180.230469 C 167.535156 180.625 167.375 180.589844 167.648438 180.667969 L 167.726562 180.667969 C 167.988281 180.613281 167.835938 180.765625 167.886719 180.507812 C 167.886719 180.15625 167.84375 180.148438 167.964844 179.9375 C 168.125 179.914062 168.101562 179.917969 168.21875 179.886719 C 168.15625 179.71875 168.09375 179.546875 168.027344 179.378906 L 167.804688 179.164062 L 167.726562 179.082031 L 167.648438 179.003906 C 167.578125 178.726562 167.320312 178.4375 167.171875 178.207031 L 167.09375 178.136719 L 167.015625 178.054688 C 166.667969 177.546875 166.335938 177.460938 165.984375 176.789062 L 165.90625 176.710938 C 165.820312 176.550781 165.769531 176.5 165.746094 176.273438 C 165.628906 176.273438 165.667969 176.296875 165.667969 176.15625 L 165.667969 176.078125 C 165.75 175.949219 165.667969 175.949219 165.75 176.078125 C 165.992188 176.246094 166.210938 176.574219 166.414062 176.835938 C 166.617188 177.09375 166.988281 177.367188 167.359375 177.710938 C 165.929688 174.296875 164.148438 171.0625 162.058594 168.058594 C 162.015625 168.121094 161.9375 168.203125 161.9375 168.011719 C 161.542969 167.980469 161.835938 167.953125 161.46875 167.855469 L 161.390625 167.777344 L 160.757812 167.777344 C 160.632812 168.308594 160.601562 168.105469 160.914062 168.457031 L 160.988281 168.566406 L 160.988281 168.726562 L 160.914062 168.816406 C 160.605469 168.9375 160.273438 168.71875 159.917969 168.914062 C 159.640625 169.070312 159.441406 169.480469 159.566406 169.753906 Z M 155.292969 166.511719 C 155.292969 165.449219 155.164062 166.039062 155 165.539062 C 154.824219 165.019531 155.011719 164.246094 154.023438 164.21875 L 153.941406 164.144531 L 153.863281 164.0625 C 153.289062 164.074219 153.328125 164.289062 153.546875 164.617188 C 152.878906 164.617188 153.289062 164.5 152.835938 164.378906 C 152.714844 164.558594 152.738281 164.460938 152.675781 164.6875 L 152.753906 164.777344 L 152.835938 164.851562 C 152.875 165.347656 153.019531 165.171875 153.15625 165.558594 C 153.296875 165.953125 153.136719 166.121094 153.1875 166.40625 C 153.234375 166.683594 153.480469 166.867188 153.722656 166.890625 C 154.101562 166.925781 153.828125 166.738281 154.65625 166.75 L 154.816406 166.75 C 155.179688 166.714844 155.03125 166.683594 155.292969 166.511719 Z M 156.242188 166.433594 L 156.242188 166.773438 C 156.320312 166.871094 156.285156 166.640625 156.304688 166.917969 C 156.328125 167.238281 156.34375 166.976562 156.242188 167.082031 L 156.242188 167.769531 L 156.316406 167.855469 C 156.382812 168.085938 156.359375 167.992188 156.480469 168.179688 L 156.550781 168.257812 L 156.632812 168.328125 L 156.71875 168.410156 C 157.105469 168.613281 157.199219 168.625 157.609375 168.589844 C 158.097656 168.546875 158.082031 168.714844 158.617188 168.730469 L 158.710938 168.804688 L 158.777344 168.804688 L 158.855469 168.882812 C 159.308594 168.882812 159.488281 168.753906 159.332031 168.40625 L 159.257812 168.332031 C 159.230469 167.285156 158.886719 167.605469 158.566406 167.113281 C 158.460938 166.949219 158.378906 166.667969 158.273438 166.457031 C 158.136719 166.179688 158.054688 166.027344 157.902344 165.796875 L 157.828125 165.722656 C 157.324219 164.828125 156.550781 164.5625 156.335938 163.886719 C 156.210938 163.484375 156.265625 163.316406 155.84375 163.183594 L 155.773438 163.113281 C 154.914062 163.09375 155.707031 162.601562 155.210938 162.238281 L 155.113281 162.164062 C 154.824219 162.164062 154.792969 162.195312 154.578125 162.242188 C 154.523438 162.476562 154.5 162.488281 154.5 162.800781 L 154.574219 162.875 L 154.582031 163.03125 L 154.5 163.171875 L 154.5 163.484375 L 154.574219 163.585938 C 154.847656 163.976562 154.847656 163.675781 155.132812 164.046875 L 155.203125 164.140625 C 155.539062 164.601562 155.234375 164.742188 155.625 164.992188 C 155.894531 165.164062 155.886719 165.007812 156.109375 165.222656 C 156.230469 165.34375 156.164062 165.398438 156.398438 165.570312 L 156.46875 165.644531 C 156.71875 165.773438 156.636719 165.820312 156.636719 166.195312 C 156.480469 166.300781 156.417969 166.339844 156.242188 166.433594 Z M 124.316406 152.597656 C 124.554688 152.957031 125.054688 153.222656 125.425781 153.464844 L 125.507812 153.546875 C 125.816406 153.757812 125.847656 153.882812 126.058594 154.164062 L 126.136719 154.257812 C 126.214844 154.550781 126.21875 154.359375 126.296875 154.652344 L 126.378906 154.734375 L 126.375 154.785156 C 126.492188 154.785156 126.457031 154.757812 126.457031 154.890625 L 126.613281 155.207031 L 126.691406 155.285156 C 127.042969 155.808594 127.441406 156.257812 127.972656 156.617188 C 128.394531 156.902344 129.222656 157.40625 129.863281 157.417969 L 130.027344 157.5 L 130.335938 157.484375 L 130.472656 157.578125 L 131.523438 157.578125 L 131.683594 157.503906 L 132.019531 157.5 C 132.152344 157.390625 132.59375 157.363281 132.707031 157.5 L 132.949219 157.5 L 133.03125 157.578125 C 133.375 157.660156 133.460938 157.792969 133.683594 158.03125 C 133.882812 158.242188 133.980469 158.460938 134.214844 158.609375 C 134.632812 158.871094 135.351562 158.914062 135.722656 158.210938 L 135.800781 158.132812 C 136.046875 157.089844 136.09375 156.464844 135.5625 155.679688 L 135.484375 155.601562 L 135.492188 155.523438 L 135.5625 155.449219 C 135.917969 155.433594 135.960938 155.414062 136.121094 155.207031 L 136.199219 155.117188 C 136.285156 154.765625 136.289062 154.941406 136.199219 154.59375 C 136.085938 154.59375 136.121094 154.617188 136.121094 154.496094 C 135.996094 154.234375 136.042969 153.996094 136.039062 153.625 L 136.121094 153.539062 L 136.4375 153.230469 L 136.515625 153.152344 L 136.558594 153.152344 C 136.558594 153.03125 136.535156 153.070312 136.671875 153.070312 C 136.980469 153.046875 137.054688 153 137.464844 152.992188 C 137.875 152.988281 137.914062 152.921875 138.242188 152.914062 C 138.242188 152.800781 138.21875 152.835938 138.335938 152.835938 C 139.046875 152.671875 139.535156 152.066406 139.84375 151.492188 L 139.921875 151.414062 C 140.070312 151.28125 140.109375 151.203125 140.363281 151.175781 C 140.429688 151.140625 140.371094 151.148438 140.554688 151.105469 C 140.582031 151.097656 140.671875 151.101562 140.714844 151.101562 C 141.28125 151.074219 141.351562 150.71875 141.554688 150.515625 C 134.9375 147.3125 127.550781 145.441406 119.746094 145.253906 L 119.945312 145.324219 L 120.117188 145.324219 L 120.195312 145.402344 C 120.484375 145.429688 120.574219 145.5 120.832031 145.5625 C 120.96875 145.5625 120.941406 145.523438 120.941406 145.640625 L 121.066406 145.640625 L 121.148438 145.71875 C 121.496094 145.800781 121.925781 146.0625 122.191406 146.261719 C 123.03125 146.882812 123.496094 148.199219 125.109375 148.160156 L 125.242188 148.25 C 125.414062 148.277344 125.390625 148.261719 125.503906 148.332031 L 125.59375 148.40625 L 125.675781 148.640625 L 125.488281 148.644531 C 125.328125 148.757812 125.21875 148.789062 125.046875 148.644531 C 124.425781 148.644531 123.84375 148.425781 123.304688 148.722656 L 123.207031 148.800781 C 123.097656 148.96875 123.011719 149.019531 123.046875 149.34375 C 123.066406 149.542969 123.160156 149.710938 123.3125 149.808594 C 123.726562 150.074219 124.003906 149.761719 124.484375 149.753906 L 124.632812 149.664062 L 124.988281 149.671875 C 125.109375 149.558594 125.136719 149.585938 125.34375 149.582031 C 125.570312 149.582031 125.644531 149.554688 125.738281 149.671875 L 125.820312 149.753906 L 125.742188 149.828125 L 125.554688 149.832031 L 125.34375 149.921875 C 124.824219 149.929688 124.261719 150.40625 124.15625 150.859375 L 124.078125 150.9375 L 124.078125 151.015625 C 124.078125 151.148438 124.117188 151.121094 124 151.121094 L 124 152.046875 L 124.074219 152.125 C 124.125 152.328125 124.148438 152.355469 124.238281 152.511719 Z M 118.238281 156.949219 C 118.117188 156.914062 118.042969 156.960938 118.136719 156.867188 C 118.234375 156.769531 118.425781 157.003906 118.238281 156.949219 Z M 112.503906 153.46875 L 112.199219 153.785156 L 112.117188 153.859375 C 111.898438 154.011719 111.917969 154.101562 111.664062 154.179688 L 111.480469 154.253906 C 111.117188 154.292969 111.09375 154.433594 111.085938 154.8125 C 111.214844 154.945312 111.257812 154.996094 111.480469 155.046875 C 111.421875 155.296875 111.492188 155.167969 111.300781 155.285156 L 111.085938 155.371094 L 110.671875 155.363281 L 110.53125 155.445312 C 110.035156 155.445312 110.183594 155.519531 109.816406 155.601562 L 109.742188 155.601562 C 109.375 155.574219 109.460938 155.46875 109.175781 155.453125 C 108.902344 155.4375 108.90625 155.539062 108.625 155.601562 L 108.550781 155.675781 C 108.253906 155.753906 108.214844 155.847656 107.917969 155.917969 C 107.917969 156.667969 108.28125 156.445312 108.972656 156.53125 C 109.644531 156.617188 109.789062 156.269531 110.214844 156.15625 L 110.292969 156.082031 L 110.433594 156.078125 L 110.53125 156.003906 C 110.96875 155.949219 110.703125 155.980469 111.164062 156 L 111.242188 156.078125 C 111.875 156.371094 111.324219 156 112.597656 156.707031 C 113.082031 156.972656 112.757812 157.042969 113.066406 157.429688 L 113.152344 157.5 L 114.335938 157.503906 L 114.410156 157.578125 L 114.492188 157.652344 L 114.5625 157.738281 C 114.652344 158.007812 114.617188 157.980469 114.886719 158.054688 L 115.285156 158.054688 L 115.761719 158.050781 L 115.902344 158.132812 C 116.300781 158.226562 115.988281 158.28125 116.550781 158.292969 L 116.644531 158.367188 L 116.789062 158.453125 L 116.875 158.527344 C 117.050781 158.613281 117.214844 158.648438 117.316406 158.410156 C 117.449219 158.101562 117.242188 158.007812 117.101562 157.902344 C 116.753906 157.640625 116.566406 157.46875 116.078125 157.335938 L 115.992188 157.261719 C 115.765625 157.257812 115.695312 157.25 115.527344 157.175781 C 115.328125 157.09375 115.265625 157.027344 115.207031 156.867188 L 115.601562 156.875 L 115.894531 156.945312 L 116.15625 156.949219 L 116.234375 157.023438 C 116.570312 157.054688 116.613281 157.152344 116.949219 157.1875 L 117.023438 157.261719 C 117.195312 157.300781 117.34375 157.324219 117.546875 157.375 C 117.8125 157.445312 117.828125 157.492188 118.136719 157.5 C 118.304688 157.246094 118.265625 157.445312 118.292969 157.105469 C 118.546875 157.273438 118.351562 157.234375 118.691406 157.261719 C 118.816406 156.726562 118.726562 156.617188 118.292969 156.394531 L 118.210938 156.316406 L 118.140625 156.230469 L 118.0625 156.15625 C 117.851562 156.019531 117.902344 155.976562 117.628906 155.871094 C 117.421875 155.796875 117.289062 155.792969 117.082031 155.707031 C 116.652344 155.527344 116.484375 155.355469 116.15625 155.121094 L 116.082031 155.046875 C 115.820312 154.980469 115.921875 155.019531 115.761719 154.84375 L 115.683594 154.734375 C 115.746094 154.433594 115.722656 154.46875 115.917969 154.355469 L 115.992188 154.652344 C 116.085938 154.753906 115.863281 154.738281 116.15625 154.71875 C 116.328125 154.707031 116.222656 154.722656 116.316406 154.652344 C 116.316406 154.582031 116.3125 154.488281 116.324219 154.417969 C 116.375 154.078125 116.320312 154.375 116.394531 154.226562 L 116.394531 154.101562 C 116.636719 154.15625 116.628906 154.199219 116.871094 154.265625 L 117.015625 154.339844 C 117.378906 154.511719 117.359375 154.566406 117.898438 154.578125 L 117.972656 154.652344 L 117.976562 154.734375 L 117.976562 154.8125 C 118.085938 155.195312 118.164062 155.117188 118.613281 155.136719 L 118.695312 155.207031 C 118.863281 155.394531 118.886719 155.4375 119.246094 155.445312 C 119.367188 155.191406 119.273438 155.113281 119.390625 154.890625 C 119.390625 154.890625 119.570312 154.625 119.570312 154.890625 L 119.722656 154.894531 L 119.960938 154.894531 C 120.589844 154.824219 121.179688 153.726562 120.382812 153.746094 C 119.582031 153.765625 120.027344 153.636719 119.515625 153.515625 C 118.929688 153.371094 119.714844 153.6875 118.53125 153.382812 L 118.457031 153.304688 L 118.375 153.234375 C 118.257812 153.234375 118.285156 153.265625 118.285156 153.152344 L 118.136719 153.066406 L 118.0625 152.992188 C 117.769531 152.929688 117.210938 152.839844 116.871094 152.824219 L 116.78125 152.757812 C 116.230469 152.449219 116.632812 152.597656 115.914062 152.519531 C 115.355469 152.460938 115.671875 152.25 115.761719 151.886719 L 115.839844 151.808594 C 115.878906 151.328125 116.054688 151.496094 116.316406 151.332031 L 116.316406 151.09375 L 116.214844 151.015625 L 116.078125 151.011719 L 116.003906 150.9375 L 115.027344 151.015625 L 114.886719 151.09375 L 114.71875 151.050781 C 114.890625 150.742188 114.773438 150.492188 114.382812 150.585938 C 113.9375 150.6875 114.742188 150.804688 113.585938 150.496094 C 113.011719 150.34375 113.242188 150.226562 112.917969 150.050781 C 112.554688 149.851562 112.410156 150.117188 112.042969 150.148438 C 112.03125 150.164062 111.859375 150.414062 111.859375 150.148438 L 111.671875 150.148438 C 111.652344 150.160156 111.632812 150.175781 111.617188 150.183594 L 111.558594 150.207031 C 111.503906 150.226562 111.472656 150.222656 111.402344 150.222656 L 111.085938 150.222656 L 110.925781 150.148438 L 110.691406 150.148438 L 110.691406 149.910156 C 110.945312 149.90625 111.144531 149.921875 111.078125 149.621094 C 111.027344 149.40625 110.816406 149.390625 110.609375 149.273438 L 110.539062 149.199219 C 110.207031 149.199219 110.230469 149.21875 109.988281 149.277344 L 109.898438 149.351562 C 109.414062 149.371094 109.585938 149.503906 109.113281 149.515625 L 109.027344 149.589844 C 108.421875 149.652344 108.671875 150.144531 107.996094 150.140625 L 107.921875 150.066406 C 107.523438 149.558594 107.152344 149.980469 106.695312 150.066406 C 106.660156 150.136719 106.550781 150.292969 106.550781 150.066406 C 106.367188 149.6875 106.84375 149.207031 106.253906 149.035156 L 105.9375 149.035156 C 105.660156 149.117188 105.761719 149.101562 105.578125 149.277344 C 105.519531 149.3125 105.535156 149.316406 105.414062 149.328125 C 105.3125 149.332031 105.324219 149.375 105.324219 149.277344 L 105.144531 149.277344 L 105.066406 149.199219 C 104.753906 149.199219 104.746094 149.222656 104.511719 149.277344 L 104.433594 149.351562 C 103.980469 149.605469 104.203125 149.492188 103.953125 149.90625 C 103.8125 150.144531 103.640625 150.226562 103.480469 150.464844 C 103.539062 150.671875 103.476562 150.527344 103.5625 150.703125 L 103.632812 150.785156 L 103.714844 150.859375 C 103.808594 150.976562 103.796875 150.679688 103.796875 151.097656 C 103.75 151.121094 103.539062 151.300781 103.324219 151.183594 C 103.308594 151.171875 103.054688 150.996094 103.324219 150.996094 C 103.292969 150.859375 103.300781 150.878906 103.242188 150.777344 L 103.148438 150.703125 C 102.246094 150.617188 103.394531 149 102.269531 149.640625 C 102.210938 149.675781 102.199219 149.789062 101.65625 149.832031 L 101.578125 149.90625 C 101.175781 150.007812 101.046875 149.886719 100.941406 150.226562 L 100.867188 150.308594 C 100.625 150.628906 100.667969 150.292969 100.542969 150.703125 L 100.472656 150.773438 C 100.332031 150.996094 100.253906 151.042969 100.390625 151.332031 L 100.464844 151.410156 C 100.578125 151.472656 100.554688 151.464844 100.714844 151.492188 L 100.789062 151.417969 L 101.105469 151.417969 L 101.210938 151.492188 L 101.585938 151.492188 L 101.660156 151.417969 L 101.898438 151.410156 L 101.828125 151.570312 L 101.660156 151.640625 L 101.578125 151.644531 L 101.285156 151.570312 C 100.226562 151.570312 100.613281 152.21875 101.003906 152.1875 L 102.292969 151.96875 L 102.394531 152.042969 L 102.898438 152.042969 L 103.003906 151.96875 L 103.164062 151.96875 L 103.265625 152.042969 L 103.515625 152.042969 L 103.640625 151.949219 L 104.113281 151.96875 L 104.199219 152.042969 L 104.515625 152.042969 L 104.589844 151.972656 C 104.992188 151.960938 105.515625 151.992188 105.796875 151.902344 C 106.273438 151.75 106.152344 151.535156 106.632812 151.410156 L 107.191406 151.410156 L 107.285156 151.335938 L 107.742188 150.921875 C 107.851562 151.28125 108.054688 151.222656 108.394531 151.332031 C 108.796875 151.464844 108.707031 151.632812 109.183594 151.652344 C 109.472656 151.660156 109.339844 151.628906 109.488281 151.730469 C 109.730469 151.746094 110.011719 152.007812 110.609375 152.28125 C 110.796875 152.367188 110.855469 152.425781 111.007812 152.515625 C 111.761719 152.953125 111.773438 152.558594 112.433594 153.367188 Z M 108.234375 183.53125 C 108.25 182.839844 108.46875 182.160156 108.707031 181.691406 L 108.789062 181.617188 L 108.949219 181.453125 C 109.109375 181.378906 109.230469 181.339844 109.425781 181.296875 L 109.5 181.21875 C 110.042969 180.84375 109.871094 180.6875 110.195312 180.171875 C 110.460938 179.75 110.695312 179.578125 111.085938 179.320312 L 111.164062 179.242188 C 111.730469 178.855469 112.210938 178.382812 112.589844 177.816406 L 112.671875 177.734375 C 112.964844 177.203125 113.203125 176.726562 113.699219 176.394531 L 113.78125 176.316406 C 114.058594 176.167969 114.519531 175.871094 114.886719 175.839844 L 114.96875 175.761719 L 115.148438 175.761719 L 115.285156 175.671875 C 115.886719 175.703125 116.320312 175.632812 116.710938 175.445312 L 116.789062 175.367188 C 117.148438 175.273438 117.28125 175.007812 117.738281 174.972656 L 117.820312 174.890625 L 117.894531 174.890625 L 117.976562 174.8125 C 118.457031 174.773438 118.214844 174.773438 118.691406 174.8125 C 118.609375 175.121094 118.386719 175.207031 118.078125 175.285156 C 118.078125 175.398438 118.101562 175.363281 117.976562 175.363281 C 117.496094 175.480469 117.042969 175.71875 117.027344 176.3125 L 117.109375 176.394531 C 117.234375 176.878906 117.851562 176.933594 118.140625 176.558594 C 118.257812 176.402344 118.320312 176.242188 118.46875 176.09375 C 118.667969 175.894531 118.773438 175.886719 119.011719 175.761719 L 119.085938 175.6875 C 119.371094 175.613281 119.316406 175.550781 119.632812 175.523438 C 119.632812 175.414062 119.605469 175.441406 119.722656 175.441406 L 119.945312 175.445312 L 120.117188 175.367188 C 120.675781 175.367188 120.867188 175.3125 121.304688 175.210938 C 121.359375 174.976562 121.386719 174.96875 121.386719 174.652344 L 121.148438 174.496094 L 121.066406 174.417969 L 120.695312 174.417969 C 120.496094 174.527344 120.371094 174.527344 120.128906 174.476562 L 120.011719 174.417969 C 119.429688 174.417969 118.890625 174.039062 118.65625 173.664062 C 118.496094 173.40625 118.484375 173.210938 118.3125 172.980469 C 118.101562 172.699219 117.953125 172.675781 117.660156 172.519531 L 117.582031 172.441406 L 117.832031 172.285156 C 117.90625 172.234375 117.839844 172.246094 117.984375 172.214844 C 118.046875 172.199219 118.152344 172.207031 118.214844 172.207031 C 118.582031 172.171875 118.433594 172.140625 118.691406 171.96875 C 118.691406 171.824219 118.707031 171.550781 118.679688 171.429688 C 118.617188 171.160156 118.59375 171.214844 118.375 171.097656 C 118.03125 171.09375 118.21875 171.089844 118.140625 171.015625 L 117.765625 171.015625 C 117.714844 171.046875 117.710938 171.070312 117.582031 171.09375 C 117.554688 171.097656 117.460938 171.101562 117.429688 171.101562 C 117.347656 171.109375 117.199219 171.097656 117.109375 171.097656 C 116.582031 171.097656 116.496094 171.21875 116.089844 171.253906 L 116 171.335938 C 115.542969 171.375 114.832031 171.777344 114.550781 172.027344 C 114.191406 172.347656 113.890625 172.878906 113.382812 172.996094 L 113.382812 172.757812 L 113.464844 172.671875 C 113.65625 172.398438 113.894531 172.179688 114.191406 171.984375 C 114.378906 171.855469 114.859375 171.480469 114.96875 171.335938 L 115.042969 171.25 L 115.125 171.179688 C 115.527344 170.90625 115.847656 170.667969 116.394531 170.542969 L 116.472656 170.464844 C 116.804688 170.4375 117.027344 170.304688 117.335938 170.226562 L 117.425781 170.148438 C 117.582031 170.074219 117.738281 170.011719 117.953125 169.988281 C 117.953125 169.875 117.929688 169.910156 118.058594 169.910156 C 118.421875 169.902344 118.75 169.832031 119.246094 169.832031 C 119.769531 169.832031 120.015625 169.90625 120.433594 169.914062 L 120.507812 169.988281 C 120.890625 169.988281 120.855469 170.058594 121.152344 170.066406 C 121.488281 170.074219 121.46875 169.988281 121.875 169.988281 L 122.019531 169.910156 C 122.382812 169.882812 122.800781 169.601562 123.050781 169.4375 L 123.128906 169.359375 C 123.351562 169.238281 123.480469 169.128906 123.804688 169.121094 C 123.804688 169 123.78125 169.039062 123.921875 169.039062 C 124.710938 169.039062 125.027344 169.070312 125.492188 168.726562 C 125.492188 168.609375 125.460938 168.636719 125.578125 168.636719 L 125.664062 168.570312 L 125.742188 168.484375 C 126.078125 167.996094 126.144531 167.808594 126.140625 166.988281 C 126.136719 166.679688 126.152344 166.339844 126.140625 166.035156 C 126.121094 165.652344 126.007812 165.515625 125.980469 165.167969 L 125.898438 165.089844 L 125.902344 165.027344 L 125.824219 164.929688 L 125.664062 164.617188 L 125.582031 164.535156 L 125.496094 164.457031 L 125.265625 164.222656 L 125.179688 164.140625 C 125.003906 164.015625 124.871094 163.886719 124.632812 163.824219 L 124.550781 163.746094 C 123.789062 163.566406 123.523438 163.546875 122.746094 163.746094 C 122.746094 163.855469 122.773438 163.824219 122.652344 163.824219 C 122.042969 163.875 121.558594 164.050781 121.050781 163.679688 C 120.578125 163.335938 120.597656 163.023438 120.433594 162.421875 C 120.320312 162.421875 120.355469 162.449219 120.355469 162.324219 C 120.261719 162.148438 120.222656 162.085938 120.117188 161.925781 L 120.027344 161.855469 L 119.953125 161.777344 L 119.878906 161.691406 L 119.644531 161.535156 L 119.5625 161.453125 C 119.273438 161.242188 119.480469 161.414062 119.367188 161.015625 C 119.289062 160.757812 119.253906 160.703125 119.085938 160.585938 L 119.007812 160.503906 C 118.550781 160.28125 118.078125 160.433594 117.851562 160.773438 C 117.328125 161.5625 116.738281 161.917969 115.648438 161.644531 C 115.09375 161.503906 114.902344 161.40625 114.652344 160.996094 C 114.539062 160.996094 114.574219 161.023438 114.574219 160.898438 L 114.574219 160.808594 C 114.464844 160.671875 114.527344 160.855469 114.492188 160.585938 C 114.484375 160.523438 114.492188 160.339844 114.492188 160.265625 C 114.324219 159.542969 113.800781 159.460938 113.226562 159.160156 L 113.144531 159.082031 C 112.890625 158.90625 112.78125 158.699219 112.433594 158.609375 L 112.351562 158.527344 C 112.101562 158.40625 111.777344 158.289062 111.402344 158.292969 L 110.691406 158.292969 C 110.300781 158.289062 110.355469 158.355469 110.050781 158.367188 C 109.691406 158.375 109.800781 158.296875 109.421875 158.292969 C 109.210938 158.292969 108.90625 158.34375 108.808594 158.210938 C 108.46875 158.140625 108.519531 158.011719 108.207031 158.097656 C 108.191406 158.101562 107.953125 158.238281 107.949219 158.238281 C 107.785156 158.417969 107.871094 158.121094 107.839844 158.527344 L 107.839844 158.765625 C 107.863281 159.039062 107.898438 159.113281 107.917969 159.472656 C 107.941406 159.824219 108.019531 159.953125 108.0625 160.207031 C 108.191406 161.019531 107.808594 160.824219 107.523438 161.375 L 107.441406 161.453125 C 107.441406 162.136719 107.429688 162.210938 107.882812 162.511719 C 108.195312 162.71875 108.492188 162.894531 108.601562 163.304688 C 108.84375 164.214844 107.945312 164.902344 107.441406 165.167969 L 107.363281 165.246094 C 106.800781 165.542969 106.335938 165.804688 106.414062 166.742188 C 106.445312 167.121094 106.5625 167.34375 106.574219 167.777344 C 106.59375 168.316406 106.507812 168.480469 106.410156 168.882812 L 106.332031 168.960938 C 105.953125 169.539062 105.257812 169.691406 104.828125 169.039062 L 104.75 168.960938 C 104.542969 168.582031 104.480469 168.371094 104.367188 167.921875 C 104.296875 167.640625 104.199219 166.957031 104.195312 166.652344 L 104.109375 166.511719 C 104.046875 166.1875 103.75 165.726562 103.535156 165.511719 C 103.445312 165.421875 103.175781 165.234375 103.082031 165.167969 C 102.902344 165.054688 102.777344 164.953125 102.53125 164.933594 L 102.449219 164.851562 C 102.066406 164.851562 102.109375 164.785156 101.8125 164.777344 C 101.472656 164.765625 101.503906 164.851562 101.101562 164.851562 L 101.027344 164.929688 L 100.839844 164.929688 C 100.679688 165.066406 100.351562 165.054688 100.15625 164.929688 L 99.757812 164.933594 L 99.535156 164.851562 C 98.96875 164.851562 98.765625 164.691406 98.253906 164.691406 L 98.105469 164.617188 C 97.746094 164.585938 97.015625 164.28125 96.746094 164.136719 L 96.671875 164.0625 C 96.40625 163.886719 95.832031 163.152344 95.691406 162.824219 C 95.578125 162.554688 95.476562 162.277344 95.472656 161.925781 C 95.464844 161.429688 95.605469 161.300781 95.640625 160.898438 L 95.71875 160.808594 L 95.714844 160.742188 L 95.796875 160.660156 C 95.855469 160.554688 95.894531 160.453125 95.957031 160.347656 C 96.054688 160.195312 96.09375 160.179688 96.183594 160.027344 C 96.183594 159.914062 96.15625 159.941406 96.273438 159.941406 C 96.40625 159.757812 96.449219 159.742188 96.511719 159.476562 C 96.511719 159.355469 96.476562 159.382812 96.589844 159.382812 L 96.589844 159.316406 L 96.667969 159.242188 C 96.734375 158.953125 96.761719 158.921875 96.96875 158.75 C 97.113281 158.632812 97.289062 158.496094 97.460938 158.449219 L 97.539062 158.371094 L 97.605469 158.367188 L 97.699219 158.289062 C 98.085938 158.257812 98.082031 158.132812 98.539062 158.132812 C 98.539062 158.011719 98.511719 158.050781 98.648438 158.050781 C 99.046875 158.046875 99.25 157.898438 99.597656 157.816406 L 99.679688 157.738281 C 100.105469 157.632812 100.980469 157.09375 101.183594 156.789062 C 101.128906 156.554688 101.195312 156.671875 101.027344 156.554688 L 100.867188 156.554688 L 100.707031 156.550781 L 100.867188 156.472656 C 101.582031 155.851562 101.757812 155.195312 102.25 155.101562 C 102.660156 155.023438 102.8125 155.398438 103.285156 155.257812 C 103.570312 155.171875 103.464844 155.089844 103.753906 155.003906 C 103.957031 154.941406 104.207031 154.96875 104.429688 154.96875 L 104.511719 154.890625 L 104.578125 154.890625 L 104.671875 154.8125 C 104.828125 154.726562 104.8125 154.742188 104.960938 154.628906 C 105.164062 154.46875 105.007812 154.496094 105.300781 154.417969 L 105.382812 154.339844 C 105.84375 154.226562 105.714844 153.722656 105.433594 153.496094 C 105.136719 153.265625 104.925781 153.003906 104.671875 152.835938 L 104.578125 152.757812 L 104.433594 152.753906 C 104.304688 152.753906 104.328125 152.789062 104.328125 152.675781 L 103.894531 152.675781 L 103.796875 152.753906 C 103.488281 152.828125 103.472656 152.925781 103.152344 152.992188 L 103.003906 153.082031 C 102.183594 153.261719 103.097656 153.960938 102.03125 154.179688 L 101.898438 154.269531 C 101.316406 154.25 101.402344 154.472656 100.789062 154.179688 C 101.019531 153.863281 101.140625 154.105469 101.1875 153.625 L 101.1875 153.546875 C 101.136719 153.054688 100.714844 153.101562 100.378906 153.210938 C 100.007812 153.332031 99.957031 153.519531 99.597656 153.703125 L 99.441406 153.542969 L 99.359375 153.46875 L 99.285156 153.390625 C 99.085938 153.21875 98.957031 153.132812 98.574219 153.144531 C 98.226562 153.152344 98.058594 153.230469 97.871094 153.402344 C 97.382812 153.851562 97.742188 154.101562 96.984375 154.496094 L 96.90625 154.570312 L 96.589844 154.890625 L 96.515625 154.972656 L 96.429688 155.046875 C 96.296875 155.300781 96.207031 155.460938 95.957031 155.601562 C 95.566406 155.824219 95.507812 155.714844 95.085938 155.683594 C 94.964844 155.683594 94.992188 155.714844 94.992188 155.601562 C 94.570312 155.496094 94.628906 155.445312 94.054688 155.445312 L 93.816406 155.445312 C 92.84375 155.445312 92.78125 155.78125 92.136719 155.917969 L 91.996094 156.003906 C 91.664062 156 91.402344 156.113281 91.113281 156.144531 C 90.792969 156.179688 90.347656 156.15625 90.011719 156.15625 L 89.933594 156.230469 L 89.640625 156.234375 L 89.460938 156.3125 C 88.71875 156.375 88.363281 156.875 87.714844 157.023438 L 87.636719 157.101562 C 87.269531 157.191406 87.097656 157.332031 86.664062 157.339844 L 86.527344 157.433594 C 86.171875 157.417969 86.117188 157.507812 85.820312 157.578125 L 85.738281 157.660156 L 85.527344 157.660156 L 85.417969 157.734375 C 85.050781 157.75 84.886719 157.863281 84.542969 157.894531 C 84.488281 157.898438 84.121094 157.902344 84.074219 157.894531 L 84.054688 157.890625 C 79.527344 161.75 75.660156 166.355469 72.640625 171.515625 C 72.75 171.566406 72.863281 171.675781 72.984375 171.871094 L 73.054688 171.96875 C 73.117188 172.1875 73.167969 172.382812 73.21875 172.601562 L 73.296875 172.679688 C 73.335938 173.046875 73.445312 173.050781 73.535156 173.355469 C 73.65625 173.355469 73.617188 173.332031 73.617188 173.46875 L 74.011719 174.246094 C 74.125 174.246094 74.089844 174.21875 74.089844 174.339844 C 74.171875 174.679688 74.371094 174.949219 74.40625 175.347656 L 74.484375 175.445312 C 74.507812 176.078125 74.722656 176.496094 74.636719 177.332031 C 74.613281 177.554688 74.527344 177.933594 74.457031 178.179688 C 74.351562 178.550781 74.203125 178.648438 74.167969 179.003906 L 74.089844 179.078125 C 74.0625 179.425781 73.957031 179.453125 73.941406 179.792969 L 73.855469 180.007812 L 73.867188 180.1875 L 73.773438 180.320312 C 73.773438 180.714844 73.710938 180.738281 73.695312 181.136719 C 73.679688 181.519531 73.613281 181.632812 73.613281 181.929688 L 73.773438 183.53125 L 73.871094 183.667969 L 73.855469 183.847656 L 73.9375 184.0625 C 73.957031 184.402344 74.0625 184.433594 74.089844 184.773438 L 74.167969 184.851562 C 74.199219 185.191406 74.371094 185.378906 74.40625 185.78125 L 74.484375 185.878906 C 74.488281 186.148438 74.527344 186.25 74.554688 186.453125 C 74.59375 186.71875 74.589844 186.886719 74.601562 186.996094 C 74.648438 187.449219 74.773438 187.625 75.121094 187.859375 L 75.203125 187.9375 C 75.800781 188.078125 76.648438 188.546875 76.707031 189.191406 C 76.746094 189.257812 76.742188 189.234375 76.777344 189.363281 C 76.785156 189.386719 76.785156 189.472656 76.785156 189.515625 C 76.789062 190.191406 76.867188 190.632812 77.074219 191.125 C 77.222656 191.46875 77.261719 191.429688 77.472656 191.675781 C 77.644531 191.875 77.777344 192.0625 77.894531 192.285156 L 77.972656 192.363281 C 78.15625 194.566406 78.046875 193.53125 78.867188 194.316406 C 79.117188 194.558594 79.160156 194.589844 79.320312 194.894531 L 79.398438 194.972656 C 79.460938 195.65625 79.71875 196.203125 80.09375 196.730469 L 80.269531 196.949219 L 80.355469 197.027344 L 80.746094 197.425781 L 80.824219 197.5 C 80.941406 197.558594 80.890625 197.585938 81.039062 197.539062 C 81.375 197.4375 81.136719 197.570312 81.222656 197.34375 L 81.222656 197.1875 C 81.078125 196.976562 80.886719 196.765625 80.746094 196.550781 L 80.671875 196.472656 L 80.667969 196.394531 L 80.585938 196.316406 C 80.507812 196.152344 80.449219 196.003906 80.429688 195.773438 L 80.351562 195.683594 L 80.351562 195.277344 L 80.269531 195.050781 C 80.246094 194.765625 80.171875 194.675781 80.113281 194.417969 L 80.03125 194.339844 L 80.03125 194.28125 L 79.957031 194.183594 C 79.84375 193.726562 79.34375 192.988281 79.003906 192.757812 L 78.925781 192.679688 L 78.84375 192.605469 C 78.730469 192.605469 78.757812 192.632812 78.757812 192.523438 C 78.625 192.304688 78.402344 192 78.367188 191.679688 C 78.25 191.679688 78.289062 191.707031 78.289062 191.574219 C 78.285156 191.28125 78.1875 190.988281 78.164062 190.675781 C 78.15625 190.535156 78.15625 190.4375 78.199219 190.300781 C 78.285156 190.007812 78.242188 190.070312 78.4375 189.992188 C 78.449219 189.976562 78.632812 189.707031 78.632812 189.992188 C 78.902344 190.078125 78.996094 190.34375 79.003906 190.6875 L 79.078125 190.78125 L 79.082031 190.933594 L 79.160156 191.019531 L 79.320312 191.550781 C 79.433594 191.550781 79.398438 191.523438 79.398438 191.652344 C 79.46875 191.949219 79.796875 192.402344 79.953125 192.667969 C 80.066406 192.667969 80.035156 192.644531 80.035156 192.757812 C 80.230469 193.058594 80.269531 193.105469 80.527344 193.371094 C 80.664062 193.507812 80.917969 193.820312 81.011719 193.996094 C 81.464844 194.808594 80.785156 194.652344 81.855469 195.367188 L 81.933594 195.449219 L 82.011719 195.527344 L 82.488281 196 L 82.570312 196.078125 L 82.65625 196.15625 C 82.820312 196.433594 83.042969 196.671875 83.226562 197 C 83.386719 197.285156 83.613281 197.6875 83.675781 198.003906 L 83.773438 198.132812 C 83.769531 198.476562 83.90625 198.632812 83.914062 199 L 83.996094 199.085938 C 83.996094 199.734375 84.289062 200.25 84.605469 200.605469 C 84.898438 200.933594 85.414062 201.363281 85.894531 201.445312 L 86.039062 201.535156 C 86.207031 201.605469 86.503906 201.730469 86.6875 201.773438 L 86.777344 201.851562 C 87.007812 201.90625 87.003906 201.953125 87.242188 202.015625 L 87.335938 202.085938 C 87.621094 202.160156 87.65625 202.257812 87.957031 202.324219 L 88.035156 202.402344 L 89.0625 202.878906 L 89.144531 202.957031 C 89.324219 203.054688 89.46875 203.132812 89.628906 203.261719 C 89.84375 203.433594 89.816406 203.464844 90.089844 203.59375 C 90.648438 203.859375 90.878906 203.71875 91.445312 203.589844 L 91.597656 203.511719 L 92.390625 203.511719 C 92.527344 203.511719 92.503906 203.472656 92.503906 203.589844 L 92.867188 203.742188 L 92.945312 203.828125 L 93.109375 203.984375 C 93.246094 204.265625 93.332031 204.445312 93.5 204.699219 L 93.578125 204.777344 L 93.667969 204.847656 L 93.742188 204.933594 L 93.8125 205.011719 C 94.046875 205.164062 94.007812 205.203125 94.300781 205.320312 C 94.484375 205.394531 94.707031 205.46875 94.925781 205.488281 L 95.113281 205.566406 L 95.242188 205.546875 L 95.375 205.644531 C 95.792969 205.65625 95.945312 205.792969 96.351562 205.804688 L 96.429688 205.882812 C 96.949219 205.925781 97.332031 206.253906 97.777344 206.359375 L 97.855469 206.4375 C 98.0625 206.574219 98.078125 206.570312 98.246094 206.761719 C 98.390625 206.929688 98.425781 206.960938 98.492188 207.203125 C 98.605469 207.203125 98.570312 207.175781 98.570312 207.304688 C 98.632812 207.570312 98.734375 207.714844 98.808594 208.011719 L 98.882812 208.097656 C 98.917969 208.445312 99 208.601562 99.175781 208.835938 C 99.347656 209.0625 99.464844 209.203125 99.757812 209.285156 L 99.839844 209.359375 L 99.917969 209.363281 L 99.996094 209.441406 C 100.15625 209.523438 100.183594 209.550781 100.390625 209.601562 L 100.46875 209.679688 C 100.902344 209.777344 101.148438 210.042969 101.578125 210.15625 L 101.652344 210.230469 C 101.84375 210.328125 101.980469 210.414062 102.214844 210.46875 L 102.292969 210.546875 C 102.554688 210.609375 102.964844 210.832031 103.21875 210.964844 C 103.5625 211.148438 103.664062 211.476562 104.035156 211.574219 L 104.195312 211.574219 C 104.484375 211.496094 104.359375 211.488281 104.589844 211.335938 C 104.589844 210.695312 104.53125 210.300781 105.152344 210.230469 C 105.546875 210.1875 106.148438 210.398438 106.253906 210.78125 L 106.332031 210.863281 C 106.328125 211.132812 106.300781 211.253906 106.160156 211.402344 C 105.992188 211.585938 105.929688 211.539062 105.679688 211.632812 C 105.160156 211.824219 105.285156 212.113281 104.699219 212.128906 L 104.511719 212.207031 C 104.179688 212.296875 104.042969 212.503906 104.039062 212.921875 L 103.957031 213 C 103.902344 213.230469 103.816406 213.367188 103.71875 213.550781 L 103.640625 213.628906 C 103.4375 213.933594 103.222656 214.050781 103.007812 214.421875 C 102.851562 214.699219 102.597656 215.121094 102.628906 215.527344 L 102.53125 215.660156 L 102.53125 216.699219 L 102.613281 216.871094 L 102.628906 218.136719 L 102.53125 218.265625 L 102.53125 218.453125 C 102.53125 218.574219 102.5625 218.546875 102.453125 218.546875 C 102.402344 218.734375 102.371094 218.777344 102.292969 218.925781 L 102.214844 219.007812 C 101.980469 219.351562 101.679688 219.5 101.4375 219.890625 C 101.402344 219.953125 101.316406 220.109375 101.289062 220.136719 C 101.023438 220.425781 100.679688 220.160156 100.554688 220.667969 L 100.472656 220.75 L 100.472656 221.050781 C 100.53125 221.136719 100.511719 221.054688 100.523438 221.203125 C 100.53125 221.316406 100.605469 221.296875 100.472656 221.296875 C 100.453125 222.128906 99.753906 222.175781 99.941406 222.847656 C 100.015625 223.113281 100.121094 223.171875 100.390625 223.195312 L 100.472656 223.273438 L 100.550781 223.277344 L 100.632812 223.347656 L 100.714844 223.433594 C 100.6875 223.96875 100.359375 224.03125 99.996094 224.222656 L 99.917969 224.304688 C 99.808594 224.464844 99.652344 224.628906 99.796875 224.96875 C 99.945312 225.316406 100.066406 225.003906 100.074219 225.570312 L 99.996094 225.644531 L 99.996094 225.960938 L 100.152344 226.125 L 100.230469 226.199219 C 100.445312 226.25 100.460938 226.269531 100.628906 226.359375 L 100.714844 226.4375 C 101.117188 226.722656 101.515625 226.980469 101.832031 227.371094 C 102.074219 227.675781 102.433594 228.316406 102.53125 228.730469 L 102.609375 228.808594 C 102.671875 229.082031 102.953125 229.597656 103.085938 229.835938 C 103.183594 230 103.300781 230.152344 103.398438 230.316406 C 103.527344 230.53125 103.597656 230.601562 103.71875 230.789062 L 103.796875 230.867188 C 104.40625 231.753906 105.210938 232.546875 106.097656 233.160156 L 106.175781 233.234375 C 106.519531 233.46875 106.636719 233.582031 107.046875 233.785156 L 107.125 233.867188 L 107.757812 234.183594 C 107.898438 234.183594 107.875 234.144531 107.875 234.261719 C 108.132812 234.339844 108.1875 234.433594 108.472656 234.503906 L 108.558594 234.582031 C 109.136719 234.722656 109.769531 235.578125 109.820312 236.265625 C 109.988281 236.464844 109.898438 237.476562 109.898438 237.820312 L 109.847656 239.375 C 109.847656 239.363281 109.828125 239.414062 109.820312 239.433594 L 109.820312 239.796875 L 109.742188 239.878906 C 109.730469 240.285156 109.617188 240.300781 109.574219 240.667969 L 109.5 240.742188 C 109.445312 240.992188 109.402344 240.972656 109.34375 241.21875 L 109.265625 241.300781 C 109.160156 241.511719 109.035156 241.859375 109.023438 242.167969 L 109.023438 243.039062 C 109.03125 243.433594 109.101562 243.4375 109.113281 243.828125 C 109.125 244.257812 109.027344 244.363281 109.035156 244.699219 L 108.949219 244.84375 C 108.847656 245.050781 108.769531 245.121094 108.703125 245.332031 L 108.628906 245.40625 C 108.5625 245.703125 108.503906 245.632812 108.46875 245.964844 L 108.394531 246.140625 L 108.390625 246.359375 L 108.3125 246.511719 L 108.3125 247.390625 L 108.390625 247.546875 L 108.394531 247.753906 L 108.472656 247.941406 C 108.53125 248.191406 108.605469 248.289062 108.628906 248.5625 L 108.710938 248.730469 C 108.710938 249.234375 108.796875 249.191406 108.726562 249.613281 C 108.6875 249.855469 108.636719 249.980469 108.585938 250.113281 C 110.234375 250.425781 111.910156 250.660156 113.605469 250.8125 C 113.566406 250.535156 113.519531 250.679688 113.621094 250.234375 C 113.621094 250.09375 113.578125 250.117188 113.699219 250.117188 C 114.117188 249.691406 114.542969 249.066406 115.347656 249.046875 L 115.523438 248.972656 C 115.90625 248.964844 115.949219 248.9375 116.195312 248.769531 C 116.492188 248.5625 116.472656 248.554688 116.632812 248.257812 L 116.710938 248.179688 L 116.785156 248.019531 L 116.871094 247.941406 L 117.027344 247.785156 L 117.394531 247.625 C 117.394531 247.507812 117.371094 247.546875 117.503906 247.546875 L 117.65625 247.546875 C 117.714844 247.511719 117.695312 247.503906 117.824219 247.476562 L 118.332031 247.519531 C 118.339844 247.503906 118.363281 247.535156 118.382812 247.546875 L 118.53125 247.546875 C 118.664062 247.546875 118.640625 247.507812 118.640625 247.625 L 119.324219 247.625 L 119.40625 247.546875 C 119.972656 247.5 120.214844 247.039062 120.480469 246.640625 C 120.742188 246.257812 121.203125 245.925781 121.691406 245.804688 L 121.78125 245.730469 C 122.019531 245.671875 122.011719 245.628906 122.25 245.570312 L 122.335938 245.488281 C 122.628906 245.410156 122.4375 245.410156 122.734375 245.332031 L 122.8125 245.257812 C 123.019531 245.140625 123.15625 245.046875 123.363281 244.9375 L 123.445312 244.851562 C 124.246094 244.359375 125.140625 243.433594 125.660156 242.644531 L 125.738281 242.558594 L 125.820312 242.480469 C 125.941406 242.40625 126.011719 242.347656 126.152344 242.265625 C 126.320312 242.167969 126.375 242.167969 126.535156 242.089844 L 126.613281 242.011719 C 126.910156 241.933594 126.933594 241.84375 127.015625 241.539062 L 127.089844 241.425781 L 127.085938 240.667969 L 127.167969 240.582031 C 127.191406 240.324219 127.234375 240.292969 127.324219 240.113281 L 127.40625 240.035156 L 127.722656 239.71875 L 127.800781 239.636719 L 127.953125 239.558594 L 128.039062 239.480469 L 128.105469 239.484375 L 128.199219 239.40625 C 128.464844 239.339844 128.582031 239.25 128.910156 239.246094 L 128.988281 239.167969 L 129.160156 239.164062 L 129.308594 239.085938 C 129.644531 239.058594 129.683594 238.957031 130.019531 238.929688 L 130.097656 238.851562 C 130.421875 238.773438 130.597656 238.621094 131.027344 238.613281 C 131.140625 238.550781 130.921875 238.601562 131.210938 238.542969 C 131.261719 238.53125 131.390625 238.535156 131.445312 238.535156 C 132.210938 238.527344 132.328125 238.457031 132.789062 238.136719 L 132.875 238.058594 L 132.949219 237.984375 L 133.023438 237.898438 L 133.109375 237.820312 C 133.253906 237.605469 133.398438 237.449219 133.421875 237.109375 C 133.421875 236.984375 133.386719 237.011719 133.503906 237.011719 C 133.550781 236.839844 133.59375 236.703125 133.664062 236.558594 C 133.664062 236.429688 133.628906 236.453125 133.742188 236.453125 C 133.898438 236.214844 134 236.128906 134.140625 235.925781 L 134.21875 235.839844 C 134.328125 235.683594 134.429688 235.53125 134.535156 235.371094 C 134.535156 235.246094 134.5 235.273438 134.613281 235.273438 C 134.757812 235.039062 135.101562 234.527344 135.167969 234.261719 C 135.167969 234.125 135.128906 234.152344 135.246094 234.152344 C 135.308594 233.945312 135.351562 233.941406 135.40625 233.710938 C 135.40625 233.570312 135.363281 233.59375 135.484375 233.59375 L 135.488281 233.472656 L 135.5625 233.394531 C 135.625 233.136719 135.699219 233.046875 135.722656 232.761719 L 135.800781 232.605469 C 135.832031 232.234375 135.953125 232.003906 135.96875 231.574219 C 135.96875 231.507812 135.964844 231.414062 135.972656 231.34375 C 135.996094 231.195312 135.996094 231.257812 136.039062 231.183594 L 136.039062 231.023438 L 136.121094 230.863281 C 136.164062 230.671875 136.203125 230.546875 136.277344 230.390625 L 136.355469 230.304688 L 136.4375 230.152344 L 136.507812 230.070312 L 136.597656 229.996094 L 136.671875 229.921875 C 137.054688 229.652344 137.195312 229.375 137.65625 229.078125 C 138.230469 228.703125 138.253906 228.691406 138.578125 228.097656 L 138.65625 228.007812 C 138.738281 227.671875 138.882812 227.464844 138.890625 227.070312 C 138.890625 226.6875 138.890625 226.914062 138.972656 226.828125 L 138.972656 225.523438 C 138.851562 225.523438 138.890625 225.550781 138.890625 225.410156 L 138.8125 225.257812 L 138.730469 225.171875 L 138.65625 225.09375 L 138.570312 225.015625 C 138.46875 224.953125 138.488281 224.964844 138.335938 224.933594 C 138.144531 224.933594 137.898438 224.980469 137.808594 224.855469 C 137.144531 224.84375 136.96875 224.625 136.574219 224.324219 C 136.296875 224.117188 135.738281 223.773438 135.328125 223.757812 L 135.1875 223.667969 C 134.785156 223.664062 134.457031 223.523438 134.058594 223.507812 L 133.894531 223.433594 L 133.742188 223.433594 C 133.613281 223.433594 133.636719 223.46875 133.636719 223.355469 C 133.25 223.316406 132.347656 222.949219 132.027344 222.773438 C 131.585938 222.539062 131.058594 222.125 130.574219 222.007812 C 130.441406 222.007812 130.464844 222.046875 130.464844 221.933594 L 129.941406 221.773438 C 129.816406 221.773438 129.839844 221.808594 129.839844 221.695312 L 129.703125 221.695312 C 129.570312 221.695312 129.59375 221.734375 129.59375 221.613281 C 129.265625 221.582031 129.128906 221.460938 128.75 221.464844 L 128.53125 221.378906 C 128.136719 221.371094 127.847656 221.292969 127.324219 221.300781 C 126.71875 221.308594 126.46875 221.417969 126.453125 220.824219 L 126.535156 220.742188 C 126.929688 219.941406 126.054688 219.992188 125.980469 219.183594 L 125.90625 219.085938 L 125.902344 219.003906 L 125.820312 218.847656 C 125.644531 218.066406 124.871094 217.378906 124.238281 217.027344 L 124.15625 216.949219 C 123.972656 216.851562 123.949219 216.816406 123.683594 216.792969 L 123.601562 216.710938 C 123.015625 216.664062 122.828125 216.46875 122.0625 216.597656 C 121.027344 216.777344 120.433594 216.597656 119.621094 215.789062 C 119.144531 215.308594 119.207031 215.054688 118.851562 214.816406 L 118.765625 214.738281 C 118.558594 214.621094 118.429688 214.527344 118.136719 214.496094 C 118.0625 214.496094 117.96875 214.5 117.898438 214.488281 C 117.5625 214.441406 117.859375 214.496094 117.714844 214.421875 C 117.441406 214.414062 117.292969 214.347656 117.109375 214.269531 L 117.027344 214.1875 L 116.949219 214.105469 C 116.820312 213.839844 116.78125 213.507812 116.523438 213.34375 C 116.40625 213.265625 115.773438 213.089844 115.601562 213.074219 L 115.523438 212.996094 C 115.359375 212.890625 115.277344 212.816406 115.046875 212.757812 L 114.972656 212.679688 C 114.613281 212.679688 114.214844 212.652344 113.910156 212.730469 C 113.398438 212.867188 113.515625 212.882812 112.988281 212.761719 L 112.90625 212.679688 C 112.746094 212.574219 112.695312 212.539062 112.511719 212.445312 C 112.390625 212.445312 112.414062 212.480469 112.414062 212.363281 C 112.257812 212.324219 111.871094 212.226562 111.71875 212.226562 C 111.5 212.226562 111.28125 212.34375 111.007812 212.363281 C 110.925781 212.492188 111.003906 212.492188 110.921875 212.363281 C 110.5625 212.335938 110.5625 212.164062 110.296875 211.96875 C 110.089844 211.8125 109.84375 211.675781 109.5 211.652344 C 108.742188 211.597656 108.402344 211.988281 108.152344 212.445312 L 108.074219 212.539062 L 108.074219 212.839844 L 107.996094 212.921875 L 107.996094 213.070312 L 108.078125 213.15625 L 108.074219 213.550781 C 107.890625 213.546875 107.710938 213.582031 107.476562 213.277344 C 107.371094 213.140625 107.410156 213.257812 107.363281 213.046875 L 107.269531 212.921875 C 107.300781 212.457031 107.207031 212.335938 107.203125 211.890625 C 107.199219 211.429688 107.132812 211.210938 107.125 210.863281 L 107.050781 210.785156 C 106.996094 210.566406 106.917969 210.40625 106.796875 210.246094 C 106.628906 210.023438 106.765625 210.183594 106.605469 210.039062 C 106.492188 209.941406 106.441406 209.90625 106.332031 209.835938 L 106.253906 209.757812 L 106.175781 209.757812 C 106.054688 209.757812 106.078125 209.789062 106.078125 209.679688 C 105.886719 209.628906 105.875 209.605469 105.621094 209.597656 L 104.828125 209.597656 C 104.496094 209.625 104.566406 209.6875 104.269531 209.757812 L 104.195312 209.832031 C 103.601562 209.980469 103.394531 210.136719 102.769531 209.835938 L 102.6875 209.757812 C 102.210938 209.4375 102.21875 209.445312 101.898438 208.964844 L 101.816406 208.886719 C 101.703125 208.667969 101.644531 208.53125 101.578125 208.257812 L 101.5 208.175781 C 101.5 207.59375 101.367188 207.375 101.476562 206.726562 C 101.582031 206.109375 101.660156 206.003906 101.660156 205.265625 C 101.546875 205.265625 101.578125 205.292969 101.578125 205.171875 C 101.554688 204.855469 101.449219 204.722656 101.289062 204.511719 C 101.085938 204.242188 101.050781 204.238281 100.789062 204.066406 L 100.707031 203.984375 C 100.378906 203.90625 100.492188 203.835938 100.074219 203.828125 L 98.410156 203.828125 C 98.292969 203.824219 98.308594 203.828125 98.199219 203.800781 C 98.1875 203.800781 98.15625 203.800781 98.148438 203.78125 C 98.140625 203.757812 98.117188 203.757812 98.105469 203.75 L 97.9375 203.75 L 97.855469 203.667969 C 97.199219 203.515625 97.160156 202.925781 97.226562 202.089844 C 97.25 201.824219 97.324219 201.414062 97.394531 201.15625 C 97.476562 200.855469 97.628906 200.558594 97.703125 200.269531 L 97.777344 200.191406 C 97.949219 199.867188 98.035156 199.761719 98.265625 199.492188 C 98.523438 199.175781 98.597656 199.148438 98.492188 198.6875 C 97.722656 198.507812 96.9375 198.625 96.25 198.765625 L 96.113281 198.867188 C 95.71875 198.921875 95.488281 199.238281 95.40625 199.636719 C 95.40625 199.8125 95.449219 199.921875 95.320312 200 C 95.292969 200.390625 95.183594 200.675781 95.011719 200.90625 C 94.835938 201.140625 94.5625 201.347656 94.183594 201.375 C 94.042969 201.5 94.050781 201.457031 93.816406 201.457031 L 93.023438 201.457031 C 92.910156 201.457031 92.910156 201.457031 92.800781 201.433594 C 92.789062 201.429688 92.753906 201.433594 92.742188 201.410156 C 92.734375 201.386719 92.710938 201.386719 92.691406 201.375 C 91.753906 201.375 90.941406 200.75 90.570312 200.191406 L 90.492188 200.113281 C 90.308594 199.84375 90.179688 199.714844 90.015625 199.402344 L 89.933594 199.320312 L 89.617188 198.632812 C 89.503906 198.632812 89.539062 198.65625 89.539062 198.53125 C 89.480469 198.28125 89.402344 197.988281 89.378906 197.707031 L 89.289062 197.5 L 89.300781 196.316406 L 89.378906 196.148438 C 89.457031 195.285156 90.15625 195.195312 90.171875 194.261719 C 90.171875 194.132812 90.136719 194.160156 90.253906 194.160156 L 90.253906 194.023438 L 90.332031 193.9375 L 90.410156 193.628906 L 90.488281 193.539062 L 90.496094 193.46875 L 90.570312 193.394531 C 90.890625 192.773438 91.375 192.296875 91.996094 191.96875 L 92.074219 191.890625 C 92.324219 191.832031 92.300781 191.789062 92.554688 191.730469 L 92.628906 191.65625 L 92.699219 191.652344 L 92.867188 191.582031 C 93.320312 191.523438 93.488281 191.410156 94.050781 191.410156 C 94.488281 191.410156 94.929688 191.414062 95.367188 191.414062 L 95.558594 191.335938 C 95.917969 191.328125 95.980469 191.246094 96.277344 191.179688 L 96.351562 191.101562 C 96.605469 191.035156 96.847656 190.902344 97.050781 190.78125 L 97.144531 190.703125 C 97.988281 190.25 98.535156 190.160156 99.441406 190.621094 L 99.527344 190.703125 C 100.035156 191.0625 100.089844 190.914062 100.710938 190.863281 L 100.789062 190.785156 L 101.34375 190.78125 L 101.421875 190.863281 C 101.722656 191.019531 101.882812 191.191406 101.976562 191.554688 L 102.050781 191.652344 C 102.15625 192.058594 102.214844 192.148438 102.214844 192.671875 L 102.289062 192.757812 L 102.292969 192.921875 L 102.367188 192.996094 C 102.402344 193.304688 102.644531 193.792969 102.769531 194.023438 L 102.847656 194.101562 C 103.113281 194.597656 103.34375 194.828125 103.796875 195.128906 L 103.890625 195.210938 C 104.234375 195.203125 104.3125 195.105469 104.511719 194.972656 L 104.511719 193.542969 L 104.429688 193.390625 L 104.433594 193.105469 L 104.351562 192.917969 C 104.347656 192.597656 104.257812 192.394531 104.195312 192.121094 L 104.121094 192.046875 C 104.09375 191.792969 103.964844 191.441406 103.878906 191.246094 L 103.796875 191.097656 C 103.769531 190.691406 103.640625 190.714844 103.640625 190.183594 L 103.5625 189.992188 L 103.5625 189.753906 C 103.5625 189.4375 103.582031 189.578125 103.640625 189.507812 C 103.648438 189.226562 103.707031 189.074219 103.796875 188.886719 L 103.878906 188.804688 C 104.046875 188.554688 104.269531 188.300781 104.53125 188.113281 C 104.753906 187.953125 105.144531 187.746094 105.382812 187.621094 L 105.460938 187.542969 C 106.160156 187.066406 106.761719 186.523438 107.195312 185.800781 C 107.195312 185.6875 107.167969 185.71875 107.285156 185.71875 C 107.460938 185.398438 107.75 185.003906 107.839844 184.617188 L 107.917969 184.53125 C 107.992188 184.222656 108.140625 183.988281 108.140625 183.667969 Z M 100.707031 156.550781 C 100.605469 156.640625 100.621094 156.65625 100.441406 156.695312 C 100.0625 156.773438 100.191406 156.699219 100.21875 156.628906 L 100.3125 156.550781 L 100.707031 156.550781 " clip-rule="nonzero"/></clipPath><radialGradient gradientTransform="matrix(1.001003, 0, 0, 0.998997, 101.542971, 180.412686)" gradientUnits="userSpaceOnUse" r="70.528169" cx="0" id="894a9c153b" cy="0" fx="0" fy="0"><stop stop-opacity="1" stop-color="rgb(99.804688%, 99.804688%, 99.804688%)" offset="0"/><stop stop-opacity="1" stop-color="rgb(99.539185%, 99.539185%, 99.539185%)" offset="0.015625"/><stop stop-opacity="1" stop-color="rgb(99.334717%, 99.334717%, 99.334717%)" offset="0.0195312"/><stop stop-opacity="1" stop-color="rgb(99.133301%, 99.133301%, 99.133301%)" offset="0.03125"/><stop stop-opacity="1" stop-color="rgb(98.933411%, 98.933411%, 98.933411%)" offset="0.0429688"/><stop stop-opacity="1" stop-color="rgb(98.736572%, 98.736572%, 98.736572%)" offset="0.0546875"/><stop stop-opacity="1" stop-color="rgb(98.603821%, 98.603821%, 98.603821%)" offset="0.0664062"/><stop stop-opacity="1" stop-color="rgb(98.461914%, 98.461914%, 98.461914%)" offset="0.0703125"/><stop stop-opacity="1" stop-color="rgb(98.196411%, 98.196411%, 98.196411%)" offset="0.0742188"/><stop stop-opacity="1" stop-color="rgb(97.999573%, 97.999573%, 97.999573%)" offset="0.0859375"/><stop stop-opacity="1" stop-color="rgb(97.93396%, 97.93396%, 97.93396%)" offset="0.0976562"/><stop stop-opacity="1" stop-color="rgb(97.73407%, 97.73407%, 97.73407%)" offset="0.101562"/><stop stop-opacity="1" stop-color="rgb(97.549438%, 97.549438%, 97.549438%)" offset="0.113281"/><stop stop-opacity="1" stop-color="rgb(97.337341%, 97.337341%, 97.337341%)" offset="0.125"/><stop stop-opacity="1" stop-color="rgb(97.036743%, 97.036743%, 97.036743%)" offset="0.136719"/><stop stop-opacity="1" stop-color="rgb(96.829224%, 96.829224%, 96.829224%)" offset="0.148438"/><stop stop-opacity="1" stop-color="rgb(96.629333%, 96.629333%, 96.629333%)" offset="0.160156"/><stop stop-opacity="1" stop-color="rgb(96.434021%, 96.434021%, 96.434021%)" offset="0.171875"/><stop stop-opacity="1" stop-color="rgb(96.296692%, 96.296692%, 96.296692%)" offset="0.183594"/><stop stop-opacity="1" stop-color="rgb(96.156311%, 96.156311%, 96.156311%)" offset="0.1875"/><stop stop-opacity="1" stop-color="rgb(95.892334%, 95.892334%, 95.892334%)" offset="0.191406"/><stop stop-opacity="1" stop-color="rgb(95.506287%, 95.506287%, 95.506287%)" offset="0.214844"/><stop stop-opacity="1" stop-color="rgb(95.301819%, 95.301819%, 95.301819%)" offset="0.226562"/><stop stop-opacity="1" stop-color="rgb(95.094299%, 95.094299%, 95.094299%)" offset="0.238281"/><stop stop-opacity="1" stop-color="rgb(94.703674%, 94.703674%, 94.703674%)" offset="0.25"/><stop stop-opacity="1" stop-color="rgb(94.424438%, 94.424438%, 94.424438%)" offset="0.261719"/><stop stop-opacity="1" stop-color="rgb(94.258118%, 94.258118%, 94.258118%)" offset="0.269531"/><stop stop-opacity="1" stop-color="rgb(94.094849%, 94.094849%, 94.094849%)" offset="0.277344"/><stop stop-opacity="1" stop-color="rgb(93.937683%, 93.937683%, 93.937683%)" offset="0.285156"/><stop stop-opacity="1" stop-color="rgb(93.782043%, 93.782043%, 93.782043%)" offset="0.292969"/><stop stop-opacity="1" stop-color="rgb(93.621826%, 93.621826%, 93.621826%)" offset="0.300781"/><stop stop-opacity="1" stop-color="rgb(93.457031%, 93.457031%, 93.457031%)" offset="0.308594"/><stop stop-opacity="1" stop-color="rgb(93.293762%, 93.293762%, 93.293762%)" offset="0.316406"/><stop stop-opacity="1" stop-color="rgb(93.136597%, 93.136597%, 93.136597%)" offset="0.324219"/><stop stop-opacity="1" stop-color="rgb(92.979431%, 92.979431%, 92.979431%)" offset="0.332031"/><stop stop-opacity="1" stop-color="rgb(92.819214%, 92.819214%, 92.819214%)" offset="0.339844"/><stop stop-opacity="1" stop-color="rgb(92.556763%, 92.556763%, 92.556763%)" offset="0.347656"/><stop stop-opacity="1" stop-color="rgb(92.190552%, 92.190552%, 92.190552%)" offset="0.367188"/><stop stop-opacity="1" stop-color="rgb(91.902161%, 91.902161%, 91.902161%)" offset="0.386719"/><stop stop-opacity="1" stop-color="rgb(91.699219%, 91.699219%, 91.699219%)" offset="0.402344"/><stop stop-opacity="1" stop-color="rgb(91.50238%, 91.50238%, 91.50238%)" offset="0.417969"/><stop stop-opacity="1" stop-color="rgb(91.300964%, 91.300964%, 91.300964%)" offset="0.425781"/><stop stop-opacity="1" stop-color="rgb(91.093445%, 91.093445%, 91.093445%)" offset="0.433594"/><stop stop-opacity="1" stop-color="rgb(90.794373%, 90.794373%, 90.794373%)" offset="0.441406"/><stop stop-opacity="1" stop-color="rgb(90.403748%, 90.403748%, 90.403748%)" offset="0.457031"/><stop stop-opacity="1" stop-color="rgb(90.19928%, 90.19928%, 90.19928%)" offset="0.472656"/><stop stop-opacity="1" stop-color="rgb(89.996338%, 89.996338%, 89.996338%)" offset="0.488281"/><stop stop-opacity="1" stop-color="rgb(89.605713%, 89.605713%, 89.605713%)" offset="0.503906"/><stop stop-opacity="1" stop-color="rgb(89.399719%, 89.399719%, 89.399719%)" offset="0.515625"/><stop stop-opacity="1" stop-color="rgb(89.193726%, 89.193726%, 89.193726%)" offset="0.527344"/><stop stop-opacity="1" stop-color="rgb(88.999939%, 88.999939%, 88.999939%)" offset="0.539062"/><stop stop-opacity="1" stop-color="rgb(88.807678%, 88.807678%, 88.807678%)" offset="0.550781"/><stop stop-opacity="1" stop-color="rgb(88.545227%, 88.545227%, 88.545227%)" offset="0.5625"/><stop stop-opacity="1" stop-color="rgb(88.336182%, 88.336182%, 88.336182%)" offset="0.566406"/><stop stop-opacity="1" stop-color="rgb(88.134766%, 88.134766%, 88.134766%)" offset="0.578125"/><stop stop-opacity="1" stop-color="rgb(87.88147%, 87.88147%, 87.88147%)" offset="0.589844"/><stop stop-opacity="1" stop-color="rgb(87.528992%, 87.528992%, 87.528992%)" offset="0.613281"/><stop stop-opacity="1" stop-color="rgb(87.193298%, 87.193298%, 87.193298%)" offset="0.625"/><stop stop-opacity="1" stop-color="rgb(86.938477%, 86.938477%, 86.938477%)" offset="0.636719"/><stop stop-opacity="1" stop-color="rgb(86.773682%, 86.773682%, 86.773682%)" offset="0.644531"/><stop stop-opacity="1" stop-color="rgb(86.497498%, 86.497498%, 86.497498%)" offset="0.652344"/><stop stop-opacity="1" stop-color="rgb(86.219788%, 86.219788%, 86.219788%)" offset="0.671875"/><stop stop-opacity="1" stop-color="rgb(86.018372%, 86.018372%, 86.018372%)" offset="0.679688"/><stop stop-opacity="1" stop-color="rgb(85.800171%, 85.800171%, 85.800171%)" offset="0.699219"/><stop stop-opacity="1" stop-color="rgb(85.604858%, 85.604858%, 85.604858%)" offset="0.714844"/><stop stop-opacity="1" stop-color="rgb(85.403442%, 85.403442%, 85.403442%)" offset="0.722656"/><stop stop-opacity="1" stop-color="rgb(85.195923%, 85.195923%, 85.195923%)" offset="0.730469"/><stop stop-opacity="1" stop-color="rgb(84.896851%, 84.896851%, 84.896851%)" offset="0.738281"/><stop stop-opacity="1" stop-color="rgb(84.700012%, 84.700012%, 84.700012%)" offset="0.753906"/><stop stop-opacity="1" stop-color="rgb(84.634399%, 84.634399%, 84.634399%)" offset="0.765625"/><stop stop-opacity="1" stop-color="rgb(84.498596%, 84.498596%, 84.498596%)" offset="0.769531"/><stop stop-opacity="1" stop-color="rgb(84.358215%, 84.358215%, 84.358215%)" offset="0.773438"/><stop stop-opacity="1" stop-color="rgb(84.092712%, 84.092712%, 84.092712%)" offset="0.777344"/><stop stop-opacity="1" stop-color="rgb(83.706665%, 83.706665%, 83.706665%)" offset="0.789062"/><stop stop-opacity="1" stop-color="rgb(83.44574%, 83.44574%, 83.44574%)" offset="0.8125"/><stop stop-opacity="1" stop-color="rgb(83.235168%, 83.235168%, 83.235168%)" offset="0.816406"/><stop stop-opacity="1" stop-color="rgb(82.899475%, 82.899475%, 82.899475%)" offset="0.824219"/><stop stop-opacity="1" stop-color="rgb(82.698059%, 82.698059%, 82.698059%)" offset="0.84375"/><stop stop-opacity="1" stop-color="rgb(82.546997%, 82.546997%, 82.546997%)" offset="0.863281"/><stop stop-opacity="1" stop-color="rgb(82.2052%, 82.2052%, 82.2052%)" offset="0.878906"/><stop stop-opacity="1" stop-color="rgb(81.999207%, 81.999207%, 81.999207%)" offset="0.890625"/><stop stop-opacity="1" stop-color="rgb(81.793213%, 81.793213%, 81.793213%)" offset="0.902344"/><stop stop-opacity="1" stop-color="rgb(81.402588%, 81.402588%, 81.402588%)" offset="0.914062"/><stop stop-opacity="1" stop-color="rgb(81.103516%, 81.103516%, 81.103516%)" offset="0.933594"/><stop stop-opacity="1" stop-color="rgb(80.830383%, 80.830383%, 80.830383%)" offset="0.941406"/><stop stop-opacity="1" stop-color="rgb(80.488586%, 80.488586%, 80.488586%)" offset="0.953125"/><stop stop-opacity="1" stop-color="rgb(80.157471%, 80.157471%, 80.157471%)" offset="0.964844"/><stop stop-opacity="1" stop-color="rgb(79.998779%, 79.998779%, 79.998779%)" offset="1"/></radialGradient></defs><rect x="-37.5" width="450" fill="#ffffff" y="-37.499999" height="449.999989" fill-opacity="1"/><rect x="-37.5" width="450" fill="#ffffff" y="-37.499999" height="449.999989" fill-opacity="1"/><rect x="-37.5" width="450" fill="#ffffff" y="-37.499999" height="449.999989" fill-opacity="1"/><g clip-path="url(#66825bcd3e)"><path fill="#39b54a" d="M 157.808594 132.425781 C 159.425781 108.945312 137.074219 99.027344 137.074219 99.027344 C 125.042969 123.246094 141.609375 139.980469 149.503906 146.1875 C 149.773438 146.453125 150.078125 146.695312 150.417969 146.90625 C 195.769531 175.03125 224.800781 133.421875 224.800781 133.421875 C 197.597656 112.5625 172.355469 122.609375 157.808594 132.425781 " fill-opacity="1" fill-rule="nonzero"/></g><path fill="#231f20" d="M 174.210938 109.609375 L 174.207031 109.605469 L 174.214844 109.609375 Z M 174.210938 109.609375 " fill-opacity="1" fill-rule="nonzero"/><g clip-path="url(#4fc3d99115)"><path fill="#009245" d="M 224.179688 132.949219 C 197.664062 113.066406 173.082031 122.371094 158.550781 131.949219 C 158.242188 132.152344 157.839844 131.917969 157.855469 131.554688 C 157.914062 130.242188 157.898438 128.972656 157.816406 127.742188 C 157.394531 123.691406 156.351562 119.441406 154.304688 115.339844 C 149.859375 106.890625 142.445312 101.960938 138.972656 100.007812 C 138.582031 99.796875 138.1875 99.585938 137.785156 99.378906 C 137.414062 99.625 137.5 99.570312 137.128906 99.816406 C 138.023438 111.300781 144.128906 128.285156 149.125 138.910156 C 149.195312 139.058594 149.179688 139.238281 149.078125 139.367188 C 148.328125 140.328125 147.972656 141.488281 147.996094 142.640625 C 148 142.847656 148.144531 143.023438 148.347656 143.070312 C 149.121094 143.242188 150.085938 143.390625 151.210938 143.511719 C 151.359375 143.527344 151.960938 143.5625 151.960938 143.5625 L 153.023438 143.714844 L 153.894531 143.761719 L 154.847656 143.804688 L 155.242188 143.804688 C 155.242188 143.804688 155.480469 143.796875 155.675781 143.804688 C 172.082031 144.390625 205.59375 141.328125 224.078125 133.726562 C 224.402344 133.59375 224.457031 133.160156 224.179688 132.949219 M 176.363281 198.222656 C 176.363281 230.425781 150.28125 256.53125 118.105469 256.53125 C 85.929688 256.53125 59.847656 230.425781 59.847656 198.222656 C 59.847656 166.023438 85.929688 139.917969 118.105469 139.917969 C 150.28125 139.917969 176.363281 166.023438 176.363281 198.222656 " fill-opacity="1" fill-rule="evenodd"/></g><path fill="#b2b2b2" d="M 157.882812 131.730469 C 157.863281 131.675781 157.855469 131.617188 157.855469 131.554688 C 157.914062 130.242188 157.898438 128.972656 157.816406 127.742188 C 157.8125 127.738281 157.8125 127.730469 157.8125 127.726562 C 157.785156 127.289062 157.746094 126.855469 157.699219 126.433594 C 157.707031 126.425781 157.71875 126.417969 157.726562 126.414062 C 157.914062 128.101562 157.976562 129.871094 157.882812 131.730469 " fill-opacity="1" fill-rule="nonzero"/><path fill="#287e34" d="M 150.148438 146.644531 C 150.019531 146.570312 149.894531 146.488281 149.773438 146.394531 C 148.046875 145.050781 145.867188 143.183594 143.652344 140.816406 C 143.984375 138.828125 144.945312 136.988281 146.445312 135.535156 C 146.714844 135.269531 146.984375 135.011719 147.253906 134.753906 C 147.886719 136.21875 148.515625 137.613281 149.125 138.910156 C 149.167969 139 149.179688 139.105469 149.15625 139.199219 C 148.484375 140.019531 148.113281 140.988281 148.023438 141.972656 C 148 142.195312 147.992188 142.417969 147.996094 142.640625 C 148 142.679688 148.003906 142.714844 148.011719 142.753906 C 148.101562 144.25 148.835938 145.703125 150.148438 146.644531 M 157.8125 127.726562 C 157.769531 127.304688 157.71875 126.878906 157.660156 126.453125 C 157.671875 126.445312 157.6875 126.441406 157.699219 126.433594 C 157.746094 126.855469 157.785156 127.289062 157.8125 127.726562 " fill-opacity="1" fill-rule="nonzero"/><path fill="#006630" d="M 148.011719 142.753906 C 148.003906 142.714844 148 142.679688 147.996094 142.640625 C 147.992188 142.417969 148 142.195312 148.023438 141.972656 C 148 142.230469 148 142.492188 148.011719 142.753906 M 149.15625 139.199219 C 149.179688 139.105469 149.167969 139 149.125 138.910156 C 148.515625 137.613281 147.886719 136.21875 147.253906 134.753906 C 150.628906 131.5625 154.101562 128.792969 157.660156 126.453125 C 157.71875 126.878906 157.769531 127.304688 157.8125 127.726562 C 157.8125 127.730469 157.8125 127.738281 157.816406 127.742188 C 157.898438 128.972656 157.914062 130.242188 157.855469 131.554688 C 157.855469 131.617188 157.863281 131.675781 157.882812 131.730469 C 157.882812 131.738281 157.882812 131.742188 157.882812 131.75 C 155.125 133.734375 152.347656 136.054688 149.566406 138.757812 C 149.417969 138.898438 149.285156 139.046875 149.15625 139.199219 " fill-opacity="1" fill-rule="nonzero"/><g clip-path="url(#b08e276466)"><g clip-path="url(#adf446f926)"><path fill="url(#894a9c153b)" d="M 72.640625 145.253906 L 72.640625 250.8125 L 171.457031 250.8125 L 171.457031 145.253906 Z M 72.640625 145.253906 " fill-rule="nonzero"/></g></g><g fill="#009245" fill-opacity="1"><g transform="translate(187.097073, 218.756438)"><g><path d="M 2.691406 -49.453125 L 19.3125 -49.453125 L 19.3125 -41.984375 L 9.957031 -41.984375 L 9.957031 -29 L 16.6875 -29 L 16.6875 -21.058594 L 9.957031 -21.058594 L 9.957031 -7.46875 L 19.3125 -7.46875 L 19.3125 0 L 2.691406 0 Z M 2.691406 -49.453125 "/></g></g></g><g fill="#009245" fill-opacity="1"><g transform="translate(207.751796, 218.756438)"><g><path d="M 21.597656 -16.957031 L 21.597656 -10.160156 C 21.53125 -8.140625 21.128906 -6.324219 20.386719 -4.777344 C 19.78125 -3.429688 18.839844 -2.152344 17.492188 -1.144531 C 16.148438 -0.0664062 14.332031 0.539062 11.910156 0.539062 C 9.488281 0.539062 7.601562 -0.0664062 6.257812 -1.144531 C 4.910156 -2.152344 4.035156 -3.429688 3.429688 -4.777344 C 2.691406 -6.324219 2.289062 -8.140625 2.21875 -10.160156 L 2.21875 -39.292969 C 2.289062 -41.246094 2.691406 -43.0625 3.429688 -44.609375 C 4.035156 -45.957031 4.910156 -47.300781 6.257812 -48.308594 C 7.601562 -49.320312 9.488281 -49.992188 11.910156 -49.992188 C 14.332031 -49.992188 16.148438 -49.320312 17.492188 -48.308594 C 18.839844 -47.300781 19.78125 -45.957031 20.386719 -44.609375 C 21.128906 -43.0625 21.53125 -41.246094 21.597656 -39.292969 L 21.597656 -32.5 L 14.800781 -32.5 L 14.800781 -39.292969 C 14.800781 -40.640625 14.464844 -41.582031 13.726562 -42.390625 C 13.390625 -42.726562 12.785156 -42.925781 12.042969 -42.925781 C 10.765625 -42.925781 10.160156 -41.984375 9.824219 -41.109375 C 9.621094 -40.574219 9.554688 -39.96875 9.488281 -39.292969 L 9.488281 -10.160156 C 9.554688 -8.746094 9.957031 -7.804688 10.632812 -7.066406 C 10.96875 -6.726562 11.4375 -6.527344 12.042969 -6.527344 C 13.589844 -6.527344 14.195312 -7.335938 14.535156 -8.34375 C 14.734375 -8.8125 14.800781 -9.417969 14.800781 -10.160156 L 14.800781 -16.957031 Z M 21.597656 -16.957031 "/></g></g></g><g fill="#009245" fill-opacity="1"><g transform="translate(231.030412, 218.756438)"><g><path d="M 21.597656 -10.160156 C 21.53125 -8.140625 21.128906 -6.324219 20.386719 -4.777344 C 19.78125 -3.429688 18.839844 -2.152344 17.492188 -1.144531 C 16.148438 -0.0664062 14.332031 0.539062 11.910156 0.539062 C 9.488281 0.539062 7.601562 -0.0664062 6.257812 -1.144531 C 4.910156 -2.152344 4.035156 -3.429688 3.429688 -4.777344 C 2.691406 -6.324219 2.289062 -8.140625 2.21875 -10.160156 L 2.21875 -39.292969 C 2.289062 -41.246094 2.691406 -43.0625 3.429688 -44.609375 C 4.035156 -45.957031 4.910156 -47.300781 6.257812 -48.308594 C 7.601562 -49.320312 9.488281 -49.992188 11.910156 -49.992188 C 14.332031 -49.992188 16.148438 -49.320312 17.492188 -48.308594 C 18.839844 -47.300781 19.78125 -45.957031 20.386719 -44.609375 C 21.128906 -43.0625 21.53125 -41.246094 21.597656 -39.292969 Z M 14.332031 -39.292969 C 14.332031 -40.640625 14.0625 -41.582031 13.390625 -42.390625 C 13.054688 -42.726562 12.515625 -42.925781 11.910156 -42.925781 C 10.632812 -42.925781 10.023438 -41.984375 9.757812 -41.109375 C 9.554688 -40.574219 9.488281 -39.96875 9.488281 -39.292969 L 9.488281 -10.160156 C 9.488281 -8.746094 9.824219 -7.804688 10.496094 -7.066406 C 10.832031 -6.726562 11.304688 -6.527344 11.910156 -6.527344 C 13.1875 -6.527344 13.792969 -7.335938 14.0625 -8.34375 C 14.265625 -8.8125 14.332031 -9.417969 14.332031 -10.160156 Z M 14.332031 -39.292969 "/></g></g></g><g fill="#009245" fill-opacity="1"><g transform="translate(254.847263, 218.756438)"><g><path d="M 0.132812 -41.984375 L 0.132812 -49.453125 L 21.128906 -49.453125 L 21.128906 -41.984375 L 14.265625 -41.984375 L 14.265625 0 L 6.996094 0 L 6.996094 -41.984375 Z M 0.132812 -41.984375 "/></g></g></g><g fill="#009245" fill-opacity="1"><g transform="translate(276.107504, 218.756438)"><g><path d="M 2.691406 -49.453125 L 19.3125 -49.453125 L 19.3125 -41.984375 L 9.957031 -41.984375 L 9.957031 -29 L 16.6875 -29 L 16.6875 -21.058594 L 9.957031 -21.058594 L 9.957031 -7.46875 L 19.3125 -7.46875 L 19.3125 0 L 2.691406 0 Z M 2.691406 -49.453125 "/></g></g></g><g fill="#009245" fill-opacity="1"><g transform="translate(296.762227, 218.756438)"><g><path d="M 21.597656 -16.957031 L 21.597656 -10.160156 C 21.53125 -8.140625 21.128906 -6.324219 20.386719 -4.777344 C 19.78125 -3.429688 18.839844 -2.152344 17.492188 -1.144531 C 16.148438 -0.0664062 14.332031 0.539062 11.910156 0.539062 C 9.488281 0.539062 7.601562 -0.0664062 6.257812 -1.144531 C 4.910156 -2.152344 4.035156 -3.429688 3.429688 -4.777344 C 2.691406 -6.324219 2.289062 -8.140625 2.21875 -10.160156 L 2.21875 -39.292969 C 2.289062 -41.246094 2.691406 -43.0625 3.429688 -44.609375 C 4.035156 -45.957031 4.910156 -47.300781 6.257812 -48.308594 C 7.601562 -49.320312 9.488281 -49.992188 11.910156 -49.992188 C 14.332031 -49.992188 16.148438 -49.320312 17.492188 -48.308594 C 18.839844 -47.300781 19.78125 -45.957031 20.386719 -44.609375 C 21.128906 -43.0625 21.53125 -41.246094 21.597656 -39.292969 L 21.597656 -32.5 L 14.800781 -32.5 L 14.800781 -39.292969 C 14.800781 -40.640625 14.464844 -41.582031 13.726562 -42.390625 C 13.390625 -42.726562 12.785156 -42.925781 12.042969 -42.925781 C 10.765625 -42.925781 10.160156 -41.984375 9.824219 -41.109375 C 9.621094 -40.574219 9.554688 -39.96875 9.488281 -39.292969 L 9.488281 -10.160156 C 9.554688 -8.746094 9.957031 -7.804688 10.632812 -7.066406 C 10.96875 -6.726562 11.4375 -6.527344 12.042969 -6.527344 C 13.589844 -6.527344 14.195312 -7.335938 14.535156 -8.34375 C 14.734375 -8.8125 14.800781 -9.417969 14.800781 -10.160156 L 14.800781 -16.957031 Z M 21.597656 -16.957031 "/></g></g></g><g fill="#009245" fill-opacity="1"><g transform="translate(320.040843, 218.756438)"><g><path d="M 15.609375 -21.53125 L 9.957031 -21.53125 L 9.957031 0 L 2.691406 0 L 2.691406 -49.453125 L 9.957031 -49.453125 L 9.957031 -29 L 15.609375 -29 L 15.609375 -49.453125 L 22.875 -49.453125 L 22.875 0 L 15.609375 0 Z M 15.609375 -21.53125 "/></g></g></g><g fill="#152029" fill-opacity="1"><g transform="translate(187.499992, 240.635975)"><g><path d="M 1 -13.8125 L 5.28125 -13.8125 C 6.582031 -13.8125 7.613281 -13.535156 8.375 -12.984375 C 9.144531 -12.429688 9.53125 -11.535156 9.53125 -10.296875 C 9.53125 -8.910156 8.957031 -7.921875 7.8125 -7.328125 C 9.78125 -6.984375 10.765625 -5.820312 10.765625 -3.84375 C 10.765625 -2.6875 10.359375 -1.753906 9.546875 -1.046875 C 8.742188 -0.347656 7.640625 0 6.234375 0 L 1 0 Z M 4.15625 -8.40625 L 4.40625 -8.40625 C 5.101562 -8.40625 5.625 -8.523438 5.96875 -8.765625 C 6.320312 -9.015625 6.5 -9.414062 6.5 -9.96875 C 6.5 -10.90625 5.800781 -11.375 4.40625 -11.375 L 4.15625 -11.375 Z M 4.15625 -2.421875 L 5.140625 -2.421875 C 6.679688 -2.421875 7.453125 -2.9375 7.453125 -3.96875 C 7.453125 -4.582031 7.257812 -5.019531 6.875 -5.28125 C 6.488281 -5.550781 5.910156 -5.6875 5.140625 -5.6875 L 4.15625 -5.6875 Z M 4.15625 -2.421875 "/></g></g></g><g fill="#152029" fill-opacity="1"><g transform="translate(201.959765, 240.635975)"><g><path d="M -0.5 -13.8125 L 3.28125 -13.8125 L 6.15625 -9.390625 L 9.03125 -13.8125 L 12.8125 -13.8125 L 7.734375 -6.1875 L 7.734375 0 L 4.578125 0 L 4.578125 -6.1875 Z M -0.5 -13.8125 "/></g></g></g><g fill="#152029" fill-opacity="1"><g transform="translate(217.590945, 240.635975)"><g/></g></g><g fill="#152029" fill-opacity="1"><g transform="translate(225.474141, 240.635975)"><g><path d="M 1 -13.8125 L 5.28125 -13.8125 C 6.582031 -13.8125 7.613281 -13.535156 8.375 -12.984375 C 9.144531 -12.429688 9.53125 -11.535156 9.53125 -10.296875 C 9.53125 -8.910156 8.957031 -7.921875 7.8125 -7.328125 C 9.78125 -6.984375 10.765625 -5.820312 10.765625 -3.84375 C 10.765625 -2.6875 10.359375 -1.753906 9.546875 -1.046875 C 8.742188 -0.347656 7.640625 0 6.234375 0 L 1 0 Z M 4.15625 -8.40625 L 4.40625 -8.40625 C 5.101562 -8.40625 5.625 -8.523438 5.96875 -8.765625 C 6.320312 -9.015625 6.5 -9.414062 6.5 -9.96875 C 6.5 -10.90625 5.800781 -11.375 4.40625 -11.375 L 4.15625 -11.375 Z M 4.15625 -2.421875 L 5.140625 -2.421875 C 6.679688 -2.421875 7.453125 -2.9375 7.453125 -3.96875 C 7.453125 -4.582031 7.257812 -5.019531 6.875 -5.28125 C 6.488281 -5.550781 5.910156 -5.6875 5.140625 -5.6875 L 4.15625 -5.6875 Z M 4.15625 -2.421875 "/></g></g></g><g fill="#152029" fill-opacity="1"><g transform="translate(239.933916, 240.635975)"><g><path d="M 8.90625 -13.8125 L 8.90625 -11.046875 L 4.15625 -11.046875 L 4.15625 -8.296875 L 8.703125 -8.296875 L 8.703125 -5.546875 L 4.15625 -5.546875 L 4.15625 -2.765625 L 8.90625 -2.765625 L 8.90625 0 L 1 0 L 1 -13.8125 Z M 8.90625 -13.8125 "/></g></g></g><g fill="#152029" fill-opacity="1"><g transform="translate(252.954539, 240.635975)"><g><path d="M 8.015625 -13.8125 L 13.59375 0 L 10.203125 0 L 9.1875 -2.765625 L 3.9375 -2.765625 L 2.90625 0 L -0.46875 0 L 5.109375 -13.8125 Z M 8.109375 -5.515625 L 6.578125 -9.53125 L 6.546875 -9.53125 L 5 -5.515625 Z M 8.109375 -5.515625 "/></g></g></g></svg>